<svg width="400" height="300" viewBox="0 0 400 300" fill="none" xmlns="http://www.w3.org/2000/svg">
<g id="floor7_image">
<rect width="400" height="300" fill="white"/>
<g id="7 floor">
<g id="escalator">
<mask id="path-1-inside-1_37_1057" fill="white">
<path d="M142 82H257V101H142V82Z"/>
</mask>
<path d="M142 82V81H141V82H142ZM257 82H258V81H257V82ZM142 83H257V81H142V83ZM256 82V101H258V82H256ZM143 101V82H141V101H143Z" fill="black" mask="url(#path-1-inside-1_37_1057)"/>
</g>
<g id="floor7 rooms">
<g clip-path="url(#clip0_37_1057)">
<mask id="path-3-inside-2_37_1057" fill="white">
<path d="M20 100H379V218H20V100Z"/>
</mask>
<g id="WC">
<g clip-path="url(#clip1_37_1057)">
<path id="WC_2" d="M128.191 128L126.6 122.182H127.316L128.532 126.92H128.589L129.827 122.182H130.623L131.862 126.92H131.918L133.134 122.182H133.85L132.259 128H131.532L130.248 123.364H130.202L128.918 128H128.191ZM139.136 124H138.432C138.39 123.797 138.317 123.619 138.213 123.466C138.111 123.312 137.986 123.184 137.838 123.08C137.692 122.973 137.53 122.894 137.352 122.841C137.174 122.788 136.989 122.761 136.795 122.761C136.443 122.761 136.124 122.85 135.838 123.028C135.554 123.206 135.328 123.469 135.159 123.815C134.992 124.162 134.909 124.587 134.909 125.091C134.909 125.595 134.992 126.02 135.159 126.366C135.328 126.713 135.554 126.975 135.838 127.153C136.124 127.331 136.443 127.42 136.795 127.42C136.989 127.42 137.174 127.394 137.352 127.341C137.53 127.288 137.692 127.209 137.838 127.105C137.986 126.999 138.111 126.869 138.213 126.716C138.317 126.561 138.39 126.383 138.432 126.182H139.136C139.083 126.479 138.987 126.745 138.847 126.98C138.706 127.215 138.532 127.415 138.324 127.58C138.116 127.742 137.882 127.866 137.622 127.952C137.365 128.037 137.089 128.08 136.795 128.08C136.299 128.08 135.858 127.958 135.472 127.716C135.085 127.473 134.781 127.129 134.56 126.682C134.338 126.235 134.227 125.705 134.227 125.091C134.227 124.477 134.338 123.947 134.56 123.5C134.781 123.053 135.085 122.708 135.472 122.466C135.858 122.223 136.299 122.102 136.795 122.102C137.089 122.102 137.365 122.145 137.622 122.23C137.882 122.315 138.116 122.44 138.324 122.605C138.532 122.768 138.706 122.967 138.847 123.202C138.987 123.435 139.083 123.701 139.136 124Z" fill="black"/>
</g>
<rect x="122.5" y="100.5" width="20" height="50" stroke="black"/>
</g>
<g id="WC_3">
<g clip-path="url(#clip2_37_1057)">
<path id="WC_4" d="M262.191 128L260.6 122.182H261.316L262.532 126.92H262.589L263.827 122.182H264.623L265.862 126.92H265.918L267.134 122.182H267.85L266.259 128H265.532L264.248 123.364H264.202L262.918 128H262.191ZM273.136 124H272.432C272.39 123.797 272.317 123.619 272.213 123.466C272.111 123.312 271.986 123.184 271.838 123.08C271.692 122.973 271.53 122.894 271.352 122.841C271.174 122.788 270.989 122.761 270.795 122.761C270.443 122.761 270.124 122.85 269.838 123.028C269.554 123.206 269.328 123.469 269.159 123.815C268.992 124.162 268.909 124.587 268.909 125.091C268.909 125.595 268.992 126.02 269.159 126.366C269.328 126.713 269.554 126.975 269.838 127.153C270.124 127.331 270.443 127.42 270.795 127.42C270.989 127.42 271.174 127.394 271.352 127.341C271.53 127.288 271.692 127.209 271.838 127.105C271.986 126.999 272.111 126.869 272.213 126.716C272.317 126.561 272.39 126.383 272.432 126.182H273.136C273.083 126.479 272.987 126.745 272.847 126.98C272.706 127.215 272.532 127.415 272.324 127.58C272.116 127.742 271.882 127.866 271.622 127.952C271.365 128.037 271.089 128.08 270.795 128.08C270.299 128.08 269.858 127.958 269.472 127.716C269.085 127.473 268.781 127.129 268.56 126.682C268.338 126.235 268.227 125.705 268.227 125.091C268.227 124.477 268.338 123.947 268.56 123.5C268.781 123.053 269.085 122.708 269.472 122.466C269.858 122.223 270.299 122.102 270.795 122.102C271.089 122.102 271.365 122.145 271.622 122.23C271.882 122.315 272.116 122.44 272.324 122.605C272.532 122.768 272.706 122.967 272.847 123.202C272.987 123.435 273.083 123.701 273.136 124Z" fill="black"/>
</g>
<rect x="256.5" y="100.5" width="20" height="50" stroke="black"/>
</g>
<g id="&#229;&#144;&#185;&#227;&#129;&#141;&#230;&#138;&#156;&#227;&#129;&#145;">
<rect x="169.5" y="109.5" width="60" height="28" stroke="black"/>
</g>
<g id="3-705">
<rect x="276.5" y="100.5" width="102" height="61" stroke="black"/>
<path id="Line 4" d="M288 169V155" stroke="black"/>
<g id="Line 5" filter="url(#filter0_d_37_1057)">
<path d="M367 169V155" stroke="black"/>
</g>
<path id="room" d="M318.615 134.08C318.24 134.08 317.906 134.015 317.612 133.886C317.321 133.758 317.089 133.579 316.916 133.349C316.746 133.118 316.653 132.85 316.638 132.545H317.354C317.369 132.733 317.433 132.895 317.547 133.031C317.661 133.166 317.809 133.27 317.993 133.344C318.177 133.418 318.38 133.455 318.604 133.455C318.854 133.455 319.075 133.411 319.268 133.324C319.462 133.237 319.613 133.116 319.723 132.96C319.833 132.805 319.888 132.625 319.888 132.42C319.888 132.206 319.835 132.018 319.729 131.855C319.623 131.69 319.467 131.562 319.263 131.469C319.058 131.376 318.808 131.33 318.513 131.33H318.047V130.705H318.513C318.744 130.705 318.946 130.663 319.121 130.58C319.297 130.496 319.434 130.379 319.533 130.227C319.633 130.076 319.683 129.898 319.683 129.693C319.683 129.496 319.64 129.325 319.553 129.179C319.465 129.033 319.342 128.92 319.183 128.838C319.026 128.757 318.84 128.716 318.626 128.716C318.426 128.716 318.236 128.753 318.058 128.827C317.882 128.899 317.738 129.004 317.626 129.142C317.515 129.278 317.454 129.443 317.445 129.636H316.763C316.774 129.331 316.866 129.064 317.038 128.835C317.211 128.604 317.436 128.424 317.714 128.295C317.995 128.167 318.303 128.102 318.638 128.102C318.998 128.102 319.306 128.175 319.564 128.321C319.821 128.465 320.019 128.655 320.158 128.892C320.296 129.129 320.365 129.384 320.365 129.659C320.365 129.987 320.279 130.266 320.107 130.497C319.936 130.728 319.704 130.888 319.411 130.977V131.023C319.778 131.083 320.065 131.24 320.271 131.491C320.478 131.741 320.581 132.051 320.581 132.42C320.581 132.737 320.495 133.021 320.322 133.273C320.152 133.523 319.919 133.72 319.624 133.864C319.328 134.008 318.992 134.08 318.615 134.08ZM324.254 130.778V131.403H321.709V130.778H324.254ZM325.425 134L328.027 128.852V128.807H325.027V128.182H328.754V128.841L326.163 134H325.425ZM331.586 134.08C331.158 134.08 330.793 133.963 330.492 133.73C330.191 133.495 329.961 133.155 329.802 132.71C329.643 132.263 329.563 131.723 329.563 131.091C329.563 130.462 329.643 129.925 329.802 129.48C329.963 129.033 330.194 128.692 330.495 128.457C330.798 128.221 331.162 128.102 331.586 128.102C332.01 128.102 332.373 128.221 332.674 128.457C332.977 128.692 333.208 129.033 333.367 129.48C333.528 129.925 333.609 130.462 333.609 131.091C333.609 131.723 333.529 132.263 333.37 132.71C333.211 133.155 332.981 133.495 332.68 133.73C332.379 133.963 332.014 134.08 331.586 134.08ZM331.586 133.455C332.01 133.455 332.34 133.25 332.575 132.841C332.809 132.432 332.927 131.848 332.927 131.091C332.927 130.587 332.873 130.158 332.765 129.804C332.659 129.45 332.505 129.18 332.305 128.994C332.106 128.809 331.866 128.716 331.586 128.716C331.165 128.716 330.837 128.923 330.6 129.338C330.363 129.751 330.245 130.335 330.245 131.091C330.245 131.595 330.298 132.023 330.404 132.375C330.51 132.727 330.663 132.995 330.862 133.179C331.062 133.363 331.304 133.455 331.586 133.455ZM336.506 134.08C336.173 134.08 335.873 134.013 335.606 133.881C335.339 133.748 335.125 133.566 334.964 133.335C334.803 133.104 334.715 132.841 334.7 132.545H335.381C335.408 132.809 335.527 133.027 335.739 133.199C335.953 133.369 336.209 133.455 336.506 133.455C336.745 133.455 336.957 133.399 337.143 133.287C337.33 133.175 337.477 133.022 337.583 132.827C337.691 132.63 337.745 132.407 337.745 132.159C337.745 131.905 337.689 131.679 337.577 131.48C337.468 131.279 337.316 131.121 337.123 131.006C336.93 130.89 336.709 130.831 336.461 130.83C336.283 130.828 336.1 130.855 335.913 130.912C335.725 130.967 335.571 131.038 335.45 131.125L334.79 131.045L335.143 128.182H338.165V128.807H335.734L335.529 130.523H335.563C335.683 130.428 335.832 130.349 336.012 130.287C336.192 130.224 336.379 130.193 336.575 130.193C336.931 130.193 337.248 130.278 337.526 130.449C337.807 130.617 338.026 130.848 338.185 131.142C338.346 131.436 338.427 131.771 338.427 132.148C338.427 132.519 338.344 132.85 338.177 133.142C338.012 133.432 337.785 133.661 337.495 133.83C337.205 133.996 336.876 134.08 336.506 134.08Z" fill="black"/>
</g>
<g id="3-706">
<rect x="20.5" y="100.5" width="102" height="61" stroke="black"/>
<path id="Line 4_2" d="M32 169L32 155" stroke="black"/>
<g id="Line 5_2" filter="url(#filter1_d_37_1057)">
<path d="M111 169V155" stroke="black"/>
</g>
<path id="room_2" d="M62.0526 134.08C61.6776 134.08 61.3433 134.015 61.0497 133.886C60.758 133.758 60.526 133.579 60.3537 133.349C60.1832 133.118 60.0904 132.85 60.0753 132.545H60.7912C60.8063 132.733 60.8707 132.895 60.9844 133.031C61.098 133.166 61.2467 133.27 61.4304 133.344C61.6141 133.418 61.8177 133.455 62.0412 133.455C62.2912 133.455 62.5128 133.411 62.706 133.324C62.8991 133.237 63.0507 133.116 63.1605 132.96C63.2704 132.805 63.3253 132.625 63.3253 132.42C63.3253 132.206 63.2723 132.018 63.1662 131.855C63.0601 131.69 62.9048 131.562 62.7003 131.469C62.4957 131.376 62.2457 131.33 61.9503 131.33H61.4844V130.705H61.9503C62.1813 130.705 62.384 130.663 62.5582 130.58C62.7344 130.496 62.8717 130.379 62.9702 130.227C63.0705 130.076 63.1207 129.898 63.1207 129.693C63.1207 129.496 63.0772 129.325 62.9901 129.179C62.9029 129.033 62.7798 128.92 62.6207 128.838C62.4635 128.757 62.2779 128.716 62.0639 128.716C61.8632 128.716 61.6738 128.753 61.4957 128.827C61.3196 128.899 61.1757 129.004 61.0639 129.142C60.9522 129.278 60.8916 129.443 60.8821 129.636H60.2003C60.2116 129.331 60.3035 129.064 60.4759 128.835C60.6482 128.604 60.8736 128.424 61.152 128.295C61.4323 128.167 61.7401 128.102 62.0753 128.102C62.4351 128.102 62.7438 128.175 63.0014 128.321C63.259 128.465 63.4569 128.655 63.5952 128.892C63.7334 129.129 63.8026 129.384 63.8026 129.659C63.8026 129.987 63.7164 130.266 63.544 130.497C63.3736 130.728 63.1416 130.888 62.848 130.977V131.023C63.2154 131.083 63.5024 131.24 63.7088 131.491C63.9152 131.741 64.0185 132.051 64.0185 132.42C64.0185 132.737 63.9323 133.021 63.7599 133.273C63.5895 133.523 63.3565 133.72 63.0611 133.864C62.7656 134.008 62.4295 134.08 62.0526 134.08ZM67.6918 130.778V131.403H65.1463V130.778H67.6918ZM68.8622 134L71.4645 128.852V128.807H68.4645V128.182H72.1918V128.841L69.6009 134H68.8622ZM75.0234 134.08C74.5954 134.08 74.2308 133.963 73.9297 133.73C73.6286 133.495 73.3984 133.155 73.2393 132.71C73.0803 132.263 73.0007 131.723 73.0007 131.091C73.0007 130.462 73.0803 129.925 73.2393 129.48C73.4003 129.033 73.6314 128.692 73.9325 128.457C74.2356 128.221 74.5992 128.102 75.0234 128.102C75.4477 128.102 75.8104 128.221 76.1115 128.457C76.4145 128.692 76.6456 129.033 76.8047 129.48C76.9657 129.925 77.0462 130.462 77.0462 131.091C77.0462 131.723 76.9666 132.263 76.8075 132.71C76.6484 133.155 76.4183 133.495 76.1172 133.73C75.8161 133.963 75.4515 134.08 75.0234 134.08ZM75.0234 133.455C75.4477 133.455 75.7772 133.25 76.0121 132.841C76.2469 132.432 76.3643 131.848 76.3643 131.091C76.3643 130.587 76.3104 130.158 76.2024 129.804C76.0964 129.45 75.9429 129.18 75.7422 128.994C75.5433 128.809 75.3037 128.716 75.0234 128.716C74.603 128.716 74.2744 128.923 74.0376 129.338C73.8009 129.751 73.6825 130.335 73.6825 131.091C73.6825 131.595 73.7356 132.023 73.8416 132.375C73.9477 132.727 74.1001 132.995 74.299 133.179C74.4998 133.363 74.7412 133.455 75.0234 133.455ZM80.0575 134.08C79.8189 134.076 79.5803 134.03 79.3416 133.943C79.103 133.856 78.8852 133.709 78.6882 133.503C78.4912 133.295 78.3331 133.013 78.2138 132.659C78.0945 132.303 78.0348 131.856 78.0348 131.318C78.0348 130.803 78.0831 130.347 78.1797 129.949C78.2763 129.549 78.4164 129.213 78.6001 128.94C78.7839 128.666 79.0054 128.457 79.2649 128.315C79.5263 128.173 79.8208 128.102 80.1484 128.102C80.4742 128.102 80.764 128.168 81.0178 128.298C81.2734 128.427 81.4818 128.607 81.6428 128.838C81.8037 129.069 81.9079 129.335 81.9553 129.636H81.2621C81.1977 129.375 81.0727 129.158 80.8871 128.986C80.7015 128.813 80.4553 128.727 80.1484 128.727C79.6977 128.727 79.3426 128.923 79.0831 129.315C78.8255 129.707 78.6958 130.258 78.6939 130.966H78.7393C78.8454 130.805 78.9714 130.668 79.1172 130.554C79.2649 130.438 79.4278 130.349 79.6058 130.287C79.7839 130.224 79.9723 130.193 80.1712 130.193C80.5045 130.193 80.8094 130.277 81.0859 130.443C81.3625 130.608 81.584 130.836 81.7507 131.128C81.9174 131.418 82.0007 131.75 82.0007 132.125C82.0007 132.485 81.9202 132.814 81.7592 133.114C81.5982 133.411 81.3719 133.648 81.0803 133.824C80.7905 133.998 80.4496 134.083 80.0575 134.08ZM80.0575 133.455C80.2962 133.455 80.5102 133.395 80.6996 133.276C80.8909 133.156 81.0414 132.996 81.1513 132.795C81.263 132.595 81.3189 132.371 81.3189 132.125C81.3189 131.884 81.2649 131.666 81.157 131.469C81.0509 131.27 80.9041 131.112 80.7166 130.994C80.531 130.877 80.3189 130.818 80.0803 130.818C79.9003 130.818 79.7327 130.854 79.5774 130.926C79.4221 130.996 79.2857 131.093 79.1683 131.216C79.0528 131.339 78.9619 131.48 78.8956 131.639C78.8293 131.796 78.7962 131.962 78.7962 132.136C78.7962 132.367 78.8501 132.583 78.9581 132.784C79.0679 132.985 79.2176 133.147 79.407 133.27C79.5982 133.393 79.8151 133.455 80.0575 133.455Z" fill="black"/>
</g>
<g id="3-704">
<rect x="67.5" y="178.5" width="66" height="39" stroke="black"/>
<path id="Line 1" d="M124.5 176L124.5 183" stroke="black"/>
<g id="Line 3" filter="url(#filter2_d_37_1057)">
<line x1="79.5" y1="176" x2="79.5" y2="183" stroke="black"/>
</g>
<path id="room_3" d="M92.4822 202.08C92.1072 202.08 91.773 202.015 91.4794 201.886C91.1877 201.758 90.9557 201.579 90.7834 201.349C90.6129 201.118 90.5201 200.85 90.505 200.545H91.2209C91.236 200.733 91.3004 200.895 91.4141 201.031C91.5277 201.166 91.6764 201.27 91.8601 201.344C92.0438 201.418 92.2474 201.455 92.4709 201.455C92.7209 201.455 92.9425 201.411 93.1357 201.324C93.3288 201.237 93.4804 201.116 93.5902 200.96C93.7 200.805 93.755 200.625 93.755 200.42C93.755 200.206 93.7019 200.018 93.5959 199.855C93.4898 199.69 93.3345 199.562 93.13 199.469C92.9254 199.376 92.6754 199.33 92.38 199.33H91.9141V198.705H92.38C92.611 198.705 92.8137 198.663 92.9879 198.58C93.1641 198.496 93.3014 198.379 93.3999 198.227C93.5002 198.076 93.5504 197.898 93.5504 197.693C93.5504 197.496 93.5069 197.325 93.4197 197.179C93.3326 197.033 93.2095 196.92 93.0504 196.838C92.8932 196.757 92.7076 196.716 92.4936 196.716C92.2929 196.716 92.1035 196.753 91.9254 196.827C91.7493 196.899 91.6054 197.004 91.4936 197.142C91.3819 197.278 91.3213 197.443 91.3118 197.636H90.63C90.6413 197.331 90.7332 197.064 90.9055 196.835C91.0779 196.604 91.3033 196.424 91.5817 196.295C91.862 196.167 92.1697 196.102 92.505 196.102C92.8648 196.102 93.1735 196.175 93.4311 196.321C93.6887 196.465 93.8866 196.655 94.0249 196.892C94.1631 197.129 94.2322 197.384 94.2322 197.659C94.2322 197.987 94.1461 198.266 93.9737 198.497C93.8033 198.728 93.5713 198.888 93.2777 198.977V199.023C93.6451 199.083 93.9321 199.24 94.1385 199.491C94.3449 199.741 94.4482 200.051 94.4482 200.42C94.4482 200.737 94.362 201.021 94.1896 201.273C94.0192 201.523 93.7862 201.72 93.4908 201.864C93.1953 202.008 92.8591 202.08 92.4822 202.08ZM98.1214 198.778V199.403H95.576V198.778H98.1214ZM99.2919 202L101.894 196.852V196.807H98.8942V196.182H102.621V196.841L100.031 202H99.2919ZM105.453 202.08C105.025 202.08 104.661 201.963 104.359 201.73C104.058 201.495 103.828 201.155 103.669 200.71C103.51 200.263 103.43 199.723 103.43 199.091C103.43 198.462 103.51 197.925 103.669 197.48C103.83 197.033 104.061 196.692 104.362 196.457C104.665 196.221 105.029 196.102 105.453 196.102C105.877 196.102 106.24 196.221 106.541 196.457C106.844 196.692 107.075 197.033 107.234 197.48C107.395 197.925 107.476 198.462 107.476 199.091C107.476 199.723 107.396 200.263 107.237 200.71C107.078 201.155 106.848 201.495 106.547 201.73C106.246 201.963 105.881 202.08 105.453 202.08ZM105.453 201.455C105.877 201.455 106.207 201.25 106.442 200.841C106.677 200.432 106.794 199.848 106.794 199.091C106.794 198.587 106.74 198.158 106.632 197.804C106.526 197.45 106.373 197.18 106.172 196.994C105.973 196.809 105.733 196.716 105.453 196.716C105.033 196.716 104.704 196.923 104.467 197.338C104.231 197.751 104.112 198.335 104.112 199.091C104.112 199.595 104.165 200.023 104.271 200.375C104.377 200.727 104.53 200.995 104.729 201.179C104.929 201.363 105.171 201.455 105.453 201.455ZM108.419 200.807V200.227L110.976 196.182H111.396V197.08H111.112L109.18 200.136V200.182H112.624V200.807H108.419ZM111.158 202V200.631V200.361V196.182H111.828V202H111.158Z" fill="black"/>
</g>
<g id="3-703">
<rect x="133.5" y="178.5" width="66" height="39" stroke="black"/>
<path id="Line 1_2" d="M190.5 176L190.5 183" stroke="black"/>
<g id="Line 3_2" filter="url(#filter3_d_37_1057)">
<line x1="145.5" y1="176" x2="145.5" y2="183" stroke="black"/>
</g>
<path id="room_4" d="M158.502 202.08C158.127 202.08 157.792 202.015 157.499 201.886C157.207 201.758 156.975 201.579 156.803 201.349C156.632 201.118 156.54 200.85 156.525 200.545H157.24C157.256 200.733 157.32 200.895 157.434 201.031C157.547 201.166 157.696 201.27 157.88 201.344C158.063 201.418 158.267 201.455 158.49 201.455C158.74 201.455 158.962 201.411 159.155 201.324C159.348 201.237 159.5 201.116 159.61 200.96C159.72 200.805 159.775 200.625 159.775 200.42C159.775 200.206 159.721 200.018 159.615 199.855C159.509 199.69 159.354 199.562 159.15 199.469C158.945 199.376 158.695 199.33 158.4 199.33H157.934V198.705H158.4C158.631 198.705 158.833 198.663 159.007 198.58C159.184 198.496 159.321 198.379 159.419 198.227C159.52 198.076 159.57 197.898 159.57 197.693C159.57 197.496 159.526 197.325 159.439 197.179C159.352 197.033 159.229 196.92 159.07 196.838C158.913 196.757 158.727 196.716 158.513 196.716C158.312 196.716 158.123 196.753 157.945 196.827C157.769 196.899 157.625 197.004 157.513 197.142C157.401 197.278 157.341 197.443 157.331 197.636H156.65C156.661 197.331 156.753 197.064 156.925 196.835C157.097 196.604 157.323 196.424 157.601 196.295C157.882 196.167 158.189 196.102 158.525 196.102C158.884 196.102 159.193 196.175 159.451 196.321C159.708 196.465 159.906 196.655 160.044 196.892C160.183 197.129 160.252 197.384 160.252 197.659C160.252 197.987 160.166 198.266 159.993 198.497C159.823 198.728 159.591 198.888 159.297 198.977V199.023C159.665 199.083 159.952 199.24 160.158 199.491C160.364 199.741 160.468 200.051 160.468 200.42C160.468 200.737 160.382 201.021 160.209 201.273C160.039 201.523 159.806 201.72 159.51 201.864C159.215 202.008 158.879 202.08 158.502 202.08ZM164.141 198.778V199.403H161.596V198.778H164.141ZM165.311 202L167.914 196.852V196.807H164.914V196.182H168.641V196.841L166.05 202H165.311ZM171.473 202.08C171.045 202.08 170.68 201.963 170.379 201.73C170.078 201.495 169.848 201.155 169.689 200.71C169.529 200.263 169.45 199.723 169.45 199.091C169.45 198.462 169.529 197.925 169.689 197.48C169.85 197.033 170.081 196.692 170.382 196.457C170.685 196.221 171.048 196.102 171.473 196.102C171.897 196.102 172.26 196.221 172.561 196.457C172.864 196.692 173.095 197.033 173.254 197.48C173.415 197.925 173.495 198.462 173.495 199.091C173.495 199.723 173.416 200.263 173.257 200.71C173.098 201.155 172.868 201.495 172.566 201.73C172.265 201.963 171.901 202.08 171.473 202.08ZM171.473 201.455C171.897 201.455 172.226 201.25 172.461 200.841C172.696 200.432 172.814 199.848 172.814 199.091C172.814 198.587 172.76 198.158 172.652 197.804C172.546 197.45 172.392 197.18 172.191 196.994C171.993 196.809 171.753 196.716 171.473 196.716C171.052 196.716 170.724 196.923 170.487 197.338C170.25 197.751 170.132 198.335 170.132 199.091C170.132 199.595 170.185 200.023 170.291 200.375C170.397 200.727 170.549 200.995 170.748 201.179C170.949 201.363 171.19 201.455 171.473 201.455ZM176.541 202.08C176.166 202.08 175.832 202.015 175.538 201.886C175.246 201.758 175.014 201.579 174.842 201.349C174.672 201.118 174.579 200.85 174.564 200.545H175.279C175.295 200.733 175.359 200.895 175.473 201.031C175.586 201.166 175.735 201.27 175.919 201.344C176.102 201.418 176.306 201.455 176.529 201.455C176.779 201.455 177.001 201.411 177.194 201.324C177.387 201.237 177.539 201.116 177.649 200.96C177.759 200.805 177.814 200.625 177.814 200.42C177.814 200.206 177.761 200.018 177.654 199.855C177.548 199.69 177.393 199.562 177.189 199.469C176.984 199.376 176.734 199.33 176.439 199.33H175.973V198.705H176.439C176.67 198.705 176.872 198.663 177.047 198.58C177.223 198.496 177.36 198.379 177.458 198.227C177.559 198.076 177.609 197.898 177.609 197.693C177.609 197.496 177.565 197.325 177.478 197.179C177.391 197.033 177.268 196.92 177.109 196.838C176.952 196.757 176.766 196.716 176.552 196.716C176.351 196.716 176.162 196.753 175.984 196.827C175.808 196.899 175.664 197.004 175.552 197.142C175.44 197.278 175.38 197.443 175.37 197.636H174.689C174.7 197.331 174.792 197.064 174.964 196.835C175.136 196.604 175.362 196.424 175.64 196.295C175.921 196.167 176.228 196.102 176.564 196.102C176.923 196.102 177.232 196.175 177.49 196.321C177.747 196.465 177.945 196.655 178.083 196.892C178.222 197.129 178.291 197.384 178.291 197.659C178.291 197.987 178.205 198.266 178.032 198.497C177.862 198.728 177.63 198.888 177.336 198.977V199.023C177.704 199.083 177.991 199.24 178.197 199.491C178.404 199.741 178.507 200.051 178.507 200.42C178.507 200.737 178.421 201.021 178.248 201.273C178.078 201.523 177.845 201.72 177.549 201.864C177.254 202.008 176.918 202.08 176.541 202.08Z" fill="black"/>
</g>
<g id="3-702">
<rect x="199.5" y="178.5" width="66" height="39" stroke="black"/>
<path id="Line 1_3" d="M256.5 176L256.5 183" stroke="black"/>
<g id="Line 3_3" filter="url(#filter4_d_37_1057)">
<line x1="211.5" y1="176" x2="211.5" y2="183" stroke="black"/>
</g>
<path id="room_5" d="M224.627 202.08C224.252 202.08 223.917 202.015 223.624 201.886C223.332 201.758 223.1 201.579 222.928 201.349C222.757 201.118 222.665 200.85 222.65 200.545H223.365C223.381 200.733 223.445 200.895 223.559 201.031C223.672 201.166 223.821 201.27 224.005 201.344C224.188 201.418 224.392 201.455 224.615 201.455C224.865 201.455 225.087 201.411 225.28 201.324C225.473 201.237 225.625 201.116 225.735 200.96C225.845 200.805 225.9 200.625 225.9 200.42C225.9 200.206 225.846 200.018 225.74 199.855C225.634 199.69 225.479 199.562 225.275 199.469C225.07 199.376 224.82 199.33 224.525 199.33H224.059V198.705H224.525C224.756 198.705 224.958 198.663 225.132 198.58C225.309 198.496 225.446 198.379 225.544 198.227C225.645 198.076 225.695 197.898 225.695 197.693C225.695 197.496 225.651 197.325 225.564 197.179C225.477 197.033 225.354 196.92 225.195 196.838C225.038 196.757 224.852 196.716 224.638 196.716C224.437 196.716 224.248 196.753 224.07 196.827C223.894 196.899 223.75 197.004 223.638 197.142C223.526 197.278 223.466 197.443 223.456 197.636H222.775C222.786 197.331 222.878 197.064 223.05 196.835C223.222 196.604 223.448 196.424 223.726 196.295C224.007 196.167 224.314 196.102 224.65 196.102C225.009 196.102 225.318 196.175 225.576 196.321C225.833 196.465 226.031 196.655 226.169 196.892C226.308 197.129 226.377 197.384 226.377 197.659C226.377 197.987 226.291 198.266 226.118 198.497C225.948 198.728 225.716 198.888 225.422 198.977V199.023C225.79 199.083 226.077 199.24 226.283 199.491C226.489 199.741 226.593 200.051 226.593 200.42C226.593 200.737 226.507 201.021 226.334 201.273C226.164 201.523 225.931 201.72 225.635 201.864C225.34 202.008 225.004 202.08 224.627 202.08ZM230.266 198.778V199.403H227.721V198.778H230.266ZM231.436 202L234.039 196.852V196.807H231.039V196.182H234.766V196.841L232.175 202H231.436ZM237.598 202.08C237.17 202.08 236.805 201.963 236.504 201.73C236.203 201.495 235.973 201.155 235.814 200.71C235.654 200.263 235.575 199.723 235.575 199.091C235.575 198.462 235.654 197.925 235.814 197.48C235.975 197.033 236.206 196.692 236.507 196.457C236.81 196.221 237.173 196.102 237.598 196.102C238.022 196.102 238.385 196.221 238.686 196.457C238.989 196.692 239.22 197.033 239.379 197.48C239.54 197.925 239.62 198.462 239.62 199.091C239.62 199.723 239.541 200.263 239.382 200.71C239.223 201.155 238.993 201.495 238.691 201.73C238.39 201.963 238.026 202.08 237.598 202.08ZM237.598 201.455C238.022 201.455 238.351 201.25 238.586 200.841C238.821 200.432 238.939 199.848 238.939 199.091C238.939 198.587 238.885 198.158 238.777 197.804C238.671 197.45 238.517 197.18 238.316 196.994C238.118 196.809 237.878 196.716 237.598 196.716C237.177 196.716 236.849 196.923 236.612 197.338C236.375 197.751 236.257 198.335 236.257 199.091C236.257 199.595 236.31 200.023 236.416 200.375C236.522 200.727 236.674 200.995 236.873 201.179C237.074 201.363 237.315 201.455 237.598 201.455ZM240.7 202V201.489L242.62 199.386C242.846 199.14 243.031 198.926 243.177 198.744C243.323 198.561 243.431 198.388 243.501 198.227C243.573 198.064 243.609 197.894 243.609 197.716C243.609 197.511 243.56 197.334 243.461 197.185C243.365 197.035 243.232 196.92 243.064 196.838C242.895 196.757 242.706 196.716 242.495 196.716C242.272 196.716 242.077 196.762 241.91 196.855C241.745 196.946 241.618 197.074 241.527 197.239C241.438 197.403 241.393 197.597 241.393 197.818H240.723C240.723 197.477 240.801 197.178 240.958 196.92C241.116 196.663 241.33 196.462 241.6 196.318C241.873 196.174 242.179 196.102 242.518 196.102C242.859 196.102 243.161 196.174 243.424 196.318C243.688 196.462 243.894 196.656 244.044 196.901C244.193 197.145 244.268 197.417 244.268 197.716C244.268 197.93 244.229 198.139 244.152 198.344C244.076 198.546 243.943 198.773 243.754 199.023C243.566 199.271 243.306 199.574 242.973 199.932L241.666 201.33V201.375H244.37V202H240.7Z" fill="black"/>
</g>
<g id="3-701">
<rect x="265.5" y="178.5" width="66" height="39" stroke="black"/>
<path id="Line 1_4" d="M322.5 176L322.5 183" stroke="black"/>
<g id="Line 3_4" filter="url(#filter5_d_37_1057)">
<line x1="277.5" y1="176" x2="277.5" y2="183" stroke="black"/>
</g>
<path id="room_6" d="M291.189 202.08C290.814 202.08 290.48 202.015 290.186 201.886C289.895 201.758 289.663 201.579 289.49 201.349C289.32 201.118 289.227 200.85 289.212 200.545H289.928C289.943 200.733 290.007 200.895 290.121 201.031C290.235 201.166 290.383 201.27 290.567 201.344C290.751 201.418 290.954 201.455 291.178 201.455C291.428 201.455 291.65 201.411 291.843 201.324C292.036 201.237 292.187 201.116 292.297 200.96C292.407 200.805 292.462 200.625 292.462 200.42C292.462 200.206 292.409 200.018 292.303 199.855C292.197 199.69 292.042 199.562 291.837 199.469C291.632 199.376 291.382 199.33 291.087 199.33H290.621V198.705H291.087C291.318 198.705 291.521 198.663 291.695 198.58C291.871 198.496 292.008 198.379 292.107 198.227C292.207 198.076 292.257 197.898 292.257 197.693C292.257 197.496 292.214 197.325 292.127 197.179C292.04 197.033 291.917 196.92 291.757 196.838C291.6 196.757 291.415 196.716 291.201 196.716C291 196.716 290.81 196.753 290.632 196.827C290.456 196.899 290.312 197.004 290.201 197.142C290.089 197.278 290.028 197.443 290.019 197.636H289.337C289.348 197.331 289.44 197.064 289.613 196.835C289.785 196.604 290.01 196.424 290.289 196.295C290.569 196.167 290.877 196.102 291.212 196.102C291.572 196.102 291.881 196.175 292.138 196.321C292.396 196.465 292.594 196.655 292.732 196.892C292.87 197.129 292.939 197.384 292.939 197.659C292.939 197.987 292.853 198.266 292.681 198.497C292.51 198.728 292.278 198.888 291.985 198.977V199.023C292.352 199.083 292.639 199.24 292.846 199.491C293.052 199.741 293.155 200.051 293.155 200.42C293.155 200.737 293.069 201.021 292.897 201.273C292.726 201.523 292.493 201.72 292.198 201.864C291.902 202.008 291.566 202.08 291.189 202.08ZM296.828 198.778V199.403H294.283V198.778H296.828ZM297.999 202L300.601 196.852V196.807H297.601V196.182H301.328V196.841L298.738 202H297.999ZM304.16 202.08C303.732 202.08 303.368 201.963 303.066 201.73C302.765 201.495 302.535 201.155 302.376 200.71C302.217 200.263 302.137 199.723 302.137 199.091C302.137 198.462 302.217 197.925 302.376 197.48C302.537 197.033 302.768 196.692 303.069 196.457C303.372 196.221 303.736 196.102 304.16 196.102C304.584 196.102 304.947 196.221 305.248 196.457C305.551 196.692 305.782 197.033 305.941 197.48C306.102 197.925 306.183 198.462 306.183 199.091C306.183 199.723 306.103 200.263 305.944 200.71C305.785 201.155 305.555 201.495 305.254 201.73C304.953 201.963 304.588 202.08 304.16 202.08ZM304.16 201.455C304.584 201.455 304.914 201.25 305.149 200.841C305.384 200.432 305.501 199.848 305.501 199.091C305.501 198.587 305.447 198.158 305.339 197.804C305.233 197.45 305.08 197.18 304.879 196.994C304.68 196.809 304.44 196.716 304.16 196.716C303.74 196.716 303.411 196.923 303.174 197.338C302.938 197.751 302.819 198.335 302.819 199.091C302.819 199.595 302.872 200.023 302.978 200.375C303.084 200.727 303.237 200.995 303.436 201.179C303.636 201.363 303.878 201.455 304.16 201.455ZM309.308 196.182V202H308.603V196.92H308.569L307.149 197.864V197.148L308.603 196.182H309.308Z" fill="black"/>
</g>
<g id="stair">
<rect x="20.5" y="197.5" width="47" height="20" stroke="black"/>
<path id="&#233;&#154;&#142;&#230;&#174;&#181;" d="M39.012 205.352H40.532V205.84H39.012V205.352ZM39.18 209.528H42.388V210.016H39.18V209.528ZM39.164 210.816H42.484V211.328H39.164V210.816ZM38.74 204.376H39.284V207.336H38.74V204.376ZM38.22 207.248C38.524 207.189 38.8867 207.112 39.308 207.016C39.7347 206.92 40.1667 206.821 40.604 206.72L40.652 207.184C40.2573 207.285 39.86 207.387 39.46 207.488C39.0653 207.589 38.7053 207.68 38.38 207.76L38.22 207.248ZM40.876 204.376H41.428V206.88C41.428 206.981 41.4413 207.048 41.468 207.08C41.5 207.107 41.572 207.12 41.684 207.12C41.716 207.12 41.7667 207.12 41.836 207.12C41.9053 207.12 41.9827 207.12 42.068 207.12C42.1533 207.12 42.2307 207.12 42.3 207.12C42.3747 207.12 42.4307 207.12 42.468 207.12C42.5373 207.12 42.588 207.104 42.62 207.072C42.652 207.035 42.6733 206.96 42.684 206.848C42.7 206.736 42.7107 206.573 42.716 206.36C42.78 206.408 42.86 206.453 42.956 206.496C43.052 206.533 43.14 206.56 43.22 206.576C43.204 206.853 43.172 207.069 43.124 207.224C43.076 207.379 43.004 207.485 42.908 207.544C42.8173 207.603 42.6893 207.632 42.524 207.632C42.4973 207.632 42.4413 207.632 42.356 207.632C42.2707 207.632 42.1747 207.632 42.068 207.632C41.9667 207.632 41.8733 207.632 41.788 207.632C41.708 207.632 41.652 207.632 41.62 207.632C41.4227 207.632 41.268 207.611 41.156 207.568C41.0493 207.525 40.9747 207.451 40.932 207.344C40.8947 207.232 40.876 207.077 40.876 206.88V204.376ZM42.628 204.88L43.052 205.28C42.8067 205.435 42.5213 205.584 42.196 205.728C41.876 205.867 41.5667 205.992 41.268 206.104C41.2573 206.045 41.2333 205.979 41.196 205.904C41.1587 205.829 41.124 205.763 41.092 205.704C41.2787 205.624 41.468 205.539 41.66 205.448C41.852 205.357 42.0307 205.264 42.196 205.168C42.3667 205.067 42.5107 204.971 42.628 204.88ZM40.332 207.456L40.94 207.584C40.8707 207.765 40.7987 207.947 40.724 208.128C40.6547 208.309 40.588 208.467 40.524 208.6L40.004 208.472C40.0627 208.333 40.124 208.168 40.188 207.976C40.2573 207.779 40.3053 207.605 40.332 207.456ZM38.884 208.264H42.772V211.592H42.188V208.776H39.444V211.624H38.884V208.264ZM36.164 204.624H37.956V205.168H36.7V211.64H36.164V204.624ZM37.772 204.624H37.876L37.964 204.592L38.356 204.832C38.2867 205.051 38.2093 205.283 38.124 205.528C38.044 205.768 37.9587 206.011 37.868 206.256C37.7827 206.501 37.6973 206.733 37.612 206.952C37.884 207.283 38.0627 207.592 38.148 207.88C38.2333 208.168 38.276 208.435 38.276 208.68C38.2813 208.888 38.26 209.075 38.212 209.24C38.164 209.4 38.084 209.52 37.972 209.6C37.924 209.637 37.8653 209.667 37.796 209.688C37.732 209.709 37.66 209.728 37.58 209.744C37.5053 209.749 37.4227 209.755 37.332 209.76C37.2467 209.76 37.1613 209.757 37.076 209.752C37.0707 209.677 37.0547 209.592 37.028 209.496C37.0067 209.395 36.9747 209.304 36.932 209.224C37.0173 209.229 37.0947 209.235 37.164 209.24C37.2333 209.24 37.2947 209.237 37.348 209.232C37.4547 209.232 37.5373 209.211 37.596 209.168C37.6493 209.125 37.6867 209.053 37.708 208.952C37.7347 208.845 37.748 208.733 37.748 208.616C37.7427 208.397 37.6973 208.155 37.612 207.888C37.5267 207.621 37.3507 207.331 37.084 207.016C37.148 206.835 37.212 206.643 37.276 206.44C37.3453 206.237 37.4093 206.035 37.468 205.832C37.532 205.629 37.588 205.44 37.636 205.264C37.6893 205.083 37.7347 204.923 37.772 204.784V204.624ZM47.252 207.832H50.34V208.376H47.252V207.832ZM44.708 206.36H46.844V206.92H44.708V206.36ZM44.708 207.896H46.916V208.456H44.708V207.896ZM47.988 204.616H49.86V205.144H47.988V204.616ZM50.22 207.832H50.332L50.444 207.808L50.828 207.96C50.6307 208.643 50.34 209.229 49.956 209.72C49.5773 210.205 49.132 210.605 48.62 210.92C48.108 211.235 47.556 211.48 46.964 211.656C46.9427 211.603 46.9133 211.541 46.876 211.472C46.8387 211.408 46.7987 211.344 46.756 211.28C46.7133 211.221 46.6733 211.171 46.636 211.128C47.18 210.989 47.692 210.779 48.172 210.496C48.6573 210.213 49.0787 209.859 49.436 209.432C49.7933 209.005 50.0547 208.507 50.22 207.936V207.832ZM48.108 208.344C48.364 209.027 48.7587 209.608 49.292 210.088C49.8307 210.563 50.4813 210.901 51.244 211.104C51.2013 211.147 51.1533 211.197 51.1 211.256C51.052 211.32 51.0067 211.384 50.964 211.448C50.9213 211.517 50.884 211.579 50.852 211.632C50.0573 211.387 49.3853 210.997 48.836 210.464C48.292 209.925 47.8733 209.269 47.58 208.496L48.108 208.344ZM44.428 204.888L45.004 205.072V211.632H44.428V204.888ZM43.772 209.872C44.0493 209.829 44.3693 209.779 44.732 209.72C45.1 209.661 45.4893 209.597 45.9 209.528C46.3107 209.459 46.7187 209.389 47.124 209.32L47.148 209.872C46.764 209.941 46.3747 210.013 45.98 210.088C45.5853 210.157 45.2093 210.224 44.852 210.288C44.4947 210.352 44.1693 210.411 43.876 210.464L43.772 209.872ZM47.708 204.616H48.268V205.768C48.268 205.981 48.244 206.208 48.196 206.448C48.148 206.688 48.0547 206.917 47.916 207.136C47.7773 207.355 47.572 207.549 47.3 207.72C47.2733 207.677 47.236 207.629 47.188 207.576C47.14 207.523 47.0867 207.472 47.028 207.424C46.9747 207.371 46.9267 207.333 46.884 207.312C47.1293 207.163 47.3107 207.003 47.428 206.832C47.5453 206.656 47.62 206.477 47.652 206.296C47.6893 206.109 47.708 205.928 47.708 205.752V204.616ZM46.66 204.288L47.172 204.712C46.9533 204.819 46.708 204.92 46.436 205.016C46.164 205.112 45.884 205.2 45.596 205.28C45.308 205.36 45.028 205.432 44.756 205.496C44.74 205.432 44.7107 205.355 44.668 205.264C44.6307 205.173 44.5933 205.099 44.556 205.04C44.812 204.976 45.0707 204.904 45.332 204.824C45.5933 204.739 45.8387 204.651 46.068 204.56C46.3027 204.469 46.5 204.379 46.66 204.288ZM49.532 204.616H50.1V206.592C50.1 206.667 50.1027 206.728 50.108 206.776C50.1133 206.819 50.124 206.848 50.14 206.864C50.1667 206.88 50.2093 206.888 50.268 206.888C50.2947 206.888 50.3293 206.888 50.372 206.888C50.42 206.888 50.4627 206.888 50.5 206.888C50.532 206.888 50.564 206.885 50.596 206.88C50.628 206.875 50.652 206.869 50.668 206.864C50.7053 206.843 50.7347 206.781 50.756 206.68C50.7613 206.621 50.7667 206.533 50.772 206.416C50.7773 206.293 50.7827 206.152 50.788 205.992C50.8413 206.04 50.9107 206.085 50.996 206.128C51.0867 206.171 51.172 206.205 51.252 206.232C51.2413 206.387 51.228 206.544 51.212 206.704C51.2013 206.859 51.1853 206.968 51.164 207.032C51.1213 207.16 51.0413 207.251 50.924 207.304C50.8813 207.331 50.8227 207.349 50.748 207.36C50.6787 207.371 50.612 207.376 50.548 207.376C50.4947 207.376 50.4227 207.376 50.332 207.376C50.2467 207.376 50.1827 207.376 50.14 207.376C50.0653 207.376 49.9853 207.365 49.9 207.344C49.8147 207.323 49.7453 207.288 49.692 207.24C49.6333 207.187 49.5907 207.117 49.564 207.032C49.5427 206.941 49.532 206.781 49.532 206.552V204.616Z" fill="black"/>
</g>
<g id="stair_2">
<rect x="331.5" y="197.5" width="47" height="20" stroke="black"/>
<path id="&#233;&#154;&#142;&#230;&#174;&#181;_2" d="M350.012 205.352H351.532V205.84H350.012V205.352ZM350.18 209.528H353.388V210.016H350.18V209.528ZM350.164 210.816H353.484V211.328H350.164V210.816ZM349.74 204.376H350.284V207.336H349.74V204.376ZM349.22 207.248C349.524 207.189 349.887 207.112 350.308 207.016C350.735 206.92 351.167 206.821 351.604 206.72L351.652 207.184C351.257 207.285 350.86 207.387 350.46 207.488C350.065 207.589 349.705 207.68 349.38 207.76L349.22 207.248ZM351.876 204.376H352.428V206.88C352.428 206.981 352.441 207.048 352.468 207.08C352.5 207.107 352.572 207.12 352.684 207.12C352.716 207.12 352.767 207.12 352.836 207.12C352.905 207.12 352.983 207.12 353.068 207.12C353.153 207.12 353.231 207.12 353.3 207.12C353.375 207.12 353.431 207.12 353.468 207.12C353.537 207.12 353.588 207.104 353.62 207.072C353.652 207.035 353.673 206.96 353.684 206.848C353.7 206.736 353.711 206.573 353.716 206.36C353.78 206.408 353.86 206.453 353.956 206.496C354.052 206.533 354.14 206.56 354.22 206.576C354.204 206.853 354.172 207.069 354.124 207.224C354.076 207.379 354.004 207.485 353.908 207.544C353.817 207.603 353.689 207.632 353.524 207.632C353.497 207.632 353.441 207.632 353.356 207.632C353.271 207.632 353.175 207.632 353.068 207.632C352.967 207.632 352.873 207.632 352.788 207.632C352.708 207.632 352.652 207.632 352.62 207.632C352.423 207.632 352.268 207.611 352.156 207.568C352.049 207.525 351.975 207.451 351.932 207.344C351.895 207.232 351.876 207.077 351.876 206.88V204.376ZM353.628 204.88L354.052 205.28C353.807 205.435 353.521 205.584 353.196 205.728C352.876 205.867 352.567 205.992 352.268 206.104C352.257 206.045 352.233 205.979 352.196 205.904C352.159 205.829 352.124 205.763 352.092 205.704C352.279 205.624 352.468 205.539 352.66 205.448C352.852 205.357 353.031 205.264 353.196 205.168C353.367 205.067 353.511 204.971 353.628 204.88ZM351.332 207.456L351.94 207.584C351.871 207.765 351.799 207.947 351.724 208.128C351.655 208.309 351.588 208.467 351.524 208.6L351.004 208.472C351.063 208.333 351.124 208.168 351.188 207.976C351.257 207.779 351.305 207.605 351.332 207.456ZM349.884 208.264H353.772V211.592H353.188V208.776H350.444V211.624H349.884V208.264ZM347.164 204.624H348.956V205.168H347.7V211.64H347.164V204.624ZM348.772 204.624H348.876L348.964 204.592L349.356 204.832C349.287 205.051 349.209 205.283 349.124 205.528C349.044 205.768 348.959 206.011 348.868 206.256C348.783 206.501 348.697 206.733 348.612 206.952C348.884 207.283 349.063 207.592 349.148 207.88C349.233 208.168 349.276 208.435 349.276 208.68C349.281 208.888 349.26 209.075 349.212 209.24C349.164 209.4 349.084 209.52 348.972 209.6C348.924 209.637 348.865 209.667 348.796 209.688C348.732 209.709 348.66 209.728 348.58 209.744C348.505 209.749 348.423 209.755 348.332 209.76C348.247 209.76 348.161 209.757 348.076 209.752C348.071 209.677 348.055 209.592 348.028 209.496C348.007 209.395 347.975 209.304 347.932 209.224C348.017 209.229 348.095 209.235 348.164 209.24C348.233 209.24 348.295 209.237 348.348 209.232C348.455 209.232 348.537 209.211 348.596 209.168C348.649 209.125 348.687 209.053 348.708 208.952C348.735 208.845 348.748 208.733 348.748 208.616C348.743 208.397 348.697 208.155 348.612 207.888C348.527 207.621 348.351 207.331 348.084 207.016C348.148 206.835 348.212 206.643 348.276 206.44C348.345 206.237 348.409 206.035 348.468 205.832C348.532 205.629 348.588 205.44 348.636 205.264C348.689 205.083 348.735 204.923 348.772 204.784V204.624ZM358.252 207.832H361.34V208.376H358.252V207.832ZM355.708 206.36H357.844V206.92H355.708V206.36ZM355.708 207.896H357.916V208.456H355.708V207.896ZM358.988 204.616H360.86V205.144H358.988V204.616ZM361.22 207.832H361.332L361.444 207.808L361.828 207.96C361.631 208.643 361.34 209.229 360.956 209.72C360.577 210.205 360.132 210.605 359.62 210.92C359.108 211.235 358.556 211.48 357.964 211.656C357.943 211.603 357.913 211.541 357.876 211.472C357.839 211.408 357.799 211.344 357.756 211.28C357.713 211.221 357.673 211.171 357.636 211.128C358.18 210.989 358.692 210.779 359.172 210.496C359.657 210.213 360.079 209.859 360.436 209.432C360.793 209.005 361.055 208.507 361.22 207.936V207.832ZM359.108 208.344C359.364 209.027 359.759 209.608 360.292 210.088C360.831 210.563 361.481 210.901 362.244 211.104C362.201 211.147 362.153 211.197 362.1 211.256C362.052 211.32 362.007 211.384 361.964 211.448C361.921 211.517 361.884 211.579 361.852 211.632C361.057 211.387 360.385 210.997 359.836 210.464C359.292 209.925 358.873 209.269 358.58 208.496L359.108 208.344ZM355.428 204.888L356.004 205.072V211.632H355.428V204.888ZM354.772 209.872C355.049 209.829 355.369 209.779 355.732 209.72C356.1 209.661 356.489 209.597 356.9 209.528C357.311 209.459 357.719 209.389 358.124 209.32L358.148 209.872C357.764 209.941 357.375 210.013 356.98 210.088C356.585 210.157 356.209 210.224 355.852 210.288C355.495 210.352 355.169 210.411 354.876 210.464L354.772 209.872ZM358.708 204.616H359.268V205.768C359.268 205.981 359.244 206.208 359.196 206.448C359.148 206.688 359.055 206.917 358.916 207.136C358.777 207.355 358.572 207.549 358.3 207.72C358.273 207.677 358.236 207.629 358.188 207.576C358.14 207.523 358.087 207.472 358.028 207.424C357.975 207.371 357.927 207.333 357.884 207.312C358.129 207.163 358.311 207.003 358.428 206.832C358.545 206.656 358.62 206.477 358.652 206.296C358.689 206.109 358.708 205.928 358.708 205.752V204.616ZM357.66 204.288L358.172 204.712C357.953 204.819 357.708 204.92 357.436 205.016C357.164 205.112 356.884 205.2 356.596 205.28C356.308 205.36 356.028 205.432 355.756 205.496C355.74 205.432 355.711 205.355 355.668 205.264C355.631 205.173 355.593 205.099 355.556 205.04C355.812 204.976 356.071 204.904 356.332 204.824C356.593 204.739 356.839 204.651 357.068 204.56C357.303 204.469 357.5 204.379 357.66 204.288ZM360.532 204.616H361.1V206.592C361.1 206.667 361.103 206.728 361.108 206.776C361.113 206.819 361.124 206.848 361.14 206.864C361.167 206.88 361.209 206.888 361.268 206.888C361.295 206.888 361.329 206.888 361.372 206.888C361.42 206.888 361.463 206.888 361.5 206.888C361.532 206.888 361.564 206.885 361.596 206.88C361.628 206.875 361.652 206.869 361.668 206.864C361.705 206.843 361.735 206.781 361.756 206.68C361.761 206.621 361.767 206.533 361.772 206.416C361.777 206.293 361.783 206.152 361.788 205.992C361.841 206.04 361.911 206.085 361.996 206.128C362.087 206.171 362.172 206.205 362.252 206.232C362.241 206.387 362.228 206.544 362.212 206.704C362.201 206.859 362.185 206.968 362.164 207.032C362.121 207.16 362.041 207.251 361.924 207.304C361.881 207.331 361.823 207.349 361.748 207.36C361.679 207.371 361.612 207.376 361.548 207.376C361.495 207.376 361.423 207.376 361.332 207.376C361.247 207.376 361.183 207.376 361.14 207.376C361.065 207.376 360.985 207.365 360.9 207.344C360.815 207.323 360.745 207.288 360.692 207.24C360.633 207.187 360.591 207.117 360.564 207.032C360.543 206.941 360.532 206.781 360.532 206.552V204.616Z" fill="black"/>
</g>
<g id="longelevator">
<rect x="20.5" y="178.5" width="25" height="19" stroke="black"/>
<path id="EV" d="M29.1108 191V185.182H32.6222V185.807H29.8153V187.773H32.4403V188.398H29.8153V190.375H32.6676V191H29.1108ZM34.1307 185.182L35.858 190.08H35.9261L37.6534 185.182H38.392L36.2557 191H35.5284L33.392 185.182H34.1307Z" fill="black"/>
</g>
<g id="longelevator_2">
<rect x="353.5" y="178.5" width="25" height="19" stroke="black"/>
<path id="EV_2" d="M362.111 191V185.182H365.622V185.807H362.815V187.773H365.44V188.398H362.815V190.375H365.668V191H362.111ZM367.131 185.182L368.858 190.08H368.926L370.653 185.182H371.392L369.256 191H368.528L366.392 185.182H367.131Z" fill="black"/>
</g>
</g>
<path d="M379 218V219H380V218H379ZM20 218H19V219H20V218ZM378 100V218H380V100H378ZM379 217H20V219H379V217ZM21 218V100H19V218H21Z" fill="black" mask="url(#path-3-inside-2_37_1057)"/>
</g>
<g id="escalator_2">
<rect x="169.5" y="91.5" width="60" height="18" stroke="black"/>
<path id="Escalator" d="M173.16 97.648C173.267 97.664 173.384 97.6773 173.512 97.688C173.645 97.6933 173.752 97.696 173.832 97.696H178.232C178.355 97.696 178.475 97.6907 178.592 97.68C178.709 97.6693 178.816 97.6587 178.912 97.648V98.352C178.811 98.3413 178.699 98.3333 178.576 98.328C178.459 98.3227 178.344 98.32 178.232 98.32H173.832C173.757 98.32 173.651 98.3227 173.512 98.328C173.379 98.3333 173.261 98.3413 173.16 98.352V97.648ZM175.632 102.344V98.048H176.312V102.344H175.632ZM172.672 101.952C172.789 101.968 172.907 101.981 173.024 101.992C173.147 101.997 173.264 102 173.376 102H178.664C178.787 102 178.901 101.995 179.008 101.984C179.12 101.973 179.227 101.963 179.328 101.952V102.68C179.221 102.669 179.104 102.661 178.976 102.656C178.848 102.651 178.744 102.648 178.664 102.648H173.376C173.269 102.648 173.155 102.651 173.032 102.656C172.915 102.661 172.795 102.669 172.672 102.68V101.952ZM186.4 97.648C186.373 97.68 186.339 97.7333 186.296 97.808C186.259 97.8773 186.227 97.9413 186.2 98C186.099 98.2613 185.965 98.552 185.8 98.872C185.635 99.1867 185.451 99.4987 185.248 99.808C185.045 100.117 184.832 100.397 184.608 100.648C184.315 100.979 183.992 101.301 183.64 101.616C183.288 101.925 182.917 102.216 182.528 102.488C182.139 102.755 181.733 102.984 181.312 103.176L180.8 102.64C181.232 102.469 181.645 102.259 182.04 102.008C182.44 101.752 182.813 101.475 183.16 101.176C183.512 100.872 183.824 100.568 184.096 100.264C184.277 100.056 184.456 99.824 184.632 99.568C184.813 99.3067 184.973 99.0427 185.112 98.776C185.256 98.504 185.36 98.2587 185.424 98.04C185.381 98.04 185.28 98.04 185.12 98.04C184.96 98.04 184.771 98.04 184.552 98.04C184.333 98.04 184.104 98.04 183.864 98.04C183.624 98.04 183.395 98.04 183.176 98.04C182.957 98.04 182.768 98.04 182.608 98.04C182.453 98.04 182.352 98.04 182.304 98.04C182.213 98.04 182.109 98.0427 181.992 98.048C181.88 98.0533 181.776 98.0587 181.68 98.064C181.589 98.0693 181.528 98.0747 181.496 98.08V97.352C181.533 97.3573 181.6 97.3653 181.696 97.376C181.797 97.3813 181.904 97.3867 182.016 97.392C182.128 97.3973 182.224 97.4 182.304 97.4C182.363 97.4 182.469 97.4 182.624 97.4C182.779 97.4 182.963 97.4 183.176 97.4C183.395 97.4 183.621 97.4 183.856 97.4C184.091 97.4 184.315 97.4 184.528 97.4C184.747 97.4 184.933 97.4 185.088 97.4C185.243 97.4 185.344 97.4 185.392 97.4C185.525 97.4 185.643 97.3947 185.744 97.384C185.851 97.3733 185.933 97.3573 185.992 97.336L186.4 97.648ZM184.712 100.224C184.931 100.405 185.155 100.605 185.384 100.824C185.619 101.043 185.848 101.269 186.072 101.504C186.296 101.733 186.504 101.955 186.696 102.168C186.888 102.376 187.053 102.565 187.192 102.736L186.632 103.216C186.445 102.96 186.221 102.685 185.96 102.392C185.699 102.093 185.421 101.797 185.128 101.504C184.84 101.205 184.549 100.931 184.256 100.68L184.712 100.224ZM192.064 96.704C192.053 96.7947 192.043 96.904 192.032 97.032C192.027 97.1547 192.021 97.264 192.016 97.36C191.995 98.176 191.923 98.8907 191.8 99.504C191.677 100.112 191.507 100.645 191.288 101.104C191.075 101.557 190.813 101.955 190.504 102.296C190.2 102.637 189.851 102.944 189.456 103.216L188.872 102.744C189 102.675 189.139 102.587 189.288 102.48C189.437 102.373 189.573 102.264 189.696 102.152C189.947 101.928 190.171 101.669 190.368 101.376C190.571 101.083 190.744 100.747 190.888 100.368C191.037 99.9893 191.152 99.5547 191.232 99.064C191.317 98.568 191.363 98.0027 191.368 97.368C191.368 97.3093 191.365 97.24 191.36 97.16C191.355 97.08 191.347 97 191.336 96.92C191.331 96.84 191.323 96.768 191.312 96.704H192.064ZM194.84 98.368C194.829 98.4373 194.819 98.5067 194.808 98.576C194.803 98.6453 194.8 98.7067 194.8 98.76C194.795 98.9093 194.784 99.1147 194.768 99.376C194.757 99.6373 194.739 99.9227 194.712 100.232C194.691 100.536 194.661 100.843 194.624 101.152C194.592 101.461 194.549 101.747 194.496 102.008C194.443 102.264 194.381 102.469 194.312 102.624C194.232 102.789 194.123 102.912 193.984 102.992C193.851 103.072 193.675 103.112 193.456 103.112C193.253 103.112 193.04 103.104 192.816 103.088C192.592 103.077 192.376 103.067 192.168 103.056L192.088 102.392C192.307 102.419 192.517 102.44 192.72 102.456C192.928 102.472 193.115 102.48 193.28 102.48C193.397 102.48 193.493 102.461 193.568 102.424C193.643 102.387 193.701 102.317 193.744 102.216C193.808 102.093 193.861 101.925 193.904 101.712C193.947 101.499 193.984 101.259 194.016 100.992C194.048 100.725 194.075 100.456 194.096 100.184C194.117 99.912 194.131 99.6533 194.136 99.408C194.147 99.1627 194.152 98.9547 194.152 98.784H189.936C189.776 98.784 189.619 98.7867 189.464 98.792C189.309 98.792 189.16 98.8 189.016 98.816V98.136C189.155 98.152 189.304 98.1653 189.464 98.176C189.624 98.1813 189.779 98.184 189.928 98.184H193.88C193.987 98.184 194.08 98.1813 194.16 98.176C194.245 98.1653 194.323 98.1547 194.392 98.144L194.84 98.368ZM197.776 102.744C197.808 102.68 197.829 102.619 197.84 102.56C197.851 102.501 197.856 102.432 197.856 102.352C197.856 102.272 197.856 102.123 197.856 101.904C197.856 101.685 197.856 101.424 197.856 101.12C197.856 100.816 197.856 100.499 197.856 100.168C197.856 99.832 197.856 99.5067 197.856 99.192C197.856 98.872 197.856 98.5893 197.856 98.344C197.856 98.0933 197.856 97.904 197.856 97.776C197.856 97.7067 197.851 97.624 197.84 97.528C197.835 97.432 197.827 97.3413 197.816 97.256C197.811 97.1707 197.8 97.1013 197.784 97.048H198.576C198.56 97.144 198.547 97.2613 198.536 97.4C198.525 97.5333 198.52 97.6587 198.52 97.776C198.52 97.8827 198.52 98.0373 198.52 98.24C198.52 98.4427 198.52 98.6747 198.52 98.936C198.52 99.192 198.52 99.464 198.52 99.752C198.52 100.04 198.52 100.323 198.52 100.6C198.52 100.877 198.52 101.136 198.52 101.376C198.52 101.611 198.52 101.811 198.52 101.976C198.52 102.141 198.52 102.253 198.52 102.312C198.904 102.216 199.299 102.08 199.704 101.904C200.115 101.728 200.515 101.523 200.904 101.288C201.299 101.048 201.667 100.787 202.008 100.504C202.355 100.216 202.651 99.9093 202.896 99.584L203.256 100.144C202.739 100.789 202.077 101.355 201.272 101.84C200.472 102.325 199.573 102.712 198.576 103C198.533 103.011 198.483 103.027 198.424 103.048C198.365 103.075 198.304 103.107 198.24 103.144L197.776 102.744ZM204.816 99.536C204.896 99.5413 204.995 99.5493 205.112 99.56C205.229 99.5653 205.357 99.5707 205.496 99.576C205.64 99.576 205.784 99.576 205.928 99.576C206.013 99.576 206.144 99.576 206.32 99.576C206.501 99.576 206.712 99.576 206.952 99.576C207.192 99.576 207.445 99.576 207.712 99.576C207.984 99.576 208.253 99.576 208.52 99.576C208.792 99.576 209.048 99.576 209.288 99.576C209.533 99.576 209.744 99.576 209.92 99.576C210.096 99.576 210.227 99.576 210.312 99.576C210.515 99.576 210.688 99.5707 210.832 99.56C210.976 99.5493 211.091 99.5413 211.176 99.536V100.32C211.096 100.315 210.976 100.307 210.816 100.296C210.661 100.285 210.496 100.28 210.32 100.28C210.235 100.28 210.101 100.28 209.92 100.28C209.739 100.28 209.528 100.28 209.288 100.28C209.053 100.28 208.8 100.28 208.528 100.28C208.256 100.28 207.984 100.28 207.712 100.28C207.445 100.28 207.192 100.28 206.952 100.28C206.717 100.28 206.509 100.28 206.328 100.28C206.147 100.28 206.013 100.28 205.928 100.28C205.709 100.28 205.501 100.285 205.304 100.296C205.107 100.301 204.944 100.309 204.816 100.32V99.536ZM215.32 99.336C215.576 99.4853 215.845 99.6507 216.128 99.832C216.411 100.013 216.691 100.203 216.968 100.4C217.251 100.592 217.52 100.781 217.776 100.968C218.032 101.155 218.259 101.331 218.456 101.496L217.984 102.048C217.803 101.883 217.584 101.701 217.328 101.504C217.077 101.301 216.811 101.099 216.528 100.896C216.245 100.688 215.963 100.488 215.68 100.296C215.397 100.104 215.133 99.9307 214.888 99.776L215.32 99.336ZM218.984 97.872C218.947 97.9307 218.912 98.0027 218.88 98.088C218.848 98.168 218.819 98.24 218.792 98.304C218.717 98.576 218.611 98.8693 218.472 99.184C218.333 99.4987 218.171 99.816 217.984 100.136C217.797 100.451 217.584 100.755 217.344 101.048C216.987 101.491 216.539 101.917 216 102.328C215.467 102.733 214.821 103.075 214.064 103.352L213.488 102.856C213.984 102.701 214.435 102.512 214.84 102.288C215.251 102.059 215.619 101.808 215.944 101.536C216.269 101.264 216.552 100.984 216.792 100.696C217 100.451 217.189 100.181 217.36 99.888C217.536 99.5947 217.688 99.304 217.816 99.016C217.944 98.7227 218.037 98.4507 218.096 98.2H215.128L215.384 97.632H217.928C218.035 97.632 218.133 97.6267 218.224 97.616C218.315 97.6 218.392 97.5787 218.456 97.552L218.984 97.872ZM216.288 96.72C216.219 96.8267 216.152 96.9387 216.088 97.056C216.024 97.1733 215.971 97.2693 215.928 97.344C215.768 97.6373 215.56 97.96 215.304 98.312C215.053 98.6587 214.757 99.0053 214.416 99.352C214.08 99.6987 213.699 100.021 213.272 100.32L212.736 99.904C213.195 99.6213 213.592 99.3093 213.928 98.968C214.264 98.6267 214.547 98.2933 214.776 97.968C215.005 97.6427 215.181 97.36 215.304 97.12C215.347 97.0507 215.395 96.9547 215.448 96.832C215.501 96.704 215.539 96.5893 215.56 96.488L216.288 96.72ZM220.816 99.536C220.896 99.5413 220.995 99.5493 221.112 99.56C221.229 99.5653 221.357 99.5707 221.496 99.576C221.64 99.576 221.784 99.576 221.928 99.576C222.013 99.576 222.144 99.576 222.32 99.576C222.501 99.576 222.712 99.576 222.952 99.576C223.192 99.576 223.445 99.576 223.712 99.576C223.984 99.576 224.253 99.576 224.52 99.576C224.792 99.576 225.048 99.576 225.288 99.576C225.533 99.576 225.744 99.576 225.92 99.576C226.096 99.576 226.227 99.576 226.312 99.576C226.515 99.576 226.688 99.5707 226.832 99.56C226.976 99.5493 227.091 99.5413 227.176 99.536V100.32C227.096 100.315 226.976 100.307 226.816 100.296C226.661 100.285 226.496 100.28 226.32 100.28C226.235 100.28 226.101 100.28 225.92 100.28C225.739 100.28 225.528 100.28 225.288 100.28C225.053 100.28 224.8 100.28 224.528 100.28C224.256 100.28 223.984 100.28 223.712 100.28C223.445 100.28 223.192 100.28 222.952 100.28C222.717 100.28 222.509 100.28 222.328 100.28C222.147 100.28 222.013 100.28 221.928 100.28C221.709 100.28 221.501 100.285 221.304 100.296C221.107 100.301 220.944 100.309 220.816 100.32V99.536Z" fill="black"/>
</g>
</g>
</g>
<defs>
<filter id="filter0_d_37_1057" x="362.5" y="155" width="9" height="22" filterUnits="userSpaceOnUse" color-interpolation-filters="sRGB">
<feFlood flood-opacity="0" result="BackgroundImageFix"/>
<feColorMatrix in="SourceAlpha" type="matrix" values="0 0 0 0 0 0 0 0 0 0 0 0 0 0 0 0 0 0 127 0" result="hardAlpha"/>
<feOffset dy="4"/>
<feGaussianBlur stdDeviation="2"/>
<feComposite in2="hardAlpha" operator="out"/>
<feColorMatrix type="matrix" values="0 0 0 0 0 0 0 0 0 0 0 0 0 0 0 0 0 0 0.25 0"/>
<feBlend mode="normal" in2="BackgroundImageFix" result="effect1_dropShadow_37_1057"/>
<feBlend mode="normal" in="SourceGraphic" in2="effect1_dropShadow_37_1057" result="shape"/>
</filter>
<filter id="filter1_d_37_1057" x="106.5" y="155" width="9" height="22" filterUnits="userSpaceOnUse" color-interpolation-filters="sRGB">
<feFlood flood-opacity="0" result="BackgroundImageFix"/>
<feColorMatrix in="SourceAlpha" type="matrix" values="0 0 0 0 0 0 0 0 0 0 0 0 0 0 0 0 0 0 127 0" result="hardAlpha"/>
<feOffset dy="4"/>
<feGaussianBlur stdDeviation="2"/>
<feComposite in2="hardAlpha" operator="out"/>
<feColorMatrix type="matrix" values="0 0 0 0 0 0 0 0 0 0 0 0 0 0 0 0 0 0 0.25 0"/>
<feBlend mode="normal" in2="BackgroundImageFix" result="effect1_dropShadow_37_1057"/>
<feBlend mode="normal" in="SourceGraphic" in2="effect1_dropShadow_37_1057" result="shape"/>
</filter>
<filter id="filter2_d_37_1057" x="75" y="176" width="9" height="15" filterUnits="userSpaceOnUse" color-interpolation-filters="sRGB">
<feFlood flood-opacity="0" result="BackgroundImageFix"/>
<feColorMatrix in="SourceAlpha" type="matrix" values="0 0 0 0 0 0 0 0 0 0 0 0 0 0 0 0 0 0 127 0" result="hardAlpha"/>
<feOffset dy="4"/>
<feGaussianBlur stdDeviation="2"/>
<feComposite in2="hardAlpha" operator="out"/>
<feColorMatrix type="matrix" values="0 0 0 0 0 0 0 0 0 0 0 0 0 0 0 0 0 0 0.25 0"/>
<feBlend mode="normal" in2="BackgroundImageFix" result="effect1_dropShadow_37_1057"/>
<feBlend mode="normal" in="SourceGraphic" in2="effect1_dropShadow_37_1057" result="shape"/>
</filter>
<filter id="filter3_d_37_1057" x="141" y="176" width="9" height="15" filterUnits="userSpaceOnUse" color-interpolation-filters="sRGB">
<feFlood flood-opacity="0" result="BackgroundImageFix"/>
<feColorMatrix in="SourceAlpha" type="matrix" values="0 0 0 0 0 0 0 0 0 0 0 0 0 0 0 0 0 0 127 0" result="hardAlpha"/>
<feOffset dy="4"/>
<feGaussianBlur stdDeviation="2"/>
<feComposite in2="hardAlpha" operator="out"/>
<feColorMatrix type="matrix" values="0 0 0 0 0 0 0 0 0 0 0 0 0 0 0 0 0 0 0.25 0"/>
<feBlend mode="normal" in2="BackgroundImageFix" result="effect1_dropShadow_37_1057"/>
<feBlend mode="normal" in="SourceGraphic" in2="effect1_dropShadow_37_1057" result="shape"/>
</filter>
<filter id="filter4_d_37_1057" x="207" y="176" width="9" height="15" filterUnits="userSpaceOnUse" color-interpolation-filters="sRGB">
<feFlood flood-opacity="0" result="BackgroundImageFix"/>
<feColorMatrix in="SourceAlpha" type="matrix" values="0 0 0 0 0 0 0 0 0 0 0 0 0 0 0 0 0 0 127 0" result="hardAlpha"/>
<feOffset dy="4"/>
<feGaussianBlur stdDeviation="2"/>
<feComposite in2="hardAlpha" operator="out"/>
<feColorMatrix type="matrix" values="0 0 0 0 0 0 0 0 0 0 0 0 0 0 0 0 0 0 0.25 0"/>
<feBlend mode="normal" in2="BackgroundImageFix" result="effect1_dropShadow_37_1057"/>
<feBlend mode="normal" in="SourceGraphic" in2="effect1_dropShadow_37_1057" result="shape"/>
</filter>
<filter id="filter5_d_37_1057" x="273" y="176" width="9" height="15" filterUnits="userSpaceOnUse" color-interpolation-filters="sRGB">
<feFlood flood-opacity="0" result="BackgroundImageFix"/>
<feColorMatrix in="SourceAlpha" type="matrix" values="0 0 0 0 0 0 0 0 0 0 0 0 0 0 0 0 0 0 127 0" result="hardAlpha"/>
<feOffset dy="4"/>
<feGaussianBlur stdDeviation="2"/>
<feComposite in2="hardAlpha" operator="out"/>
<feColorMatrix type="matrix" values="0 0 0 0 0 0 0 0 0 0 0 0 0 0 0 0 0 0 0.25 0"/>
<feBlend mode="normal" in2="BackgroundImageFix" result="effect1_dropShadow_37_1057"/>
<feBlend mode="normal" in="SourceGraphic" in2="effect1_dropShadow_37_1057" result="shape"/>
</filter>
<clipPath id="clip0_37_1057">
<path d="M20 100H379V218H20V100Z" fill="white"/>
</clipPath>
<clipPath id="clip1_37_1057">
<rect x="122" y="100" width="21" height="51" fill="white"/>
</clipPath>
<clipPath id="clip2_37_1057">
<rect x="256" y="100" width="21" height="51" fill="white"/>
</clipPath>
</defs>
</svg>
