<svg width="399" height="137" viewBox="0 0 399 137" fill="none" xmlns="http://www.w3.org/2000/svg">
<g id="floor9">
<g id="escaletor">
<rect x="142.5" y="1.5" width="114" height="18" stroke="black"/>
</g>
<g id="floor9 rooms">
<g clip-path="url(#clip0_30_333)">
<g id="3-908">
<rect x="70.5" y="94.5" width="33" height="42" stroke="black"/>
<line id="Line 1" x1="98.5" y1="92" x2="98.5" y2="99" stroke="black"/>
<g id="Line 3" filter="url(#filter0_d_30_333)">
<line x1="76.5" y1="92" x2="76.5" y2="99" stroke="black"/>
</g>
<path id="room" d="M77.9418 118V113.636H78.5895V114.295H78.6349C78.7145 114.08 78.8584 113.904 79.0668 113.77C79.2751 113.635 79.5099 113.568 79.7713 113.568C79.8205 113.568 79.8821 113.569 79.956 113.571C80.0298 113.573 80.0857 113.576 80.1236 113.58V114.261C80.1009 114.256 80.0488 114.247 79.9673 114.236C79.8878 114.223 79.8035 114.216 79.7145 114.216C79.5024 114.216 79.313 114.26 79.1463 114.349C78.9815 114.437 78.8509 114.558 78.7543 114.713C78.6596 114.866 78.6122 115.042 78.6122 115.239V118H77.9418ZM82.5582 118.091C82.1643 118.091 81.8187 117.997 81.5213 117.81C81.2259 117.622 80.9948 117.36 80.8281 117.023C80.6634 116.686 80.581 116.292 80.581 115.841C80.581 115.386 80.6634 114.99 80.8281 114.651C80.9948 114.312 81.2259 114.048 81.5213 113.861C81.8187 113.673 82.1643 113.58 82.5582 113.58C82.9522 113.58 83.2969 113.673 83.5923 113.861C83.8897 114.048 84.1207 114.312 84.2855 114.651C84.4522 114.99 84.5355 115.386 84.5355 115.841C84.5355 116.292 84.4522 116.686 84.2855 117.023C84.1207 117.36 83.8897 117.622 83.5923 117.81C83.2969 117.997 82.9522 118.091 82.5582 118.091ZM82.5582 117.489C82.8575 117.489 83.1037 117.412 83.2969 117.259C83.4901 117.105 83.633 116.903 83.7259 116.653C83.8187 116.403 83.8651 116.133 83.8651 115.841C83.8651 115.549 83.8187 115.277 83.7259 115.026C83.633 114.774 83.4901 114.57 83.2969 114.415C83.1037 114.259 82.8575 114.182 82.5582 114.182C82.259 114.182 82.0128 114.259 81.8196 114.415C81.6264 114.57 81.4834 114.774 81.3906 115.026C81.2978 115.277 81.2514 115.549 81.2514 115.841C81.2514 116.133 81.2978 116.403 81.3906 116.653C81.4834 116.903 81.6264 117.105 81.8196 117.259C82.0128 117.412 82.259 117.489 82.5582 117.489ZM87.3317 118.091C86.9377 118.091 86.5921 117.997 86.2947 117.81C85.9993 117.622 85.7682 117.36 85.6016 117.023C85.4368 116.686 85.3544 116.292 85.3544 115.841C85.3544 115.386 85.4368 114.99 85.6016 114.651C85.7682 114.312 85.9993 114.048 86.2947 113.861C86.5921 113.673 86.9377 113.58 87.3317 113.58C87.7256 113.58 88.0703 113.673 88.3658 113.861C88.6631 114.048 88.8942 114.312 89.0589 114.651C89.2256 114.99 89.3089 115.386 89.3089 115.841C89.3089 116.292 89.2256 116.686 89.0589 117.023C88.8942 117.36 88.6631 117.622 88.3658 117.81C88.0703 117.997 87.7256 118.091 87.3317 118.091ZM87.3317 117.489C87.6309 117.489 87.8771 117.412 88.0703 117.259C88.2635 117.105 88.4065 116.903 88.4993 116.653C88.5921 116.403 88.6385 116.133 88.6385 115.841C88.6385 115.549 88.5921 115.277 88.4993 115.026C88.4065 114.774 88.2635 114.57 88.0703 114.415C87.8771 114.259 87.6309 114.182 87.3317 114.182C87.0324 114.182 86.7862 114.259 86.593 114.415C86.3999 114.57 86.2569 114.774 86.1641 115.026C86.0713 115.277 86.0249 115.549 86.0249 115.841C86.0249 116.133 86.0713 116.403 86.1641 116.653C86.2569 116.903 86.3999 117.105 86.593 117.259C86.7862 117.412 87.0324 117.489 87.3317 117.489ZM90.3324 118V113.636H90.9801V114.318H91.0369C91.1278 114.085 91.2746 113.904 91.4773 113.776C91.6799 113.645 91.9233 113.58 92.2074 113.58C92.4953 113.58 92.7348 113.645 92.9261 113.776C93.1193 113.904 93.2699 114.085 93.3778 114.318H93.4233C93.535 114.093 93.7027 113.914 93.9261 113.781C94.1496 113.647 94.4176 113.58 94.7301 113.58C95.1203 113.58 95.4394 113.702 95.6875 113.946C95.9356 114.188 96.0597 114.566 96.0597 115.08V118H95.3892V115.08C95.3892 114.758 95.3011 114.527 95.125 114.389C94.9489 114.251 94.7415 114.182 94.5028 114.182C94.196 114.182 93.9583 114.275 93.7898 114.46C93.6212 114.644 93.5369 114.877 93.5369 115.159V118H92.8551V115.011C92.8551 114.763 92.7746 114.563 92.6136 114.412C92.4527 114.259 92.2453 114.182 91.9915 114.182C91.8172 114.182 91.6544 114.228 91.5028 114.321C91.3532 114.414 91.232 114.543 91.1392 114.707C91.0483 114.87 91.0028 115.059 91.0028 115.273V118H90.3324Z" fill="black"/>
</g>
<g id="3-907">
<rect x="103.5" y="94.5" width="33" height="42" stroke="black"/>
<line id="Line 1_2" x1="131.5" y1="92" x2="131.5" y2="99" stroke="black"/>
<g id="Line 3_2" filter="url(#filter1_d_30_333)">
<line x1="109.5" y1="92" x2="109.5" y2="99" stroke="black"/>
</g>
<path id="room_2" d="M110.942 118V113.636H111.589V114.295H111.635C111.714 114.08 111.858 113.904 112.067 113.77C112.275 113.635 112.51 113.568 112.771 113.568C112.821 113.568 112.882 113.569 112.956 113.571C113.03 113.573 113.086 113.576 113.124 113.58V114.261C113.101 114.256 113.049 114.247 112.967 114.236C112.888 114.223 112.804 114.216 112.714 114.216C112.502 114.216 112.313 114.26 112.146 114.349C111.982 114.437 111.851 114.558 111.754 114.713C111.66 114.866 111.612 115.042 111.612 115.239V118H110.942ZM115.558 118.091C115.164 118.091 114.819 117.997 114.521 117.81C114.226 117.622 113.995 117.36 113.828 117.023C113.663 116.686 113.581 116.292 113.581 115.841C113.581 115.386 113.663 114.99 113.828 114.651C113.995 114.312 114.226 114.048 114.521 113.861C114.819 113.673 115.164 113.58 115.558 113.58C115.952 113.58 116.297 113.673 116.592 113.861C116.89 114.048 117.121 114.312 117.286 114.651C117.452 114.99 117.536 115.386 117.536 115.841C117.536 116.292 117.452 116.686 117.286 117.023C117.121 117.36 116.89 117.622 116.592 117.81C116.297 117.997 115.952 118.091 115.558 118.091ZM115.558 117.489C115.857 117.489 116.104 117.412 116.297 117.259C116.49 117.105 116.633 116.903 116.726 116.653C116.819 116.403 116.865 116.133 116.865 115.841C116.865 115.549 116.819 115.277 116.726 115.026C116.633 114.774 116.49 114.57 116.297 114.415C116.104 114.259 115.857 114.182 115.558 114.182C115.259 114.182 115.013 114.259 114.82 114.415C114.626 114.57 114.483 114.774 114.391 115.026C114.298 115.277 114.251 115.549 114.251 115.841C114.251 116.133 114.298 116.403 114.391 116.653C114.483 116.903 114.626 117.105 114.82 117.259C115.013 117.412 115.259 117.489 115.558 117.489ZM120.332 118.091C119.938 118.091 119.592 117.997 119.295 117.81C118.999 117.622 118.768 117.36 118.602 117.023C118.437 116.686 118.354 116.292 118.354 115.841C118.354 115.386 118.437 114.99 118.602 114.651C118.768 114.312 118.999 114.048 119.295 113.861C119.592 113.673 119.938 113.58 120.332 113.58C120.726 113.58 121.07 113.673 121.366 113.861C121.663 114.048 121.894 114.312 122.059 114.651C122.226 114.99 122.309 115.386 122.309 115.841C122.309 116.292 122.226 116.686 122.059 117.023C121.894 117.36 121.663 117.622 121.366 117.81C121.07 117.997 120.726 118.091 120.332 118.091ZM120.332 117.489C120.631 117.489 120.877 117.412 121.07 117.259C121.263 117.105 121.406 116.903 121.499 116.653C121.592 116.403 121.638 116.133 121.638 115.841C121.638 115.549 121.592 115.277 121.499 115.026C121.406 114.774 121.263 114.57 121.07 114.415C120.877 114.259 120.631 114.182 120.332 114.182C120.032 114.182 119.786 114.259 119.593 114.415C119.4 114.57 119.257 114.774 119.164 115.026C119.071 115.277 119.025 115.549 119.025 115.841C119.025 116.133 119.071 116.403 119.164 116.653C119.257 116.903 119.4 117.105 119.593 117.259C119.786 117.412 120.032 117.489 120.332 117.489ZM123.332 118V113.636H123.98V114.318H124.037C124.128 114.085 124.275 113.904 124.477 113.776C124.68 113.645 124.923 113.58 125.207 113.58C125.495 113.58 125.735 113.645 125.926 113.776C126.119 113.904 126.27 114.085 126.378 114.318H126.423C126.535 114.093 126.703 113.914 126.926 113.781C127.15 113.647 127.418 113.58 127.73 113.58C128.12 113.58 128.439 113.702 128.688 113.946C128.936 114.188 129.06 114.566 129.06 115.08V118H128.389V115.08C128.389 114.758 128.301 114.527 128.125 114.389C127.949 114.251 127.741 114.182 127.503 114.182C127.196 114.182 126.958 114.275 126.79 114.46C126.621 114.644 126.537 114.877 126.537 115.159V118H125.855V115.011C125.855 114.763 125.775 114.563 125.614 114.412C125.453 114.259 125.245 114.182 124.991 114.182C124.817 114.182 124.654 114.228 124.503 114.321C124.353 114.414 124.232 114.543 124.139 114.707C124.048 114.87 124.003 115.059 124.003 115.273V118H123.332Z" fill="black"/>
</g>
<g id="3-906">
<rect x="136.5" y="94.5" width="33" height="42" stroke="black"/>
<line id="Line 1_3" x1="164.5" y1="92" x2="164.5" y2="99" stroke="black"/>
<g id="Line 3_3" filter="url(#filter2_d_30_333)">
<line x1="142.5" y1="92" x2="142.5" y2="99" stroke="black"/>
</g>
<path id="room_3" d="M143.942 118V113.636H144.589V114.295H144.635C144.714 114.08 144.858 113.904 145.067 113.77C145.275 113.635 145.51 113.568 145.771 113.568C145.821 113.568 145.882 113.569 145.956 113.571C146.03 113.573 146.086 113.576 146.124 113.58V114.261C146.101 114.256 146.049 114.247 145.967 114.236C145.888 114.223 145.804 114.216 145.714 114.216C145.502 114.216 145.313 114.26 145.146 114.349C144.982 114.437 144.851 114.558 144.754 114.713C144.66 114.866 144.612 115.042 144.612 115.239V118H143.942ZM148.558 118.091C148.164 118.091 147.819 117.997 147.521 117.81C147.226 117.622 146.995 117.36 146.828 117.023C146.663 116.686 146.581 116.292 146.581 115.841C146.581 115.386 146.663 114.99 146.828 114.651C146.995 114.312 147.226 114.048 147.521 113.861C147.819 113.673 148.164 113.58 148.558 113.58C148.952 113.58 149.297 113.673 149.592 113.861C149.89 114.048 150.121 114.312 150.286 114.651C150.452 114.99 150.536 115.386 150.536 115.841C150.536 116.292 150.452 116.686 150.286 117.023C150.121 117.36 149.89 117.622 149.592 117.81C149.297 117.997 148.952 118.091 148.558 118.091ZM148.558 117.489C148.857 117.489 149.104 117.412 149.297 117.259C149.49 117.105 149.633 116.903 149.726 116.653C149.819 116.403 149.865 116.133 149.865 115.841C149.865 115.549 149.819 115.277 149.726 115.026C149.633 114.774 149.49 114.57 149.297 114.415C149.104 114.259 148.857 114.182 148.558 114.182C148.259 114.182 148.013 114.259 147.82 114.415C147.626 114.57 147.483 114.774 147.391 115.026C147.298 115.277 147.251 115.549 147.251 115.841C147.251 116.133 147.298 116.403 147.391 116.653C147.483 116.903 147.626 117.105 147.82 117.259C148.013 117.412 148.259 117.489 148.558 117.489ZM153.332 118.091C152.938 118.091 152.592 117.997 152.295 117.81C151.999 117.622 151.768 117.36 151.602 117.023C151.437 116.686 151.354 116.292 151.354 115.841C151.354 115.386 151.437 114.99 151.602 114.651C151.768 114.312 151.999 114.048 152.295 113.861C152.592 113.673 152.938 113.58 153.332 113.58C153.726 113.58 154.07 113.673 154.366 113.861C154.663 114.048 154.894 114.312 155.059 114.651C155.226 114.99 155.309 115.386 155.309 115.841C155.309 116.292 155.226 116.686 155.059 117.023C154.894 117.36 154.663 117.622 154.366 117.81C154.07 117.997 153.726 118.091 153.332 118.091ZM153.332 117.489C153.631 117.489 153.877 117.412 154.07 117.259C154.263 117.105 154.406 116.903 154.499 116.653C154.592 116.403 154.638 116.133 154.638 115.841C154.638 115.549 154.592 115.277 154.499 115.026C154.406 114.774 154.263 114.57 154.07 114.415C153.877 114.259 153.631 114.182 153.332 114.182C153.032 114.182 152.786 114.259 152.593 114.415C152.4 114.57 152.257 114.774 152.164 115.026C152.071 115.277 152.025 115.549 152.025 115.841C152.025 116.133 152.071 116.403 152.164 116.653C152.257 116.903 152.4 117.105 152.593 117.259C152.786 117.412 153.032 117.489 153.332 117.489ZM156.332 118V113.636H156.98V114.318H157.037C157.128 114.085 157.275 113.904 157.477 113.776C157.68 113.645 157.923 113.58 158.207 113.58C158.495 113.58 158.735 113.645 158.926 113.776C159.119 113.904 159.27 114.085 159.378 114.318H159.423C159.535 114.093 159.703 113.914 159.926 113.781C160.15 113.647 160.418 113.58 160.73 113.58C161.12 113.58 161.439 113.702 161.688 113.946C161.936 114.188 162.06 114.566 162.06 115.08V118H161.389V115.08C161.389 114.758 161.301 114.527 161.125 114.389C160.949 114.251 160.741 114.182 160.503 114.182C160.196 114.182 159.958 114.275 159.79 114.46C159.621 114.644 159.537 114.877 159.537 115.159V118H158.855V115.011C158.855 114.763 158.775 114.563 158.614 114.412C158.453 114.259 158.245 114.182 157.991 114.182C157.817 114.182 157.654 114.228 157.503 114.321C157.353 114.414 157.232 114.543 157.139 114.707C157.048 114.87 157.003 115.059 157.003 115.273V118H156.332Z" fill="black"/>
</g>
<g id="3-905">
<rect x="169.5" y="94.5" width="33" height="42" stroke="black"/>
<line id="Line 1_4" x1="197.5" y1="92" x2="197.5" y2="99" stroke="black"/>
<g id="Line 3_4" filter="url(#filter3_d_30_333)">
<line x1="175.5" y1="92" x2="175.5" y2="99" stroke="black"/>
</g>
<path id="room_4" d="M176.942 118V113.636H177.589V114.295H177.635C177.714 114.08 177.858 113.904 178.067 113.77C178.275 113.635 178.51 113.568 178.771 113.568C178.821 113.568 178.882 113.569 178.956 113.571C179.03 113.573 179.086 113.576 179.124 113.58V114.261C179.101 114.256 179.049 114.247 178.967 114.236C178.888 114.223 178.804 114.216 178.714 114.216C178.502 114.216 178.313 114.26 178.146 114.349C177.982 114.437 177.851 114.558 177.754 114.713C177.66 114.866 177.612 115.042 177.612 115.239V118H176.942ZM181.558 118.091C181.164 118.091 180.819 117.997 180.521 117.81C180.226 117.622 179.995 117.36 179.828 117.023C179.663 116.686 179.581 116.292 179.581 115.841C179.581 115.386 179.663 114.99 179.828 114.651C179.995 114.312 180.226 114.048 180.521 113.861C180.819 113.673 181.164 113.58 181.558 113.58C181.952 113.58 182.297 113.673 182.592 113.861C182.89 114.048 183.121 114.312 183.286 114.651C183.452 114.99 183.536 115.386 183.536 115.841C183.536 116.292 183.452 116.686 183.286 117.023C183.121 117.36 182.89 117.622 182.592 117.81C182.297 117.997 181.952 118.091 181.558 118.091ZM181.558 117.489C181.857 117.489 182.104 117.412 182.297 117.259C182.49 117.105 182.633 116.903 182.726 116.653C182.819 116.403 182.865 116.133 182.865 115.841C182.865 115.549 182.819 115.277 182.726 115.026C182.633 114.774 182.49 114.57 182.297 114.415C182.104 114.259 181.857 114.182 181.558 114.182C181.259 114.182 181.013 114.259 180.82 114.415C180.626 114.57 180.483 114.774 180.391 115.026C180.298 115.277 180.251 115.549 180.251 115.841C180.251 116.133 180.298 116.403 180.391 116.653C180.483 116.903 180.626 117.105 180.82 117.259C181.013 117.412 181.259 117.489 181.558 117.489ZM186.332 118.091C185.938 118.091 185.592 117.997 185.295 117.81C184.999 117.622 184.768 117.36 184.602 117.023C184.437 116.686 184.354 116.292 184.354 115.841C184.354 115.386 184.437 114.99 184.602 114.651C184.768 114.312 184.999 114.048 185.295 113.861C185.592 113.673 185.938 113.58 186.332 113.58C186.726 113.58 187.07 113.673 187.366 113.861C187.663 114.048 187.894 114.312 188.059 114.651C188.226 114.99 188.309 115.386 188.309 115.841C188.309 116.292 188.226 116.686 188.059 117.023C187.894 117.36 187.663 117.622 187.366 117.81C187.07 117.997 186.726 118.091 186.332 118.091ZM186.332 117.489C186.631 117.489 186.877 117.412 187.07 117.259C187.263 117.105 187.406 116.903 187.499 116.653C187.592 116.403 187.638 116.133 187.638 115.841C187.638 115.549 187.592 115.277 187.499 115.026C187.406 114.774 187.263 114.57 187.07 114.415C186.877 114.259 186.631 114.182 186.332 114.182C186.032 114.182 185.786 114.259 185.593 114.415C185.4 114.57 185.257 114.774 185.164 115.026C185.071 115.277 185.025 115.549 185.025 115.841C185.025 116.133 185.071 116.403 185.164 116.653C185.257 116.903 185.4 117.105 185.593 117.259C185.786 117.412 186.032 117.489 186.332 117.489ZM189.332 118V113.636H189.98V114.318H190.037C190.128 114.085 190.275 113.904 190.477 113.776C190.68 113.645 190.923 113.58 191.207 113.58C191.495 113.58 191.735 113.645 191.926 113.776C192.119 113.904 192.27 114.085 192.378 114.318H192.423C192.535 114.093 192.703 113.914 192.926 113.781C193.15 113.647 193.418 113.58 193.73 113.58C194.12 113.58 194.439 113.702 194.688 113.946C194.936 114.188 195.06 114.566 195.06 115.08V118H194.389V115.08C194.389 114.758 194.301 114.527 194.125 114.389C193.949 114.251 193.741 114.182 193.503 114.182C193.196 114.182 192.958 114.275 192.79 114.46C192.621 114.644 192.537 114.877 192.537 115.159V118H191.855V115.011C191.855 114.763 191.775 114.563 191.614 114.412C191.453 114.259 191.245 114.182 190.991 114.182C190.817 114.182 190.654 114.228 190.503 114.321C190.353 114.414 190.232 114.543 190.139 114.707C190.048 114.87 190.003 115.059 190.003 115.273V118H189.332Z" fill="black"/>
</g>
<g id="3-904">
<rect x="202.5" y="94.5" width="33" height="42" stroke="black"/>
<line id="Line 1_5" x1="230.5" y1="92" x2="230.5" y2="99" stroke="black"/>
<g id="Line 3_5" filter="url(#filter4_d_30_333)">
<line x1="208.5" y1="92" x2="208.5" y2="99" stroke="black"/>
</g>
<path id="room_5" d="M209.942 118V113.636H210.589V114.295H210.635C210.714 114.08 210.858 113.904 211.067 113.77C211.275 113.635 211.51 113.568 211.771 113.568C211.821 113.568 211.882 113.569 211.956 113.571C212.03 113.573 212.086 113.576 212.124 113.58V114.261C212.101 114.256 212.049 114.247 211.967 114.236C211.888 114.223 211.804 114.216 211.714 114.216C211.502 114.216 211.313 114.26 211.146 114.349C210.982 114.437 210.851 114.558 210.754 114.713C210.66 114.866 210.612 115.042 210.612 115.239V118H209.942ZM214.558 118.091C214.164 118.091 213.819 117.997 213.521 117.81C213.226 117.622 212.995 117.36 212.828 117.023C212.663 116.686 212.581 116.292 212.581 115.841C212.581 115.386 212.663 114.99 212.828 114.651C212.995 114.312 213.226 114.048 213.521 113.861C213.819 113.673 214.164 113.58 214.558 113.58C214.952 113.58 215.297 113.673 215.592 113.861C215.89 114.048 216.121 114.312 216.286 114.651C216.452 114.99 216.536 115.386 216.536 115.841C216.536 116.292 216.452 116.686 216.286 117.023C216.121 117.36 215.89 117.622 215.592 117.81C215.297 117.997 214.952 118.091 214.558 118.091ZM214.558 117.489C214.857 117.489 215.104 117.412 215.297 117.259C215.49 117.105 215.633 116.903 215.726 116.653C215.819 116.403 215.865 116.133 215.865 115.841C215.865 115.549 215.819 115.277 215.726 115.026C215.633 114.774 215.49 114.57 215.297 114.415C215.104 114.259 214.857 114.182 214.558 114.182C214.259 114.182 214.013 114.259 213.82 114.415C213.626 114.57 213.483 114.774 213.391 115.026C213.298 115.277 213.251 115.549 213.251 115.841C213.251 116.133 213.298 116.403 213.391 116.653C213.483 116.903 213.626 117.105 213.82 117.259C214.013 117.412 214.259 117.489 214.558 117.489ZM219.332 118.091C218.938 118.091 218.592 117.997 218.295 117.81C217.999 117.622 217.768 117.36 217.602 117.023C217.437 116.686 217.354 116.292 217.354 115.841C217.354 115.386 217.437 114.99 217.602 114.651C217.768 114.312 217.999 114.048 218.295 113.861C218.592 113.673 218.938 113.58 219.332 113.58C219.726 113.58 220.07 113.673 220.366 113.861C220.663 114.048 220.894 114.312 221.059 114.651C221.226 114.99 221.309 115.386 221.309 115.841C221.309 116.292 221.226 116.686 221.059 117.023C220.894 117.36 220.663 117.622 220.366 117.81C220.07 117.997 219.726 118.091 219.332 118.091ZM219.332 117.489C219.631 117.489 219.877 117.412 220.07 117.259C220.263 117.105 220.406 116.903 220.499 116.653C220.592 116.403 220.638 116.133 220.638 115.841C220.638 115.549 220.592 115.277 220.499 115.026C220.406 114.774 220.263 114.57 220.07 114.415C219.877 114.259 219.631 114.182 219.332 114.182C219.032 114.182 218.786 114.259 218.593 114.415C218.4 114.57 218.257 114.774 218.164 115.026C218.071 115.277 218.025 115.549 218.025 115.841C218.025 116.133 218.071 116.403 218.164 116.653C218.257 116.903 218.4 117.105 218.593 117.259C218.786 117.412 219.032 117.489 219.332 117.489ZM222.332 118V113.636H222.98V114.318H223.037C223.128 114.085 223.275 113.904 223.477 113.776C223.68 113.645 223.923 113.58 224.207 113.58C224.495 113.58 224.735 113.645 224.926 113.776C225.119 113.904 225.27 114.085 225.378 114.318H225.423C225.535 114.093 225.703 113.914 225.926 113.781C226.15 113.647 226.418 113.58 226.73 113.58C227.12 113.58 227.439 113.702 227.688 113.946C227.936 114.188 228.06 114.566 228.06 115.08V118H227.389V115.08C227.389 114.758 227.301 114.527 227.125 114.389C226.949 114.251 226.741 114.182 226.503 114.182C226.196 114.182 225.958 114.275 225.79 114.46C225.621 114.644 225.537 114.877 225.537 115.159V118H224.855V115.011C224.855 114.763 224.775 114.563 224.614 114.412C224.453 114.259 224.245 114.182 223.991 114.182C223.817 114.182 223.654 114.228 223.503 114.321C223.353 114.414 223.232 114.543 223.139 114.707C223.048 114.87 223.003 115.059 223.003 115.273V118H222.332Z" fill="black"/>
</g>
<g id="3-903">
<rect x="235.5" y="94.5" width="33" height="42" stroke="black"/>
<line id="Line 1_6" x1="263.5" y1="92" x2="263.5" y2="99" stroke="black"/>
<g id="Line 3_6" filter="url(#filter5_d_30_333)">
<line x1="241.5" y1="92" x2="241.5" y2="99" stroke="black"/>
</g>
<path id="room_6" d="M242.942 118V113.636H243.589V114.295H243.635C243.714 114.08 243.858 113.904 244.067 113.77C244.275 113.635 244.51 113.568 244.771 113.568C244.821 113.568 244.882 113.569 244.956 113.571C245.03 113.573 245.086 113.576 245.124 113.58V114.261C245.101 114.256 245.049 114.247 244.967 114.236C244.888 114.223 244.804 114.216 244.714 114.216C244.502 114.216 244.313 114.26 244.146 114.349C243.982 114.437 243.851 114.558 243.754 114.713C243.66 114.866 243.612 115.042 243.612 115.239V118H242.942ZM247.558 118.091C247.164 118.091 246.819 117.997 246.521 117.81C246.226 117.622 245.995 117.36 245.828 117.023C245.663 116.686 245.581 116.292 245.581 115.841C245.581 115.386 245.663 114.99 245.828 114.651C245.995 114.312 246.226 114.048 246.521 113.861C246.819 113.673 247.164 113.58 247.558 113.58C247.952 113.58 248.297 113.673 248.592 113.861C248.89 114.048 249.121 114.312 249.286 114.651C249.452 114.99 249.536 115.386 249.536 115.841C249.536 116.292 249.452 116.686 249.286 117.023C249.121 117.36 248.89 117.622 248.592 117.81C248.297 117.997 247.952 118.091 247.558 118.091ZM247.558 117.489C247.857 117.489 248.104 117.412 248.297 117.259C248.49 117.105 248.633 116.903 248.726 116.653C248.819 116.403 248.865 116.133 248.865 115.841C248.865 115.549 248.819 115.277 248.726 115.026C248.633 114.774 248.49 114.57 248.297 114.415C248.104 114.259 247.857 114.182 247.558 114.182C247.259 114.182 247.013 114.259 246.82 114.415C246.626 114.57 246.483 114.774 246.391 115.026C246.298 115.277 246.251 115.549 246.251 115.841C246.251 116.133 246.298 116.403 246.391 116.653C246.483 116.903 246.626 117.105 246.82 117.259C247.013 117.412 247.259 117.489 247.558 117.489ZM252.332 118.091C251.938 118.091 251.592 117.997 251.295 117.81C250.999 117.622 250.768 117.36 250.602 117.023C250.437 116.686 250.354 116.292 250.354 115.841C250.354 115.386 250.437 114.99 250.602 114.651C250.768 114.312 250.999 114.048 251.295 113.861C251.592 113.673 251.938 113.58 252.332 113.58C252.726 113.58 253.07 113.673 253.366 113.861C253.663 114.048 253.894 114.312 254.059 114.651C254.226 114.99 254.309 115.386 254.309 115.841C254.309 116.292 254.226 116.686 254.059 117.023C253.894 117.36 253.663 117.622 253.366 117.81C253.07 117.997 252.726 118.091 252.332 118.091ZM252.332 117.489C252.631 117.489 252.877 117.412 253.07 117.259C253.263 117.105 253.406 116.903 253.499 116.653C253.592 116.403 253.638 116.133 253.638 115.841C253.638 115.549 253.592 115.277 253.499 115.026C253.406 114.774 253.263 114.57 253.07 114.415C252.877 114.259 252.631 114.182 252.332 114.182C252.032 114.182 251.786 114.259 251.593 114.415C251.4 114.57 251.257 114.774 251.164 115.026C251.071 115.277 251.025 115.549 251.025 115.841C251.025 116.133 251.071 116.403 251.164 116.653C251.257 116.903 251.4 117.105 251.593 117.259C251.786 117.412 252.032 117.489 252.332 117.489ZM255.332 118V113.636H255.98V114.318H256.037C256.128 114.085 256.275 113.904 256.477 113.776C256.68 113.645 256.923 113.58 257.207 113.58C257.495 113.58 257.735 113.645 257.926 113.776C258.119 113.904 258.27 114.085 258.378 114.318H258.423C258.535 114.093 258.703 113.914 258.926 113.781C259.15 113.647 259.418 113.58 259.73 113.58C260.12 113.58 260.439 113.702 260.688 113.946C260.936 114.188 261.06 114.566 261.06 115.08V118H260.389V115.08C260.389 114.758 260.301 114.527 260.125 114.389C259.949 114.251 259.741 114.182 259.503 114.182C259.196 114.182 258.958 114.275 258.79 114.46C258.621 114.644 258.537 114.877 258.537 115.159V118H257.855V115.011C257.855 114.763 257.775 114.563 257.614 114.412C257.453 114.259 257.245 114.182 256.991 114.182C256.817 114.182 256.654 114.228 256.503 114.321C256.353 114.414 256.232 114.543 256.139 114.707C256.048 114.87 256.003 115.059 256.003 115.273V118H255.332Z" fill="black"/>
</g>
<g id="3-902">
<rect x="268.5" y="94.5" width="33" height="42" stroke="black"/>
<line id="Line 1_7" x1="296.5" y1="92" x2="296.5" y2="99" stroke="black"/>
<g id="Line 3_7" filter="url(#filter6_d_30_333)">
<line x1="274.5" y1="92" x2="274.5" y2="99" stroke="black"/>
</g>
<path id="room_7" d="M275.942 118V113.636H276.589V114.295H276.635C276.714 114.08 276.858 113.904 277.067 113.77C277.275 113.635 277.51 113.568 277.771 113.568C277.821 113.568 277.882 113.569 277.956 113.571C278.03 113.573 278.086 113.576 278.124 113.58V114.261C278.101 114.256 278.049 114.247 277.967 114.236C277.888 114.223 277.804 114.216 277.714 114.216C277.502 114.216 277.313 114.26 277.146 114.349C276.982 114.437 276.851 114.558 276.754 114.713C276.66 114.866 276.612 115.042 276.612 115.239V118H275.942ZM280.558 118.091C280.164 118.091 279.819 117.997 279.521 117.81C279.226 117.622 278.995 117.36 278.828 117.023C278.663 116.686 278.581 116.292 278.581 115.841C278.581 115.386 278.663 114.99 278.828 114.651C278.995 114.312 279.226 114.048 279.521 113.861C279.819 113.673 280.164 113.58 280.558 113.58C280.952 113.58 281.297 113.673 281.592 113.861C281.89 114.048 282.121 114.312 282.286 114.651C282.452 114.99 282.536 115.386 282.536 115.841C282.536 116.292 282.452 116.686 282.286 117.023C282.121 117.36 281.89 117.622 281.592 117.81C281.297 117.997 280.952 118.091 280.558 118.091ZM280.558 117.489C280.857 117.489 281.104 117.412 281.297 117.259C281.49 117.105 281.633 116.903 281.726 116.653C281.819 116.403 281.865 116.133 281.865 115.841C281.865 115.549 281.819 115.277 281.726 115.026C281.633 114.774 281.49 114.57 281.297 114.415C281.104 114.259 280.857 114.182 280.558 114.182C280.259 114.182 280.013 114.259 279.82 114.415C279.626 114.57 279.483 114.774 279.391 115.026C279.298 115.277 279.251 115.549 279.251 115.841C279.251 116.133 279.298 116.403 279.391 116.653C279.483 116.903 279.626 117.105 279.82 117.259C280.013 117.412 280.259 117.489 280.558 117.489ZM285.332 118.091C284.938 118.091 284.592 117.997 284.295 117.81C283.999 117.622 283.768 117.36 283.602 117.023C283.437 116.686 283.354 116.292 283.354 115.841C283.354 115.386 283.437 114.99 283.602 114.651C283.768 114.312 283.999 114.048 284.295 113.861C284.592 113.673 284.938 113.58 285.332 113.58C285.726 113.58 286.07 113.673 286.366 113.861C286.663 114.048 286.894 114.312 287.059 114.651C287.226 114.99 287.309 115.386 287.309 115.841C287.309 116.292 287.226 116.686 287.059 117.023C286.894 117.36 286.663 117.622 286.366 117.81C286.07 117.997 285.726 118.091 285.332 118.091ZM285.332 117.489C285.631 117.489 285.877 117.412 286.07 117.259C286.263 117.105 286.406 116.903 286.499 116.653C286.592 116.403 286.638 116.133 286.638 115.841C286.638 115.549 286.592 115.277 286.499 115.026C286.406 114.774 286.263 114.57 286.07 114.415C285.877 114.259 285.631 114.182 285.332 114.182C285.032 114.182 284.786 114.259 284.593 114.415C284.4 114.57 284.257 114.774 284.164 115.026C284.071 115.277 284.025 115.549 284.025 115.841C284.025 116.133 284.071 116.403 284.164 116.653C284.257 116.903 284.4 117.105 284.593 117.259C284.786 117.412 285.032 117.489 285.332 117.489ZM288.332 118V113.636H288.98V114.318H289.037C289.128 114.085 289.275 113.904 289.477 113.776C289.68 113.645 289.923 113.58 290.207 113.58C290.495 113.58 290.735 113.645 290.926 113.776C291.119 113.904 291.27 114.085 291.378 114.318H291.423C291.535 114.093 291.703 113.914 291.926 113.781C292.15 113.647 292.418 113.58 292.73 113.58C293.12 113.58 293.439 113.702 293.688 113.946C293.936 114.188 294.06 114.566 294.06 115.08V118H293.389V115.08C293.389 114.758 293.301 114.527 293.125 114.389C292.949 114.251 292.741 114.182 292.503 114.182C292.196 114.182 291.958 114.275 291.79 114.46C291.621 114.644 291.537 114.877 291.537 115.159V118H290.855V115.011C290.855 114.763 290.775 114.563 290.614 114.412C290.453 114.259 290.245 114.182 289.991 114.182C289.817 114.182 289.654 114.228 289.503 114.321C289.353 114.414 289.232 114.543 289.139 114.707C289.048 114.87 289.003 115.059 289.003 115.273V118H288.332Z" fill="black"/>
</g>
<g id="3-901">
<rect x="301.5" y="94.5" width="33" height="42" stroke="black"/>
<line id="Line 1_8" x1="329.5" y1="92" x2="329.5" y2="99" stroke="black"/>
<g id="Line 3_8" filter="url(#filter7_d_30_333)">
<line x1="307.5" y1="92" x2="307.5" y2="99" stroke="black"/>
</g>
<path id="room_8" d="M308.942 118V113.636H309.589V114.295H309.635C309.714 114.08 309.858 113.904 310.067 113.77C310.275 113.635 310.51 113.568 310.771 113.568C310.821 113.568 310.882 113.569 310.956 113.571C311.03 113.573 311.086 113.576 311.124 113.58V114.261C311.101 114.256 311.049 114.247 310.967 114.236C310.888 114.223 310.804 114.216 310.714 114.216C310.502 114.216 310.313 114.26 310.146 114.349C309.982 114.437 309.851 114.558 309.754 114.713C309.66 114.866 309.612 115.042 309.612 115.239V118H308.942ZM313.558 118.091C313.164 118.091 312.819 117.997 312.521 117.81C312.226 117.622 311.995 117.36 311.828 117.023C311.663 116.686 311.581 116.292 311.581 115.841C311.581 115.386 311.663 114.99 311.828 114.651C311.995 114.312 312.226 114.048 312.521 113.861C312.819 113.673 313.164 113.58 313.558 113.58C313.952 113.58 314.297 113.673 314.592 113.861C314.89 114.048 315.121 114.312 315.286 114.651C315.452 114.99 315.536 115.386 315.536 115.841C315.536 116.292 315.452 116.686 315.286 117.023C315.121 117.36 314.89 117.622 314.592 117.81C314.297 117.997 313.952 118.091 313.558 118.091ZM313.558 117.489C313.857 117.489 314.104 117.412 314.297 117.259C314.49 117.105 314.633 116.903 314.726 116.653C314.819 116.403 314.865 116.133 314.865 115.841C314.865 115.549 314.819 115.277 314.726 115.026C314.633 114.774 314.49 114.57 314.297 114.415C314.104 114.259 313.857 114.182 313.558 114.182C313.259 114.182 313.013 114.259 312.82 114.415C312.626 114.57 312.483 114.774 312.391 115.026C312.298 115.277 312.251 115.549 312.251 115.841C312.251 116.133 312.298 116.403 312.391 116.653C312.483 116.903 312.626 117.105 312.82 117.259C313.013 117.412 313.259 117.489 313.558 117.489ZM318.332 118.091C317.938 118.091 317.592 117.997 317.295 117.81C316.999 117.622 316.768 117.36 316.602 117.023C316.437 116.686 316.354 116.292 316.354 115.841C316.354 115.386 316.437 114.99 316.602 114.651C316.768 114.312 316.999 114.048 317.295 113.861C317.592 113.673 317.938 113.58 318.332 113.58C318.726 113.58 319.07 113.673 319.366 113.861C319.663 114.048 319.894 114.312 320.059 114.651C320.226 114.99 320.309 115.386 320.309 115.841C320.309 116.292 320.226 116.686 320.059 117.023C319.894 117.36 319.663 117.622 319.366 117.81C319.07 117.997 318.726 118.091 318.332 118.091ZM318.332 117.489C318.631 117.489 318.877 117.412 319.07 117.259C319.263 117.105 319.406 116.903 319.499 116.653C319.592 116.403 319.638 116.133 319.638 115.841C319.638 115.549 319.592 115.277 319.499 115.026C319.406 114.774 319.263 114.57 319.07 114.415C318.877 114.259 318.631 114.182 318.332 114.182C318.032 114.182 317.786 114.259 317.593 114.415C317.4 114.57 317.257 114.774 317.164 115.026C317.071 115.277 317.025 115.549 317.025 115.841C317.025 116.133 317.071 116.403 317.164 116.653C317.257 116.903 317.4 117.105 317.593 117.259C317.786 117.412 318.032 117.489 318.332 117.489ZM321.332 118V113.636H321.98V114.318H322.037C322.128 114.085 322.275 113.904 322.477 113.776C322.68 113.645 322.923 113.58 323.207 113.58C323.495 113.58 323.735 113.645 323.926 113.776C324.119 113.904 324.27 114.085 324.378 114.318H324.423C324.535 114.093 324.703 113.914 324.926 113.781C325.15 113.647 325.418 113.58 325.73 113.58C326.12 113.58 326.439 113.702 326.688 113.946C326.936 114.188 327.06 114.566 327.06 115.08V118H326.389V115.08C326.389 114.758 326.301 114.527 326.125 114.389C325.949 114.251 325.741 114.182 325.503 114.182C325.196 114.182 324.958 114.275 324.79 114.46C324.621 114.644 324.537 114.877 324.537 115.159V118H323.855V115.011C323.855 114.763 323.775 114.563 323.614 114.412C323.453 114.259 323.245 114.182 322.991 114.182C322.817 114.182 322.654 114.228 322.503 114.321C322.353 114.414 322.232 114.543 322.139 114.707C322.048 114.87 322.003 115.059 322.003 115.273V118H321.332Z" fill="black"/>
</g>
<g id="3-912">
<rect x="20.5" y="19.5" width="51" height="61" stroke="black"/>
<path id="Line 4" d="M30 88L30 74" stroke="black"/>
<g id="Line 5" filter="url(#filter8_d_30_333)">
<path d="M62 88V74" stroke="black"/>
</g>
<path id="room_9" d="M36.9418 53V48.6364H37.5895V49.2955H37.6349C37.7145 49.0795 37.8584 48.9044 38.0668 48.7699C38.2751 48.6354 38.5099 48.5682 38.7713 48.5682C38.8205 48.5682 38.8821 48.5691 38.956 48.571C39.0298 48.5729 39.0857 48.5758 39.1236 48.5795V49.2614C39.1009 49.2557 39.0488 49.2472 38.9673 49.2358C38.8878 49.2225 38.8035 49.2159 38.7145 49.2159C38.5024 49.2159 38.313 49.2604 38.1463 49.3494C37.9815 49.4366 37.8509 49.5578 37.7543 49.7131C37.6596 49.8665 37.6122 50.0417 37.6122 50.2386V53H36.9418ZM41.5582 53.0909C41.1643 53.0909 40.8187 52.9972 40.5213 52.8097C40.2259 52.6222 39.9948 52.3598 39.8281 52.0227C39.6634 51.6856 39.581 51.2917 39.581 50.8409C39.581 50.3864 39.6634 49.9896 39.8281 49.6506C39.9948 49.3116 40.2259 49.0483 40.5213 48.8608C40.8187 48.6733 41.1643 48.5795 41.5582 48.5795C41.9522 48.5795 42.2969 48.6733 42.5923 48.8608C42.8897 49.0483 43.1207 49.3116 43.2855 49.6506C43.4522 49.9896 43.5355 50.3864 43.5355 50.8409C43.5355 51.2917 43.4522 51.6856 43.2855 52.0227C43.1207 52.3598 42.8897 52.6222 42.5923 52.8097C42.2969 52.9972 41.9522 53.0909 41.5582 53.0909ZM41.5582 52.4886C41.8575 52.4886 42.1037 52.4119 42.2969 52.2585C42.4901 52.1051 42.633 51.9034 42.7259 51.6534C42.8187 51.4034 42.8651 51.1326 42.8651 50.8409C42.8651 50.5492 42.8187 50.2775 42.7259 50.0256C42.633 49.7737 42.4901 49.5701 42.2969 49.4148C42.1037 49.2595 41.8575 49.1818 41.5582 49.1818C41.259 49.1818 41.0128 49.2595 40.8196 49.4148C40.6264 49.5701 40.4834 49.7737 40.3906 50.0256C40.2978 50.2775 40.2514 50.5492 40.2514 50.8409C40.2514 51.1326 40.2978 51.4034 40.3906 51.6534C40.4834 51.9034 40.6264 52.1051 40.8196 52.2585C41.0128 52.4119 41.259 52.4886 41.5582 52.4886ZM46.3317 53.0909C45.9377 53.0909 45.5921 52.9972 45.2947 52.8097C44.9993 52.6222 44.7682 52.3598 44.6016 52.0227C44.4368 51.6856 44.3544 51.2917 44.3544 50.8409C44.3544 50.3864 44.4368 49.9896 44.6016 49.6506C44.7682 49.3116 44.9993 49.0483 45.2947 48.8608C45.5921 48.6733 45.9377 48.5795 46.3317 48.5795C46.7256 48.5795 47.0703 48.6733 47.3658 48.8608C47.6631 49.0483 47.8942 49.3116 48.0589 49.6506C48.2256 49.9896 48.3089 50.3864 48.3089 50.8409C48.3089 51.2917 48.2256 51.6856 48.0589 52.0227C47.8942 52.3598 47.6631 52.6222 47.3658 52.8097C47.0703 52.9972 46.7256 53.0909 46.3317 53.0909ZM46.3317 52.4886C46.6309 52.4886 46.8771 52.4119 47.0703 52.2585C47.2635 52.1051 47.4065 51.9034 47.4993 51.6534C47.5921 51.4034 47.6385 51.1326 47.6385 50.8409C47.6385 50.5492 47.5921 50.2775 47.4993 50.0256C47.4065 49.7737 47.2635 49.5701 47.0703 49.4148C46.8771 49.2595 46.6309 49.1818 46.3317 49.1818C46.0324 49.1818 45.7862 49.2595 45.593 49.4148C45.3999 49.5701 45.2569 49.7737 45.1641 50.0256C45.0713 50.2775 45.0249 50.5492 45.0249 50.8409C45.0249 51.1326 45.0713 51.4034 45.1641 51.6534C45.2569 51.9034 45.3999 52.1051 45.593 52.2585C45.7862 52.4119 46.0324 52.4886 46.3317 52.4886ZM49.3324 53V48.6364H49.9801V49.3182H50.0369C50.1278 49.0852 50.2746 48.9044 50.4773 48.7756C50.6799 48.6449 50.9233 48.5795 51.2074 48.5795C51.4953 48.5795 51.7348 48.6449 51.9261 48.7756C52.1193 48.9044 52.2699 49.0852 52.3778 49.3182H52.4233C52.535 49.0928 52.7027 48.9138 52.9261 48.7812C53.1496 48.6468 53.4176 48.5795 53.7301 48.5795C54.1203 48.5795 54.4394 48.7017 54.6875 48.946C54.9356 49.1884 55.0597 49.5663 55.0597 50.0795V53H54.3892V50.0795C54.3892 49.7576 54.3011 49.5275 54.125 49.3892C53.9489 49.2509 53.7415 49.1818 53.5028 49.1818C53.196 49.1818 52.9583 49.2746 52.7898 49.4602C52.6212 49.6439 52.5369 49.8769 52.5369 50.1591V53H51.8551V50.0114C51.8551 49.7633 51.7746 49.5634 51.6136 49.4119C51.4527 49.2585 51.2453 49.1818 50.9915 49.1818C50.8172 49.1818 50.6544 49.2282 50.5028 49.321C50.3532 49.4138 50.232 49.5426 50.1392 49.7074C50.0483 49.8703 50.0028 50.0587 50.0028 50.2727V53H49.3324Z" fill="black"/>
</g>
<g id="3-911">
<rect x="71.5" y="19.5" width="51" height="61" stroke="black"/>
<path id="Line 4_2" d="M81 88V74" stroke="black"/>
<g id="Line 5_2" filter="url(#filter9_d_30_333)">
<path d="M113 88V74" stroke="black"/>
</g>
<path id="room_10" d="M87.9418 53V48.6364H88.5895V49.2955H88.6349C88.7145 49.0795 88.8584 48.9044 89.0668 48.7699C89.2751 48.6354 89.5099 48.5682 89.7713 48.5682C89.8205 48.5682 89.8821 48.5691 89.956 48.571C90.0298 48.5729 90.0857 48.5758 90.1236 48.5795V49.2614C90.1009 49.2557 90.0488 49.2472 89.9673 49.2358C89.8878 49.2225 89.8035 49.2159 89.7145 49.2159C89.5024 49.2159 89.313 49.2604 89.1463 49.3494C88.9815 49.4366 88.8509 49.5578 88.7543 49.7131C88.6596 49.8665 88.6122 50.0417 88.6122 50.2386V53H87.9418ZM92.5582 53.0909C92.1643 53.0909 91.8187 52.9972 91.5213 52.8097C91.2259 52.6222 90.9948 52.3598 90.8281 52.0227C90.6634 51.6856 90.581 51.2917 90.581 50.8409C90.581 50.3864 90.6634 49.9896 90.8281 49.6506C90.9948 49.3116 91.2259 49.0483 91.5213 48.8608C91.8187 48.6733 92.1643 48.5795 92.5582 48.5795C92.9522 48.5795 93.2969 48.6733 93.5923 48.8608C93.8897 49.0483 94.1207 49.3116 94.2855 49.6506C94.4522 49.9896 94.5355 50.3864 94.5355 50.8409C94.5355 51.2917 94.4522 51.6856 94.2855 52.0227C94.1207 52.3598 93.8897 52.6222 93.5923 52.8097C93.2969 52.9972 92.9522 53.0909 92.5582 53.0909ZM92.5582 52.4886C92.8575 52.4886 93.1037 52.4119 93.2969 52.2585C93.4901 52.1051 93.633 51.9034 93.7259 51.6534C93.8187 51.4034 93.8651 51.1326 93.8651 50.8409C93.8651 50.5492 93.8187 50.2775 93.7259 50.0256C93.633 49.7737 93.4901 49.5701 93.2969 49.4148C93.1037 49.2595 92.8575 49.1818 92.5582 49.1818C92.259 49.1818 92.0128 49.2595 91.8196 49.4148C91.6264 49.5701 91.4834 49.7737 91.3906 50.0256C91.2978 50.2775 91.2514 50.5492 91.2514 50.8409C91.2514 51.1326 91.2978 51.4034 91.3906 51.6534C91.4834 51.9034 91.6264 52.1051 91.8196 52.2585C92.0128 52.4119 92.259 52.4886 92.5582 52.4886ZM97.3317 53.0909C96.9377 53.0909 96.5921 52.9972 96.2947 52.8097C95.9993 52.6222 95.7682 52.3598 95.6016 52.0227C95.4368 51.6856 95.3544 51.2917 95.3544 50.8409C95.3544 50.3864 95.4368 49.9896 95.6016 49.6506C95.7682 49.3116 95.9993 49.0483 96.2947 48.8608C96.5921 48.6733 96.9377 48.5795 97.3317 48.5795C97.7256 48.5795 98.0703 48.6733 98.3658 48.8608C98.6631 49.0483 98.8942 49.3116 99.0589 49.6506C99.2256 49.9896 99.3089 50.3864 99.3089 50.8409C99.3089 51.2917 99.2256 51.6856 99.0589 52.0227C98.8942 52.3598 98.6631 52.6222 98.3658 52.8097C98.0703 52.9972 97.7256 53.0909 97.3317 53.0909ZM97.3317 52.4886C97.6309 52.4886 97.8771 52.4119 98.0703 52.2585C98.2635 52.1051 98.4065 51.9034 98.4993 51.6534C98.5921 51.4034 98.6385 51.1326 98.6385 50.8409C98.6385 50.5492 98.5921 50.2775 98.4993 50.0256C98.4065 49.7737 98.2635 49.5701 98.0703 49.4148C97.8771 49.2595 97.6309 49.1818 97.3317 49.1818C97.0324 49.1818 96.7862 49.2595 96.593 49.4148C96.3999 49.5701 96.2569 49.7737 96.1641 50.0256C96.0713 50.2775 96.0249 50.5492 96.0249 50.8409C96.0249 51.1326 96.0713 51.4034 96.1641 51.6534C96.2569 51.9034 96.3999 52.1051 96.593 52.2585C96.7862 52.4119 97.0324 52.4886 97.3317 52.4886ZM100.332 53V48.6364H100.98V49.3182H101.037C101.128 49.0852 101.275 48.9044 101.477 48.7756C101.68 48.6449 101.923 48.5795 102.207 48.5795C102.495 48.5795 102.735 48.6449 102.926 48.7756C103.119 48.9044 103.27 49.0852 103.378 49.3182H103.423C103.535 49.0928 103.703 48.9138 103.926 48.7812C104.15 48.6468 104.418 48.5795 104.73 48.5795C105.12 48.5795 105.439 48.7017 105.688 48.946C105.936 49.1884 106.06 49.5663 106.06 50.0795V53H105.389V50.0795C105.389 49.7576 105.301 49.5275 105.125 49.3892C104.949 49.2509 104.741 49.1818 104.503 49.1818C104.196 49.1818 103.958 49.2746 103.79 49.4602C103.621 49.6439 103.537 49.8769 103.537 50.1591V53H102.855V50.0114C102.855 49.7633 102.775 49.5634 102.614 49.4119C102.453 49.2585 102.245 49.1818 101.991 49.1818C101.817 49.1818 101.654 49.2282 101.503 49.321C101.353 49.4138 101.232 49.5426 101.139 49.7074C101.048 49.8703 101.003 50.0587 101.003 50.2727V53H100.332Z" fill="black"/>
</g>
<g id="3-909">
<rect x="276.5" y="19.5" width="51" height="61" stroke="black"/>
<path id="Line 4_3" d="M286 88V74" stroke="black"/>
<g id="Line 5_3" filter="url(#filter10_d_30_333)">
<path d="M318 88V74" stroke="black"/>
</g>
<path id="room_11" d="M292.942 53V48.6364H293.589V49.2955H293.635C293.714 49.0795 293.858 48.9044 294.067 48.7699C294.275 48.6354 294.51 48.5682 294.771 48.5682C294.821 48.5682 294.882 48.5691 294.956 48.571C295.03 48.5729 295.086 48.5758 295.124 48.5795V49.2614C295.101 49.2557 295.049 49.2472 294.967 49.2358C294.888 49.2225 294.804 49.2159 294.714 49.2159C294.502 49.2159 294.313 49.2604 294.146 49.3494C293.982 49.4366 293.851 49.5578 293.754 49.7131C293.66 49.8665 293.612 50.0417 293.612 50.2386V53H292.942ZM297.558 53.0909C297.164 53.0909 296.819 52.9972 296.521 52.8097C296.226 52.6222 295.995 52.3598 295.828 52.0227C295.663 51.6856 295.581 51.2917 295.581 50.8409C295.581 50.3864 295.663 49.9896 295.828 49.6506C295.995 49.3116 296.226 49.0483 296.521 48.8608C296.819 48.6733 297.164 48.5795 297.558 48.5795C297.952 48.5795 298.297 48.6733 298.592 48.8608C298.89 49.0483 299.121 49.3116 299.286 49.6506C299.452 49.9896 299.536 50.3864 299.536 50.8409C299.536 51.2917 299.452 51.6856 299.286 52.0227C299.121 52.3598 298.89 52.6222 298.592 52.8097C298.297 52.9972 297.952 53.0909 297.558 53.0909ZM297.558 52.4886C297.857 52.4886 298.104 52.4119 298.297 52.2585C298.49 52.1051 298.633 51.9034 298.726 51.6534C298.819 51.4034 298.865 51.1326 298.865 50.8409C298.865 50.5492 298.819 50.2775 298.726 50.0256C298.633 49.7737 298.49 49.5701 298.297 49.4148C298.104 49.2595 297.857 49.1818 297.558 49.1818C297.259 49.1818 297.013 49.2595 296.82 49.4148C296.626 49.5701 296.483 49.7737 296.391 50.0256C296.298 50.2775 296.251 50.5492 296.251 50.8409C296.251 51.1326 296.298 51.4034 296.391 51.6534C296.483 51.9034 296.626 52.1051 296.82 52.2585C297.013 52.4119 297.259 52.4886 297.558 52.4886ZM302.332 53.0909C301.938 53.0909 301.592 52.9972 301.295 52.8097C300.999 52.6222 300.768 52.3598 300.602 52.0227C300.437 51.6856 300.354 51.2917 300.354 50.8409C300.354 50.3864 300.437 49.9896 300.602 49.6506C300.768 49.3116 300.999 49.0483 301.295 48.8608C301.592 48.6733 301.938 48.5795 302.332 48.5795C302.726 48.5795 303.07 48.6733 303.366 48.8608C303.663 49.0483 303.894 49.3116 304.059 49.6506C304.226 49.9896 304.309 50.3864 304.309 50.8409C304.309 51.2917 304.226 51.6856 304.059 52.0227C303.894 52.3598 303.663 52.6222 303.366 52.8097C303.07 52.9972 302.726 53.0909 302.332 53.0909ZM302.332 52.4886C302.631 52.4886 302.877 52.4119 303.07 52.2585C303.263 52.1051 303.406 51.9034 303.499 51.6534C303.592 51.4034 303.638 51.1326 303.638 50.8409C303.638 50.5492 303.592 50.2775 303.499 50.0256C303.406 49.7737 303.263 49.5701 303.07 49.4148C302.877 49.2595 302.631 49.1818 302.332 49.1818C302.032 49.1818 301.786 49.2595 301.593 49.4148C301.4 49.5701 301.257 49.7737 301.164 50.0256C301.071 50.2775 301.025 50.5492 301.025 50.8409C301.025 51.1326 301.071 51.4034 301.164 51.6534C301.257 51.9034 301.4 52.1051 301.593 52.2585C301.786 52.4119 302.032 52.4886 302.332 52.4886ZM305.332 53V48.6364H305.98V49.3182H306.037C306.128 49.0852 306.275 48.9044 306.477 48.7756C306.68 48.6449 306.923 48.5795 307.207 48.5795C307.495 48.5795 307.735 48.6449 307.926 48.7756C308.119 48.9044 308.27 49.0852 308.378 49.3182H308.423C308.535 49.0928 308.703 48.9138 308.926 48.7812C309.15 48.6468 309.418 48.5795 309.73 48.5795C310.12 48.5795 310.439 48.7017 310.688 48.946C310.936 49.1884 311.06 49.5663 311.06 50.0795V53H310.389V50.0795C310.389 49.7576 310.301 49.5275 310.125 49.3892C309.949 49.2509 309.741 49.1818 309.503 49.1818C309.196 49.1818 308.958 49.2746 308.79 49.4602C308.621 49.6439 308.537 49.8769 308.537 50.1591V53H307.855V50.0114C307.855 49.7633 307.775 49.5634 307.614 49.4119C307.453 49.2585 307.245 49.1818 306.991 49.1818C306.817 49.1818 306.654 49.2282 306.503 49.321C306.353 49.4138 306.232 49.5426 306.139 49.7074C306.048 49.8703 306.003 50.0587 306.003 50.2727V53H305.332Z" fill="black"/>
</g>
<g id="3-910">
<rect x="327.5" y="19.5" width="51" height="61" stroke="black"/>
<path id="Line 4_4" d="M337 88V74" stroke="black"/>
<g id="Line 5_4" filter="url(#filter11_d_30_333)">
<path d="M369 88V74" stroke="black"/>
</g>
<path id="room_12" d="M343.942 53V48.6364H344.589V49.2955H344.635C344.714 49.0795 344.858 48.9044 345.067 48.7699C345.275 48.6354 345.51 48.5682 345.771 48.5682C345.821 48.5682 345.882 48.5691 345.956 48.571C346.03 48.5729 346.086 48.5758 346.124 48.5795V49.2614C346.101 49.2557 346.049 49.2472 345.967 49.2358C345.888 49.2225 345.804 49.2159 345.714 49.2159C345.502 49.2159 345.313 49.2604 345.146 49.3494C344.982 49.4366 344.851 49.5578 344.754 49.7131C344.66 49.8665 344.612 50.0417 344.612 50.2386V53H343.942ZM348.558 53.0909C348.164 53.0909 347.819 52.9972 347.521 52.8097C347.226 52.6222 346.995 52.3598 346.828 52.0227C346.663 51.6856 346.581 51.2917 346.581 50.8409C346.581 50.3864 346.663 49.9896 346.828 49.6506C346.995 49.3116 347.226 49.0483 347.521 48.8608C347.819 48.6733 348.164 48.5795 348.558 48.5795C348.952 48.5795 349.297 48.6733 349.592 48.8608C349.89 49.0483 350.121 49.3116 350.286 49.6506C350.452 49.9896 350.536 50.3864 350.536 50.8409C350.536 51.2917 350.452 51.6856 350.286 52.0227C350.121 52.3598 349.89 52.6222 349.592 52.8097C349.297 52.9972 348.952 53.0909 348.558 53.0909ZM348.558 52.4886C348.857 52.4886 349.104 52.4119 349.297 52.2585C349.49 52.1051 349.633 51.9034 349.726 51.6534C349.819 51.4034 349.865 51.1326 349.865 50.8409C349.865 50.5492 349.819 50.2775 349.726 50.0256C349.633 49.7737 349.49 49.5701 349.297 49.4148C349.104 49.2595 348.857 49.1818 348.558 49.1818C348.259 49.1818 348.013 49.2595 347.82 49.4148C347.626 49.5701 347.483 49.7737 347.391 50.0256C347.298 50.2775 347.251 50.5492 347.251 50.8409C347.251 51.1326 347.298 51.4034 347.391 51.6534C347.483 51.9034 347.626 52.1051 347.82 52.2585C348.013 52.4119 348.259 52.4886 348.558 52.4886ZM353.332 53.0909C352.938 53.0909 352.592 52.9972 352.295 52.8097C351.999 52.6222 351.768 52.3598 351.602 52.0227C351.437 51.6856 351.354 51.2917 351.354 50.8409C351.354 50.3864 351.437 49.9896 351.602 49.6506C351.768 49.3116 351.999 49.0483 352.295 48.8608C352.592 48.6733 352.938 48.5795 353.332 48.5795C353.726 48.5795 354.07 48.6733 354.366 48.8608C354.663 49.0483 354.894 49.3116 355.059 49.6506C355.226 49.9896 355.309 50.3864 355.309 50.8409C355.309 51.2917 355.226 51.6856 355.059 52.0227C354.894 52.3598 354.663 52.6222 354.366 52.8097C354.07 52.9972 353.726 53.0909 353.332 53.0909ZM353.332 52.4886C353.631 52.4886 353.877 52.4119 354.07 52.2585C354.263 52.1051 354.406 51.9034 354.499 51.6534C354.592 51.4034 354.638 51.1326 354.638 50.8409C354.638 50.5492 354.592 50.2775 354.499 50.0256C354.406 49.7737 354.263 49.5701 354.07 49.4148C353.877 49.2595 353.631 49.1818 353.332 49.1818C353.032 49.1818 352.786 49.2595 352.593 49.4148C352.4 49.5701 352.257 49.7737 352.164 50.0256C352.071 50.2775 352.025 50.5492 352.025 50.8409C352.025 51.1326 352.071 51.4034 352.164 51.6534C352.257 51.9034 352.4 52.1051 352.593 52.2585C352.786 52.4119 353.032 52.4886 353.332 52.4886ZM356.332 53V48.6364H356.98V49.3182H357.037C357.128 49.0852 357.275 48.9044 357.477 48.7756C357.68 48.6449 357.923 48.5795 358.207 48.5795C358.495 48.5795 358.735 48.6449 358.926 48.7756C359.119 48.9044 359.27 49.0852 359.378 49.3182H359.423C359.535 49.0928 359.703 48.9138 359.926 48.7812C360.15 48.6468 360.418 48.5795 360.73 48.5795C361.12 48.5795 361.439 48.7017 361.688 48.946C361.936 49.1884 362.06 49.5663 362.06 50.0795V53H361.389V50.0795C361.389 49.7576 361.301 49.5275 361.125 49.3892C360.949 49.2509 360.741 49.1818 360.503 49.1818C360.196 49.1818 359.958 49.2746 359.79 49.4602C359.621 49.6439 359.537 49.8769 359.537 50.1591V53H358.855V50.0114C358.855 49.7633 358.775 49.5634 358.614 49.4119C358.453 49.2585 358.245 49.1818 357.991 49.1818C357.817 49.1818 357.654 49.2282 357.503 49.321C357.353 49.4138 357.232 49.5426 357.139 49.7074C357.048 49.8703 357.003 50.0587 357.003 50.2727V53H356.332Z" fill="black"/>
</g>
<g id="WC">
<g clip-path="url(#clip1_30_333)">
<path id="WC_2" d="M128.191 47L126.6 41.1818H127.316L128.532 45.9205H128.589L129.827 41.1818H130.623L131.862 45.9205H131.918L133.134 41.1818H133.85L132.259 47H131.532L130.248 42.3636H130.202L128.918 47H128.191ZM139.136 43H138.432C138.39 42.7973 138.317 42.6193 138.213 42.4659C138.111 42.3125 137.986 42.1837 137.838 42.0795C137.692 41.9735 137.53 41.8939 137.352 41.8409C137.174 41.7879 136.989 41.7614 136.795 41.7614C136.443 41.7614 136.124 41.8504 135.838 42.0284C135.554 42.2064 135.328 42.4688 135.159 42.8153C134.992 43.1619 134.909 43.5871 134.909 44.0909C134.909 44.5947 134.992 45.0199 135.159 45.3665C135.328 45.7131 135.554 45.9754 135.838 46.1534C136.124 46.3314 136.443 46.4205 136.795 46.4205C136.989 46.4205 137.174 46.3939 137.352 46.3409C137.53 46.2879 137.692 46.2093 137.838 46.1051C137.986 45.9991 138.111 45.8693 138.213 45.7159C138.317 45.5606 138.39 45.3826 138.432 45.1818H139.136C139.083 45.4792 138.987 45.7453 138.847 45.9801C138.706 46.215 138.532 46.4148 138.324 46.5795C138.116 46.7424 137.882 46.8665 137.622 46.9517C137.365 47.0369 137.089 47.0795 136.795 47.0795C136.299 47.0795 135.858 46.9583 135.472 46.7159C135.085 46.4735 134.781 46.1288 134.56 45.6818C134.338 45.2348 134.227 44.7045 134.227 44.0909C134.227 43.4773 134.338 42.947 134.56 42.5C134.781 42.053 135.085 41.7083 135.472 41.4659C135.858 41.2235 136.299 41.1023 136.795 41.1023C137.089 41.1023 137.365 41.1449 137.622 41.2301C137.882 41.3153 138.116 41.4403 138.324 41.6051C138.532 41.768 138.706 41.9669 138.847 42.2017C138.987 42.4347 139.083 42.7008 139.136 43Z" fill="black"/>
</g>
<rect x="122.5" y="19.5" width="20" height="50" stroke="black"/>
</g>
<g id="WC_3">
<g clip-path="url(#clip2_30_333)">
<path id="WC_4" d="M262.191 47L260.6 41.1818H261.316L262.532 45.9205H262.589L263.827 41.1818H264.623L265.862 45.9205H265.918L267.134 41.1818H267.85L266.259 47H265.532L264.248 42.3636H264.202L262.918 47H262.191ZM273.136 43H272.432C272.39 42.7973 272.317 42.6193 272.213 42.4659C272.111 42.3125 271.986 42.1837 271.838 42.0795C271.692 41.9735 271.53 41.8939 271.352 41.8409C271.174 41.7879 270.989 41.7614 270.795 41.7614C270.443 41.7614 270.124 41.8504 269.838 42.0284C269.554 42.2064 269.328 42.4688 269.159 42.8153C268.992 43.1619 268.909 43.5871 268.909 44.0909C268.909 44.5947 268.992 45.0199 269.159 45.3665C269.328 45.7131 269.554 45.9754 269.838 46.1534C270.124 46.3314 270.443 46.4205 270.795 46.4205C270.989 46.4205 271.174 46.3939 271.352 46.3409C271.53 46.2879 271.692 46.2093 271.838 46.1051C271.986 45.9991 272.111 45.8693 272.213 45.7159C272.317 45.5606 272.39 45.3826 272.432 45.1818H273.136C273.083 45.4792 272.987 45.7453 272.847 45.9801C272.706 46.215 272.532 46.4148 272.324 46.5795C272.116 46.7424 271.882 46.8665 271.622 46.9517C271.365 47.0369 271.089 47.0795 270.795 47.0795C270.299 47.0795 269.858 46.9583 269.472 46.7159C269.085 46.4735 268.781 46.1288 268.56 45.6818C268.338 45.2348 268.227 44.7045 268.227 44.0909C268.227 43.4773 268.338 42.947 268.56 42.5C268.781 42.053 269.085 41.7083 269.472 41.4659C269.858 41.2235 270.299 41.1023 270.795 41.1023C271.089 41.1023 271.365 41.1449 271.622 41.2301C271.882 41.3153 272.116 41.4403 272.324 41.6051C272.532 41.768 272.706 41.9669 272.847 42.2017C272.987 42.4347 273.083 42.7008 273.136 43Z" fill="black"/>
</g>
<rect x="256.5" y="19.5" width="20" height="50" stroke="black"/>
</g>
<g id="&#229;&#144;&#185;&#227;&#129;&#141;&#230;&#138;&#156;&#227;&#129;&#145;">
<rect x="169.5" y="28.5" width="60" height="28" stroke="black"/>
</g>
</g>
<rect x="20.5" y="19.5" width="358" height="117" stroke="black"/>
</g>
</g>
<defs>
<filter id="filter0_d_30_333" x="72" y="92" width="9" height="15" filterUnits="userSpaceOnUse" color-interpolation-filters="sRGB">
<feFlood flood-opacity="0" result="BackgroundImageFix"/>
<feColorMatrix in="SourceAlpha" type="matrix" values="0 0 0 0 0 0 0 0 0 0 0 0 0 0 0 0 0 0 127 0" result="hardAlpha"/>
<feOffset dy="4"/>
<feGaussianBlur stdDeviation="2"/>
<feComposite in2="hardAlpha" operator="out"/>
<feColorMatrix type="matrix" values="0 0 0 0 0 0 0 0 0 0 0 0 0 0 0 0 0 0 0.25 0"/>
<feBlend mode="normal" in2="BackgroundImageFix" result="effect1_dropShadow_30_333"/>
<feBlend mode="normal" in="SourceGraphic" in2="effect1_dropShadow_30_333" result="shape"/>
</filter>
<filter id="filter1_d_30_333" x="105" y="92" width="9" height="15" filterUnits="userSpaceOnUse" color-interpolation-filters="sRGB">
<feFlood flood-opacity="0" result="BackgroundImageFix"/>
<feColorMatrix in="SourceAlpha" type="matrix" values="0 0 0 0 0 0 0 0 0 0 0 0 0 0 0 0 0 0 127 0" result="hardAlpha"/>
<feOffset dy="4"/>
<feGaussianBlur stdDeviation="2"/>
<feComposite in2="hardAlpha" operator="out"/>
<feColorMatrix type="matrix" values="0 0 0 0 0 0 0 0 0 0 0 0 0 0 0 0 0 0 0.25 0"/>
<feBlend mode="normal" in2="BackgroundImageFix" result="effect1_dropShadow_30_333"/>
<feBlend mode="normal" in="SourceGraphic" in2="effect1_dropShadow_30_333" result="shape"/>
</filter>
<filter id="filter2_d_30_333" x="138" y="92" width="9" height="15" filterUnits="userSpaceOnUse" color-interpolation-filters="sRGB">
<feFlood flood-opacity="0" result="BackgroundImageFix"/>
<feColorMatrix in="SourceAlpha" type="matrix" values="0 0 0 0 0 0 0 0 0 0 0 0 0 0 0 0 0 0 127 0" result="hardAlpha"/>
<feOffset dy="4"/>
<feGaussianBlur stdDeviation="2"/>
<feComposite in2="hardAlpha" operator="out"/>
<feColorMatrix type="matrix" values="0 0 0 0 0 0 0 0 0 0 0 0 0 0 0 0 0 0 0.25 0"/>
<feBlend mode="normal" in2="BackgroundImageFix" result="effect1_dropShadow_30_333"/>
<feBlend mode="normal" in="SourceGraphic" in2="effect1_dropShadow_30_333" result="shape"/>
</filter>
<filter id="filter3_d_30_333" x="171" y="92" width="9" height="15" filterUnits="userSpaceOnUse" color-interpolation-filters="sRGB">
<feFlood flood-opacity="0" result="BackgroundImageFix"/>
<feColorMatrix in="SourceAlpha" type="matrix" values="0 0 0 0 0 0 0 0 0 0 0 0 0 0 0 0 0 0 127 0" result="hardAlpha"/>
<feOffset dy="4"/>
<feGaussianBlur stdDeviation="2"/>
<feComposite in2="hardAlpha" operator="out"/>
<feColorMatrix type="matrix" values="0 0 0 0 0 0 0 0 0 0 0 0 0 0 0 0 0 0 0.25 0"/>
<feBlend mode="normal" in2="BackgroundImageFix" result="effect1_dropShadow_30_333"/>
<feBlend mode="normal" in="SourceGraphic" in2="effect1_dropShadow_30_333" result="shape"/>
</filter>
<filter id="filter4_d_30_333" x="204" y="92" width="9" height="15" filterUnits="userSpaceOnUse" color-interpolation-filters="sRGB">
<feFlood flood-opacity="0" result="BackgroundImageFix"/>
<feColorMatrix in="SourceAlpha" type="matrix" values="0 0 0 0 0 0 0 0 0 0 0 0 0 0 0 0 0 0 127 0" result="hardAlpha"/>
<feOffset dy="4"/>
<feGaussianBlur stdDeviation="2"/>
<feComposite in2="hardAlpha" operator="out"/>
<feColorMatrix type="matrix" values="0 0 0 0 0 0 0 0 0 0 0 0 0 0 0 0 0 0 0.25 0"/>
<feBlend mode="normal" in2="BackgroundImageFix" result="effect1_dropShadow_30_333"/>
<feBlend mode="normal" in="SourceGraphic" in2="effect1_dropShadow_30_333" result="shape"/>
</filter>
<filter id="filter5_d_30_333" x="237" y="92" width="9" height="15" filterUnits="userSpaceOnUse" color-interpolation-filters="sRGB">
<feFlood flood-opacity="0" result="BackgroundImageFix"/>
<feColorMatrix in="SourceAlpha" type="matrix" values="0 0 0 0 0 0 0 0 0 0 0 0 0 0 0 0 0 0 127 0" result="hardAlpha"/>
<feOffset dy="4"/>
<feGaussianBlur stdDeviation="2"/>
<feComposite in2="hardAlpha" operator="out"/>
<feColorMatrix type="matrix" values="0 0 0 0 0 0 0 0 0 0 0 0 0 0 0 0 0 0 0.25 0"/>
<feBlend mode="normal" in2="BackgroundImageFix" result="effect1_dropShadow_30_333"/>
<feBlend mode="normal" in="SourceGraphic" in2="effect1_dropShadow_30_333" result="shape"/>
</filter>
<filter id="filter6_d_30_333" x="270" y="92" width="9" height="15" filterUnits="userSpaceOnUse" color-interpolation-filters="sRGB">
<feFlood flood-opacity="0" result="BackgroundImageFix"/>
<feColorMatrix in="SourceAlpha" type="matrix" values="0 0 0 0 0 0 0 0 0 0 0 0 0 0 0 0 0 0 127 0" result="hardAlpha"/>
<feOffset dy="4"/>
<feGaussianBlur stdDeviation="2"/>
<feComposite in2="hardAlpha" operator="out"/>
<feColorMatrix type="matrix" values="0 0 0 0 0 0 0 0 0 0 0 0 0 0 0 0 0 0 0.25 0"/>
<feBlend mode="normal" in2="BackgroundImageFix" result="effect1_dropShadow_30_333"/>
<feBlend mode="normal" in="SourceGraphic" in2="effect1_dropShadow_30_333" result="shape"/>
</filter>
<filter id="filter7_d_30_333" x="303" y="92" width="9" height="15" filterUnits="userSpaceOnUse" color-interpolation-filters="sRGB">
<feFlood flood-opacity="0" result="BackgroundImageFix"/>
<feColorMatrix in="SourceAlpha" type="matrix" values="0 0 0 0 0 0 0 0 0 0 0 0 0 0 0 0 0 0 127 0" result="hardAlpha"/>
<feOffset dy="4"/>
<feGaussianBlur stdDeviation="2"/>
<feComposite in2="hardAlpha" operator="out"/>
<feColorMatrix type="matrix" values="0 0 0 0 0 0 0 0 0 0 0 0 0 0 0 0 0 0 0.25 0"/>
<feBlend mode="normal" in2="BackgroundImageFix" result="effect1_dropShadow_30_333"/>
<feBlend mode="normal" in="SourceGraphic" in2="effect1_dropShadow_30_333" result="shape"/>
</filter>
<filter id="filter8_d_30_333" x="57.5" y="74" width="9" height="22" filterUnits="userSpaceOnUse" color-interpolation-filters="sRGB">
<feFlood flood-opacity="0" result="BackgroundImageFix"/>
<feColorMatrix in="SourceAlpha" type="matrix" values="0 0 0 0 0 0 0 0 0 0 0 0 0 0 0 0 0 0 127 0" result="hardAlpha"/>
<feOffset dy="4"/>
<feGaussianBlur stdDeviation="2"/>
<feComposite in2="hardAlpha" operator="out"/>
<feColorMatrix type="matrix" values="0 0 0 0 0 0 0 0 0 0 0 0 0 0 0 0 0 0 0.25 0"/>
<feBlend mode="normal" in2="BackgroundImageFix" result="effect1_dropShadow_30_333"/>
<feBlend mode="normal" in="SourceGraphic" in2="effect1_dropShadow_30_333" result="shape"/>
</filter>
<filter id="filter9_d_30_333" x="108.5" y="74" width="9" height="22" filterUnits="userSpaceOnUse" color-interpolation-filters="sRGB">
<feFlood flood-opacity="0" result="BackgroundImageFix"/>
<feColorMatrix in="SourceAlpha" type="matrix" values="0 0 0 0 0 0 0 0 0 0 0 0 0 0 0 0 0 0 127 0" result="hardAlpha"/>
<feOffset dy="4"/>
<feGaussianBlur stdDeviation="2"/>
<feComposite in2="hardAlpha" operator="out"/>
<feColorMatrix type="matrix" values="0 0 0 0 0 0 0 0 0 0 0 0 0 0 0 0 0 0 0.25 0"/>
<feBlend mode="normal" in2="BackgroundImageFix" result="effect1_dropShadow_30_333"/>
<feBlend mode="normal" in="SourceGraphic" in2="effect1_dropShadow_30_333" result="shape"/>
</filter>
<filter id="filter10_d_30_333" x="313.5" y="74" width="9" height="22" filterUnits="userSpaceOnUse" color-interpolation-filters="sRGB">
<feFlood flood-opacity="0" result="BackgroundImageFix"/>
<feColorMatrix in="SourceAlpha" type="matrix" values="0 0 0 0 0 0 0 0 0 0 0 0 0 0 0 0 0 0 127 0" result="hardAlpha"/>
<feOffset dy="4"/>
<feGaussianBlur stdDeviation="2"/>
<feComposite in2="hardAlpha" operator="out"/>
<feColorMatrix type="matrix" values="0 0 0 0 0 0 0 0 0 0 0 0 0 0 0 0 0 0 0.25 0"/>
<feBlend mode="normal" in2="BackgroundImageFix" result="effect1_dropShadow_30_333"/>
<feBlend mode="normal" in="SourceGraphic" in2="effect1_dropShadow_30_333" result="shape"/>
</filter>
<filter id="filter11_d_30_333" x="364.5" y="74" width="9" height="22" filterUnits="userSpaceOnUse" color-interpolation-filters="sRGB">
<feFlood flood-opacity="0" result="BackgroundImageFix"/>
<feColorMatrix in="SourceAlpha" type="matrix" values="0 0 0 0 0 0 0 0 0 0 0 0 0 0 0 0 0 0 127 0" result="hardAlpha"/>
<feOffset dy="4"/>
<feGaussianBlur stdDeviation="2"/>
<feComposite in2="hardAlpha" operator="out"/>
<feColorMatrix type="matrix" values="0 0 0 0 0 0 0 0 0 0 0 0 0 0 0 0 0 0 0.25 0"/>
<feBlend mode="normal" in2="BackgroundImageFix" result="effect1_dropShadow_30_333"/>
<feBlend mode="normal" in="SourceGraphic" in2="effect1_dropShadow_30_333" result="shape"/>
</filter>
<clipPath id="clip0_30_333">
<rect x="20" y="19" width="359" height="118" fill="white"/>
</clipPath>
<clipPath id="clip1_30_333">
<rect x="122" y="19" width="21" height="51" fill="white"/>
</clipPath>
<clipPath id="clip2_30_333">
<rect x="256" y="19" width="21" height="51" fill="white"/>
</clipPath>
</defs>
</svg>
