<svg width="400" height="300" viewBox="0 0 400 300" fill="none" xmlns="http://www.w3.org/2000/svg">
<rect width="400" height="300" fill="white"/>
<mask id="path-1-inside-1_37_1169" fill="white">
<path d="M142 82H257V101H142V82Z"/>
</mask>
<path d="M142 82V81H141V82H142ZM257 82H258V81H257V82ZM142 83H257V81H142V83ZM256 82V101H258V82H256ZM143 101V82H141V101H143Z" fill="black" mask="url(#path-1-inside-1_37_1169)"/>
<g clip-path="url(#clip0_37_1169)">
<mask id="path-3-inside-2_37_1169" fill="white">
<path d="M20 100H379V218H20V100Z"/>
</mask>
<g clip-path="url(#clip1_37_1169)">
<path d="M128.191 128L126.6 122.182H127.316L128.532 126.92H128.589L129.827 122.182H130.623L131.862 126.92H131.918L133.134 122.182H133.85L132.259 128H131.532L130.248 123.364H130.202L128.918 128H128.191ZM139.136 124H138.432C138.39 123.797 138.317 123.619 138.213 123.466C138.111 123.312 137.986 123.184 137.838 123.08C137.692 122.973 137.53 122.894 137.352 122.841C137.174 122.788 136.989 122.761 136.795 122.761C136.443 122.761 136.124 122.85 135.838 123.028C135.554 123.206 135.328 123.469 135.159 123.815C134.992 124.162 134.909 124.587 134.909 125.091C134.909 125.595 134.992 126.02 135.159 126.366C135.328 126.713 135.554 126.975 135.838 127.153C136.124 127.331 136.443 127.42 136.795 127.42C136.989 127.42 137.174 127.394 137.352 127.341C137.53 127.288 137.692 127.209 137.838 127.105C137.986 126.999 138.111 126.869 138.213 126.716C138.317 126.561 138.39 126.383 138.432 126.182H139.136C139.083 126.479 138.987 126.745 138.847 126.98C138.706 127.215 138.532 127.415 138.324 127.58C138.116 127.742 137.882 127.866 137.622 127.952C137.365 128.037 137.089 128.08 136.795 128.08C136.299 128.08 135.858 127.958 135.472 127.716C135.085 127.473 134.781 127.129 134.56 126.682C134.338 126.235 134.227 125.705 134.227 125.091C134.227 124.477 134.338 123.947 134.56 123.5C134.781 123.053 135.085 122.708 135.472 122.466C135.858 122.223 136.299 122.102 136.795 122.102C137.089 122.102 137.365 122.145 137.622 122.23C137.882 122.315 138.116 122.44 138.324 122.605C138.532 122.768 138.706 122.967 138.847 123.202C138.987 123.435 139.083 123.701 139.136 124Z" fill="black"/>
</g>
<rect x="122.5" y="100.5" width="20" height="50" stroke="black"/>
<g clip-path="url(#clip2_37_1169)">
<path d="M262.191 128L260.6 122.182H261.316L262.532 126.92H262.589L263.827 122.182H264.623L265.862 126.92H265.918L267.134 122.182H267.85L266.259 128H265.532L264.248 123.364H264.202L262.918 128H262.191ZM273.136 124H272.432C272.39 123.797 272.317 123.619 272.213 123.466C272.111 123.312 271.986 123.184 271.838 123.08C271.692 122.973 271.53 122.894 271.352 122.841C271.174 122.788 270.989 122.761 270.795 122.761C270.443 122.761 270.124 122.85 269.838 123.028C269.554 123.206 269.328 123.469 269.159 123.815C268.992 124.162 268.909 124.587 268.909 125.091C268.909 125.595 268.992 126.02 269.159 126.366C269.328 126.713 269.554 126.975 269.838 127.153C270.124 127.331 270.443 127.42 270.795 127.42C270.989 127.42 271.174 127.394 271.352 127.341C271.53 127.288 271.692 127.209 271.838 127.105C271.986 126.999 272.111 126.869 272.213 126.716C272.317 126.561 272.39 126.383 272.432 126.182H273.136C273.083 126.479 272.987 126.745 272.847 126.98C272.706 127.215 272.532 127.415 272.324 127.58C272.116 127.742 271.882 127.866 271.622 127.952C271.365 128.037 271.089 128.08 270.795 128.08C270.299 128.08 269.858 127.958 269.472 127.716C269.085 127.473 268.781 127.129 268.56 126.682C268.338 126.235 268.227 125.705 268.227 125.091C268.227 124.477 268.338 123.947 268.56 123.5C268.781 123.053 269.085 122.708 269.472 122.466C269.858 122.223 270.299 122.102 270.795 122.102C271.089 122.102 271.365 122.145 271.622 122.23C271.882 122.315 272.116 122.44 272.324 122.605C272.532 122.768 272.706 122.967 272.847 123.202C272.987 123.435 273.083 123.701 273.136 124Z" fill="black"/>
</g>
<rect x="256.5" y="100.5" width="20" height="50" stroke="black"/>
<rect x="169.5" y="109.5" width="60" height="28" stroke="black"/>
<rect x="276.5" y="100.5" width="102" height="61" stroke="black"/>
<path d="M288 169V155" stroke="black"/>
<g filter="url(#filter0_d_37_1169)">
<path d="M367 169V155" stroke="black"/>
</g>
<path d="M317.752 134.08C317.377 134.08 317.042 134.015 316.749 133.886C316.457 133.758 316.225 133.579 316.053 133.349C315.882 133.118 315.79 132.85 315.775 132.545H316.49C316.506 132.733 316.57 132.895 316.684 133.031C316.797 133.166 316.946 133.27 317.13 133.344C317.313 133.418 317.517 133.455 317.74 133.455C317.99 133.455 318.212 133.411 318.405 133.324C318.598 133.237 318.75 133.116 318.86 132.96C318.97 132.805 319.025 132.625 319.025 132.42C319.025 132.206 318.971 132.018 318.865 131.855C318.759 131.69 318.604 131.562 318.4 131.469C318.195 131.376 317.945 131.33 317.65 131.33H317.184V130.705H317.65C317.881 130.705 318.083 130.663 318.257 130.58C318.434 130.496 318.571 130.379 318.669 130.227C318.77 130.076 318.82 129.898 318.82 129.693C318.82 129.496 318.776 129.325 318.689 129.179C318.602 129.033 318.479 128.92 318.32 128.838C318.163 128.757 317.977 128.716 317.763 128.716C317.562 128.716 317.373 128.753 317.195 128.827C317.019 128.899 316.875 129.004 316.763 129.142C316.651 129.278 316.591 129.443 316.581 129.636H315.9C315.911 129.331 316.003 129.064 316.175 128.835C316.347 128.604 316.573 128.424 316.851 128.295C317.132 128.167 317.439 128.102 317.775 128.102C318.134 128.102 318.443 128.175 318.701 128.321C318.958 128.465 319.156 128.655 319.294 128.892C319.433 129.129 319.502 129.384 319.502 129.659C319.502 129.987 319.416 130.266 319.243 130.497C319.073 130.728 318.841 130.888 318.547 130.977V131.023C318.915 131.083 319.202 131.24 319.408 131.491C319.614 131.741 319.718 132.051 319.718 132.42C319.718 132.737 319.632 133.021 319.459 133.273C319.289 133.523 319.056 133.72 318.76 133.864C318.465 134.008 318.129 134.08 317.752 134.08ZM323.391 130.778V131.403H320.846V130.778H323.391ZM326.491 134.08C326.252 134.076 326.014 134.03 325.775 133.943C325.537 133.856 325.319 133.709 325.122 133.503C324.925 133.295 324.767 133.013 324.647 132.659C324.528 132.303 324.468 131.856 324.468 131.318C324.468 130.803 324.517 130.347 324.613 129.949C324.71 129.549 324.85 129.213 325.034 128.94C325.217 128.666 325.439 128.457 325.699 128.315C325.96 128.173 326.254 128.102 326.582 128.102C326.908 128.102 327.198 128.168 327.451 128.298C327.707 128.427 327.915 128.607 328.076 128.838C328.237 129.069 328.342 129.335 328.389 129.636H327.696C327.631 129.375 327.506 129.158 327.321 128.986C327.135 128.813 326.889 128.727 326.582 128.727C326.131 128.727 325.776 128.923 325.517 129.315C325.259 129.707 325.129 130.258 325.127 130.966H325.173C325.279 130.805 325.405 130.668 325.551 130.554C325.699 130.438 325.861 130.349 326.039 130.287C326.217 130.224 326.406 130.193 326.605 130.193C326.938 130.193 327.243 130.277 327.52 130.443C327.796 130.608 328.018 130.836 328.184 131.128C328.351 131.418 328.434 131.75 328.434 132.125C328.434 132.485 328.354 132.814 328.193 133.114C328.032 133.411 327.806 133.648 327.514 133.824C327.224 133.998 326.883 134.083 326.491 134.08ZM326.491 133.455C326.73 133.455 326.944 133.395 327.133 133.276C327.324 133.156 327.475 132.996 327.585 132.795C327.697 132.595 327.752 132.371 327.752 132.125C327.752 131.884 327.699 131.666 327.591 131.469C327.484 131.27 327.338 131.112 327.15 130.994C326.965 130.877 326.752 130.818 326.514 130.818C326.334 130.818 326.166 130.854 326.011 130.926C325.856 130.996 325.719 131.093 325.602 131.216C325.486 131.339 325.395 131.48 325.329 131.639C325.263 131.796 325.23 131.962 325.23 132.136C325.23 132.367 325.284 132.583 325.392 132.784C325.502 132.985 325.651 133.147 325.841 133.27C326.032 133.393 326.249 133.455 326.491 133.455ZM331.449 134.08C331.021 134.08 330.657 133.963 330.355 133.73C330.054 133.495 329.824 133.155 329.665 132.71C329.506 132.263 329.426 131.723 329.426 131.091C329.426 130.462 329.506 129.925 329.665 129.48C329.826 129.033 330.057 128.692 330.358 128.457C330.661 128.221 331.025 128.102 331.449 128.102C331.873 128.102 332.236 128.221 332.537 128.457C332.84 128.692 333.071 129.033 333.23 129.48C333.391 129.925 333.472 130.462 333.472 131.091C333.472 131.723 333.392 132.263 333.233 132.71C333.074 133.155 332.844 133.495 332.543 133.73C332.242 133.963 331.877 134.08 331.449 134.08ZM331.449 133.455C331.873 133.455 332.203 133.25 332.438 132.841C332.673 132.432 332.79 131.848 332.79 131.091C332.79 130.587 332.736 130.158 332.628 129.804C332.522 129.45 332.369 129.18 332.168 128.994C331.969 128.809 331.73 128.716 331.449 128.716C331.029 128.716 330.7 128.923 330.463 129.338C330.227 129.751 330.108 130.335 330.108 131.091C330.108 131.595 330.161 132.023 330.267 132.375C330.373 132.727 330.526 132.995 330.725 133.179C330.926 133.363 331.167 133.455 331.449 133.455ZM336.37 134.08C336.036 134.08 335.736 134.013 335.469 133.881C335.202 133.748 334.988 133.566 334.827 133.335C334.666 133.104 334.578 132.841 334.563 132.545H335.245C335.271 132.809 335.391 133.027 335.603 133.199C335.817 133.369 336.072 133.455 336.37 133.455C336.608 133.455 336.82 133.399 337.006 133.287C337.194 133.175 337.34 133.022 337.446 132.827C337.554 132.63 337.608 132.407 337.608 132.159C337.608 131.905 337.552 131.679 337.441 131.48C337.331 131.279 337.179 131.121 336.986 131.006C336.793 130.89 336.572 130.831 336.324 130.83C336.146 130.828 335.963 130.855 335.776 130.912C335.588 130.967 335.434 131.038 335.313 131.125L334.654 131.045L335.006 128.182H338.029V128.807H335.597L335.392 130.523H335.426C335.546 130.428 335.695 130.349 335.875 130.287C336.055 130.224 336.243 130.193 336.438 130.193C336.794 130.193 337.111 130.278 337.39 130.449C337.67 130.617 337.89 130.848 338.049 131.142C338.21 131.436 338.29 131.771 338.29 132.148C338.29 132.519 338.207 132.85 338.04 133.142C337.875 133.432 337.648 133.661 337.358 133.83C337.069 133.996 336.739 134.08 336.37 134.08Z" fill="black"/>
<rect x="20.5" y="100.5" width="102" height="61" stroke="black"/>
<path d="M32 169L32 155" stroke="black"/>
<g filter="url(#filter1_d_37_1169)">
<path d="M111 169V155" stroke="black"/>
</g>
<path d="M61.6893 134.08C61.3143 134.08 60.98 134.015 60.6864 133.886C60.3948 133.758 60.1628 133.579 59.9904 133.349C59.82 133.118 59.7272 132.85 59.712 132.545H60.4279C60.4431 132.733 60.5075 132.895 60.6211 133.031C60.7347 133.166 60.8834 133.27 61.0671 133.344C61.2508 133.418 61.4544 133.455 61.6779 133.455C61.9279 133.455 62.1495 133.411 62.3427 133.324C62.5359 133.237 62.6874 133.116 62.7972 132.96C62.9071 132.805 62.962 132.625 62.962 132.42C62.962 132.206 62.909 132.018 62.8029 131.855C62.6969 131.69 62.5415 131.562 62.337 131.469C62.1325 131.376 61.8825 131.33 61.587 131.33H61.1211V130.705H61.587C61.8181 130.705 62.0207 130.663 62.195 130.58C62.3711 130.496 62.5084 130.379 62.6069 130.227C62.7073 130.076 62.7575 129.898 62.7575 129.693C62.7575 129.496 62.7139 129.325 62.6268 129.179C62.5397 129.033 62.4165 128.92 62.2575 128.838C62.1003 128.757 61.9147 128.716 61.7006 128.716C61.4999 128.716 61.3105 128.753 61.1325 128.827C60.9563 128.899 60.8124 129.004 60.7006 129.142C60.5889 129.278 60.5283 129.443 60.5188 129.636H59.837C59.8484 129.331 59.9402 129.064 60.1126 128.835C60.2849 128.604 60.5103 128.424 60.7887 128.295C61.069 128.167 61.3768 128.102 61.712 128.102C62.0719 128.102 62.3806 128.175 62.6381 128.321C62.8957 128.465 63.0936 128.655 63.2319 128.892C63.3701 129.129 63.4393 129.384 63.4393 129.659C63.4393 129.987 63.3531 130.266 63.1808 130.497C63.0103 130.728 62.7783 130.888 62.4847 130.977V131.023C62.8522 131.083 63.1391 131.24 63.3455 131.491C63.552 131.741 63.6552 132.051 63.6552 132.42C63.6552 132.737 63.569 133.021 63.3967 133.273C63.2262 133.523 62.9933 133.72 62.6978 133.864C62.4023 134.008 62.0662 134.08 61.6893 134.08ZM67.3285 130.778V131.403H64.783V130.778H67.3285ZM70.4286 134.08C70.19 134.076 69.9513 134.03 69.7127 133.943C69.4741 133.856 69.2563 133.709 69.0593 133.503C68.8623 133.295 68.7042 133.013 68.5849 132.659C68.4656 132.303 68.4059 131.856 68.4059 131.318C68.4059 130.803 68.4542 130.347 68.5508 129.949C68.6474 129.549 68.7875 129.213 68.9712 128.94C69.1549 128.666 69.3765 128.457 69.636 128.315C69.8974 128.173 70.1919 128.102 70.5195 128.102C70.8453 128.102 71.1351 128.168 71.3888 128.298C71.6445 128.427 71.8529 128.607 72.0138 128.838C72.1748 129.069 72.279 129.335 72.3263 129.636H71.6332C71.5688 129.375 71.4438 129.158 71.2582 128.986C71.0726 128.813 70.8263 128.727 70.5195 128.727C70.0688 128.727 69.7137 128.923 69.4542 129.315C69.1966 129.707 69.0669 130.258 69.065 130.966H69.1104C69.2165 130.805 69.3424 130.668 69.4883 130.554C69.636 130.438 69.7989 130.349 69.9769 130.287C70.1549 130.224 70.3434 130.193 70.5423 130.193C70.8756 130.193 71.1805 130.277 71.457 130.443C71.7335 130.608 71.9551 130.836 72.1218 131.128C72.2885 131.418 72.3718 131.75 72.3718 132.125C72.3718 132.485 72.2913 132.814 72.1303 133.114C71.9693 133.411 71.743 133.648 71.4513 133.824C71.1616 133.998 70.8207 134.083 70.4286 134.08ZM70.4286 133.455C70.6673 133.455 70.8813 133.395 71.0707 133.276C71.262 133.156 71.4125 132.996 71.5224 132.795C71.6341 132.595 71.69 132.371 71.69 132.125C71.69 131.884 71.636 131.666 71.5281 131.469C71.422 131.27 71.2752 131.112 71.0877 130.994C70.9021 130.877 70.69 130.818 70.4513 130.818C70.2714 130.818 70.1038 130.854 69.9485 130.926C69.7932 130.996 69.6568 131.093 69.5394 131.216C69.4239 131.339 69.333 131.48 69.2667 131.639C69.2004 131.796 69.1673 131.962 69.1673 132.136C69.1673 132.367 69.2212 132.583 69.3292 132.784C69.439 132.985 69.5887 133.147 69.7781 133.27C69.9693 133.393 70.1862 133.455 70.4286 133.455ZM75.3867 134.08C74.9587 134.08 74.5941 133.963 74.293 133.73C73.9918 133.495 73.7617 133.155 73.6026 132.71C73.4435 132.263 73.364 131.723 73.364 131.091C73.364 130.462 73.4435 129.925 73.6026 129.48C73.7636 129.033 73.9947 128.692 74.2958 128.457C74.5988 128.221 74.9625 128.102 75.3867 128.102C75.811 128.102 76.1737 128.221 76.4748 128.457C76.7778 128.692 77.0089 129.033 77.168 129.48C77.329 129.925 77.4094 130.462 77.4094 131.091C77.4094 131.723 77.3299 132.263 77.1708 132.71C77.0117 133.155 76.7816 133.495 76.4805 133.73C76.1793 133.963 75.8147 134.08 75.3867 134.08ZM75.3867 133.455C75.811 133.455 76.1405 133.25 76.3754 132.841C76.6102 132.432 76.7276 131.848 76.7276 131.091C76.7276 130.587 76.6737 130.158 76.5657 129.804C76.4596 129.45 76.3062 129.18 76.1055 128.994C75.9066 128.809 75.667 128.716 75.3867 128.716C74.9663 128.716 74.6377 128.923 74.4009 129.338C74.1642 129.751 74.0458 130.335 74.0458 131.091C74.0458 131.595 74.0988 132.023 74.2049 132.375C74.311 132.727 74.4634 132.995 74.6623 133.179C74.863 133.363 75.1045 133.455 75.3867 133.455ZM80.4208 134.08C80.1822 134.076 79.9435 134.03 79.7049 133.943C79.4663 133.856 79.2485 133.709 79.0515 133.503C78.8545 133.295 78.6964 133.013 78.5771 132.659C78.4577 132.303 78.3981 131.856 78.3981 131.318C78.3981 130.803 78.4464 130.347 78.543 129.949C78.6396 129.549 78.7797 129.213 78.9634 128.94C79.1471 128.666 79.3687 128.457 79.6282 128.315C79.8896 128.173 80.1841 128.102 80.5117 128.102C80.8375 128.102 81.1272 128.168 81.381 128.298C81.6367 128.427 81.8451 128.607 82.006 128.838C82.167 129.069 82.2712 129.335 82.3185 129.636H81.6254C81.561 129.375 81.436 129.158 81.2504 128.986C81.0647 128.813 80.8185 128.727 80.5117 128.727C80.061 128.727 79.7058 128.923 79.4464 129.315C79.1888 129.707 79.0591 130.258 79.0572 130.966H79.1026C79.2087 130.805 79.3346 130.668 79.4805 130.554C79.6282 130.438 79.7911 130.349 79.9691 130.287C80.1471 130.224 80.3356 130.193 80.5344 130.193C80.8678 130.193 81.1727 130.277 81.4492 130.443C81.7257 130.608 81.9473 130.836 82.114 131.128C82.2807 131.418 82.364 131.75 82.364 132.125C82.364 132.485 82.2835 132.814 82.1225 133.114C81.9615 133.411 81.7352 133.648 81.4435 133.824C81.1538 133.998 80.8129 134.083 80.4208 134.08ZM80.4208 133.455C80.6594 133.455 80.8735 133.395 81.0629 133.276C81.2541 133.156 81.4047 132.996 81.5146 132.795C81.6263 132.595 81.6822 132.371 81.6822 132.125C81.6822 131.884 81.6282 131.666 81.5202 131.469C81.4142 131.27 81.2674 131.112 81.0799 130.994C80.8943 130.877 80.6822 130.818 80.4435 130.818C80.2636 130.818 80.096 130.854 79.9407 130.926C79.7854 130.996 79.649 131.093 79.5316 131.216C79.4161 131.339 79.3252 131.48 79.2589 131.639C79.1926 131.796 79.1594 131.962 79.1594 132.136C79.1594 132.367 79.2134 132.583 79.3214 132.784C79.4312 132.985 79.5808 133.147 79.7702 133.27C79.9615 133.393 80.1784 133.455 80.4208 133.455Z" fill="black"/>
<rect x="67.5" y="178.5" width="66" height="39" stroke="black"/>
<path d="M124.5 176L124.5 183" stroke="black"/>
<g filter="url(#filter2_d_37_1169)">
<line x1="79.5" y1="176" x2="79.5" y2="183" stroke="black"/>
</g>
<path d="M92.119 202.08C91.744 202.08 91.4097 202.015 91.1161 201.886C90.8245 201.758 90.5924 201.579 90.4201 201.349C90.2496 201.118 90.1568 200.85 90.1417 200.545H90.8576C90.8728 200.733 90.9371 200.895 91.0508 201.031C91.1644 201.166 91.3131 201.27 91.4968 201.344C91.6805 201.418 91.8841 201.455 92.1076 201.455C92.3576 201.455 92.5792 201.411 92.7724 201.324C92.9656 201.237 93.1171 201.116 93.2269 200.96C93.3368 200.805 93.3917 200.625 93.3917 200.42C93.3917 200.206 93.3387 200.018 93.2326 199.855C93.1265 199.69 92.9712 199.562 92.7667 199.469C92.5621 199.376 92.3121 199.33 92.0167 199.33H91.5508V198.705H92.0167C92.2478 198.705 92.4504 198.663 92.6246 198.58C92.8008 198.496 92.9381 198.379 93.0366 198.227C93.137 198.076 93.1871 197.898 93.1871 197.693C93.1871 197.496 93.1436 197.325 93.0565 197.179C92.9693 197.033 92.8462 196.92 92.6871 196.838C92.5299 196.757 92.3443 196.716 92.1303 196.716C91.9296 196.716 91.7402 196.753 91.5621 196.827C91.386 196.899 91.2421 197.004 91.1303 197.142C91.0186 197.278 90.958 197.443 90.9485 197.636H90.2667C90.2781 197.331 90.3699 197.064 90.5423 196.835C90.7146 196.604 90.94 196.424 91.2184 196.295C91.4987 196.167 91.8065 196.102 92.1417 196.102C92.5015 196.102 92.8103 196.175 93.0678 196.321C93.3254 196.465 93.5233 196.655 93.6616 196.892C93.7998 197.129 93.869 197.384 93.869 197.659C93.869 197.987 93.7828 198.266 93.6104 198.497C93.44 198.728 93.208 198.888 92.9144 198.977V199.023C93.2818 199.083 93.5688 199.24 93.7752 199.491C93.9817 199.741 94.0849 200.051 94.0849 200.42C94.0849 200.737 93.9987 201.021 93.8263 201.273C93.6559 201.523 93.4229 201.72 93.1275 201.864C92.832 202.008 92.4959 202.08 92.119 202.08ZM97.7582 198.778V199.403H95.2127V198.778H97.7582ZM100.858 202.08C100.62 202.076 100.381 202.03 100.142 201.943C99.9038 201.856 99.686 201.709 99.489 201.503C99.292 201.295 99.1339 201.013 99.0146 200.659C98.8952 200.303 98.8356 199.856 98.8356 199.318C98.8356 198.803 98.8839 198.347 98.9805 197.949C99.0771 197.549 99.2172 197.213 99.4009 196.94C99.5846 196.666 99.8062 196.457 100.066 196.315C100.327 196.173 100.622 196.102 100.949 196.102C101.275 196.102 101.565 196.168 101.819 196.298C102.074 196.427 102.283 196.607 102.444 196.838C102.605 197.069 102.709 197.335 102.756 197.636H102.063C101.998 197.375 101.873 197.158 101.688 196.986C101.502 196.813 101.256 196.727 100.949 196.727C100.498 196.727 100.143 196.923 99.8839 197.315C99.6263 197.707 99.4966 198.258 99.4947 198.966H99.5401C99.6462 198.805 99.7721 198.668 99.918 198.554C100.066 198.438 100.229 198.349 100.407 198.287C100.585 198.224 100.773 198.193 100.972 198.193C101.305 198.193 101.61 198.277 101.887 198.443C102.163 198.608 102.385 198.836 102.551 199.128C102.718 199.418 102.801 199.75 102.801 200.125C102.801 200.485 102.721 200.814 102.56 201.114C102.399 201.411 102.173 201.648 101.881 201.824C101.591 201.998 101.25 202.083 100.858 202.08ZM100.858 201.455C101.097 201.455 101.311 201.395 101.5 201.276C101.692 201.156 101.842 200.996 101.952 200.795C102.064 200.595 102.12 200.371 102.12 200.125C102.12 199.884 102.066 199.666 101.958 199.469C101.852 199.27 101.705 199.112 101.517 198.994C101.332 198.877 101.12 198.818 100.881 198.818C100.701 198.818 100.533 198.854 100.378 198.926C100.223 198.996 100.087 199.093 99.9691 199.216C99.8536 199.339 99.7627 199.48 99.6964 199.639C99.6301 199.796 99.5969 199.962 99.5969 200.136C99.5969 200.367 99.6509 200.583 99.7589 200.784C99.8687 200.985 100.018 201.147 100.208 201.27C100.399 201.393 100.616 201.455 100.858 201.455ZM105.816 202.08C105.388 202.08 105.024 201.963 104.723 201.73C104.422 201.495 104.191 201.155 104.032 200.71C103.873 200.263 103.794 199.723 103.794 199.091C103.794 198.462 103.873 197.925 104.032 197.48C104.193 197.033 104.424 196.692 104.725 196.457C105.029 196.221 105.392 196.102 105.816 196.102C106.241 196.102 106.603 196.221 106.904 196.457C107.208 196.692 107.439 197.033 107.598 197.48C107.759 197.925 107.839 198.462 107.839 199.091C107.839 199.723 107.76 200.263 107.6 200.71C107.441 201.155 107.211 201.495 106.91 201.73C106.609 201.963 106.244 202.08 105.816 202.08ZM105.816 201.455C106.241 201.455 106.57 201.25 106.805 200.841C107.04 200.432 107.157 199.848 107.157 199.091C107.157 198.587 107.103 198.158 106.995 197.804C106.889 197.45 106.736 197.18 106.535 196.994C106.336 196.809 106.097 196.716 105.816 196.716C105.396 196.716 105.067 196.923 104.831 197.338C104.594 197.751 104.475 198.335 104.475 199.091C104.475 199.595 104.529 200.023 104.635 200.375C104.741 200.727 104.893 200.995 105.092 201.179C105.293 201.363 105.534 201.455 105.816 201.455ZM108.782 200.807V200.227L111.339 196.182H111.76V197.08H111.475L109.544 200.136V200.182H112.987V200.807H108.782ZM111.521 202V200.631V200.361V196.182H112.191V202H111.521Z" fill="black"/>
<rect x="133.5" y="178.5" width="66" height="39" stroke="black"/>
<path d="M190.5 176L190.5 183" stroke="black"/>
<g filter="url(#filter3_d_37_1169)">
<line x1="145.5" y1="176" x2="145.5" y2="183" stroke="black"/>
</g>
<path d="M158.138 202.08C157.763 202.08 157.429 202.015 157.136 201.886C156.844 201.758 156.612 201.579 156.44 201.349C156.269 201.118 156.176 200.85 156.161 200.545H156.877C156.892 200.733 156.957 200.895 157.07 201.031C157.184 201.166 157.333 201.27 157.516 201.344C157.7 201.418 157.904 201.455 158.127 201.455C158.377 201.455 158.599 201.411 158.792 201.324C158.985 201.237 159.137 201.116 159.246 200.96C159.356 200.805 159.411 200.625 159.411 200.42C159.411 200.206 159.358 200.018 159.252 199.855C159.146 199.69 158.991 199.562 158.786 199.469C158.582 199.376 158.332 199.33 158.036 199.33H157.57V198.705H158.036C158.267 198.705 158.47 198.663 158.644 198.58C158.82 198.496 158.958 198.379 159.056 198.227C159.156 198.076 159.207 197.898 159.207 197.693C159.207 197.496 159.163 197.325 159.076 197.179C158.989 197.033 158.866 196.92 158.707 196.838C158.549 196.757 158.364 196.716 158.15 196.716C157.949 196.716 157.76 196.753 157.582 196.827C157.406 196.899 157.262 197.004 157.15 197.142C157.038 197.278 156.978 197.443 156.968 197.636H156.286C156.298 197.331 156.389 197.064 156.562 196.835C156.734 196.604 156.96 196.424 157.238 196.295C157.518 196.167 157.826 196.102 158.161 196.102C158.521 196.102 158.83 196.175 159.087 196.321C159.345 196.465 159.543 196.655 159.681 196.892C159.819 197.129 159.888 197.384 159.888 197.659C159.888 197.987 159.802 198.266 159.63 198.497C159.46 198.728 159.228 198.888 158.934 198.977V199.023C159.301 199.083 159.588 199.24 159.795 199.491C160.001 199.741 160.104 200.051 160.104 200.42C160.104 200.737 160.018 201.021 159.846 201.273C159.675 201.523 159.442 201.72 159.147 201.864C158.852 202.008 158.515 202.08 158.138 202.08ZM163.778 198.778V199.403H161.232V198.778H163.778ZM166.878 202.08C166.639 202.076 166.401 202.03 166.162 201.943C165.923 201.856 165.705 201.709 165.509 201.503C165.312 201.295 165.153 201.013 165.034 200.659C164.915 200.303 164.855 199.856 164.855 199.318C164.855 198.803 164.903 198.347 165 197.949C165.097 197.549 165.237 197.213 165.42 196.94C165.604 196.666 165.826 196.457 166.085 196.315C166.347 196.173 166.641 196.102 166.969 196.102C167.295 196.102 167.584 196.168 167.838 196.298C168.094 196.427 168.302 196.607 168.463 196.838C168.624 197.069 168.728 197.335 168.776 197.636H168.082C168.018 197.375 167.893 197.158 167.707 196.986C167.522 196.813 167.276 196.727 166.969 196.727C166.518 196.727 166.163 196.923 165.903 197.315C165.646 197.707 165.516 198.258 165.514 198.966H165.56C165.666 198.805 165.792 198.668 165.938 198.554C166.085 198.438 166.248 198.349 166.426 198.287C166.604 198.224 166.793 198.193 166.991 198.193C167.325 198.193 167.63 198.277 167.906 198.443C168.183 198.608 168.404 198.836 168.571 199.128C168.738 199.418 168.821 199.75 168.821 200.125C168.821 200.485 168.741 200.814 168.58 201.114C168.419 201.411 168.192 201.648 167.901 201.824C167.611 201.998 167.27 202.083 166.878 202.08ZM166.878 201.455C167.116 201.455 167.33 201.395 167.52 201.276C167.711 201.156 167.862 200.996 167.972 200.795C168.083 200.595 168.139 200.371 168.139 200.125C168.139 199.884 168.085 199.666 167.977 199.469C167.871 199.27 167.724 199.112 167.537 198.994C167.351 198.877 167.139 198.818 166.901 198.818C166.721 198.818 166.553 198.854 166.398 198.926C166.242 198.996 166.106 199.093 165.989 199.216C165.873 199.339 165.782 199.48 165.716 199.639C165.65 199.796 165.616 199.962 165.616 200.136C165.616 200.367 165.67 200.583 165.778 200.784C165.888 200.985 166.038 201.147 166.227 201.27C166.419 201.393 166.635 201.455 166.878 201.455ZM171.836 202.08C171.408 202.08 171.043 201.963 170.742 201.73C170.441 201.495 170.211 201.155 170.052 200.71C169.893 200.263 169.813 199.723 169.813 199.091C169.813 198.462 169.893 197.925 170.052 197.48C170.213 197.033 170.444 196.692 170.745 196.457C171.048 196.221 171.412 196.102 171.836 196.102C172.26 196.102 172.623 196.221 172.924 196.457C173.227 196.692 173.458 197.033 173.617 197.48C173.778 197.925 173.859 198.462 173.859 199.091C173.859 199.723 173.779 200.263 173.62 200.71C173.461 201.155 173.231 201.495 172.93 201.73C172.629 201.963 172.264 202.08 171.836 202.08ZM171.836 201.455C172.26 201.455 172.59 201.25 172.825 200.841C173.059 200.432 173.177 199.848 173.177 199.091C173.177 198.587 173.123 198.158 173.015 197.804C172.909 197.45 172.755 197.18 172.555 196.994C172.356 196.809 172.116 196.716 171.836 196.716C171.415 196.716 171.087 196.923 170.85 197.338C170.613 197.751 170.495 198.335 170.495 199.091C170.495 199.595 170.548 200.023 170.654 200.375C170.76 200.727 170.913 200.995 171.112 201.179C171.312 201.363 171.554 201.455 171.836 201.455ZM176.904 202.08C176.529 202.08 176.195 202.015 175.901 201.886C175.61 201.758 175.378 201.579 175.205 201.349C175.035 201.118 174.942 200.85 174.927 200.545H175.643C175.658 200.733 175.722 200.895 175.836 201.031C175.95 201.166 176.098 201.27 176.282 201.344C176.466 201.418 176.669 201.455 176.893 201.455C177.143 201.455 177.364 201.411 177.558 201.324C177.751 201.237 177.902 201.116 178.012 200.96C178.122 200.805 178.177 200.625 178.177 200.42C178.177 200.206 178.124 200.018 178.018 199.855C177.912 199.69 177.756 199.562 177.552 199.469C177.347 199.376 177.097 199.33 176.802 199.33H176.336V198.705H176.802C177.033 198.705 177.236 198.663 177.41 198.58C177.586 198.496 177.723 198.379 177.822 198.227C177.922 198.076 177.972 197.898 177.972 197.693C177.972 197.496 177.929 197.325 177.842 197.179C177.754 197.033 177.631 196.92 177.472 196.838C177.315 196.757 177.129 196.716 176.915 196.716C176.715 196.716 176.525 196.753 176.347 196.827C176.171 196.899 176.027 197.004 175.915 197.142C175.804 197.278 175.743 197.443 175.734 197.636H175.052C175.063 197.331 175.155 197.064 175.327 196.835C175.5 196.604 175.725 196.424 176.004 196.295C176.284 196.167 176.592 196.102 176.927 196.102C177.287 196.102 177.595 196.175 177.853 196.321C178.111 196.465 178.308 196.655 178.447 196.892C178.585 197.129 178.654 197.384 178.654 197.659C178.654 197.987 178.568 198.266 178.396 198.497C178.225 198.728 177.993 198.888 177.7 198.977V199.023C178.067 199.083 178.354 199.24 178.56 199.491C178.767 199.741 178.87 200.051 178.87 200.42C178.87 200.737 178.784 201.021 178.612 201.273C178.441 201.523 178.208 201.72 177.913 201.864C177.617 202.008 177.281 202.08 176.904 202.08Z" fill="black"/>
<rect x="199.5" y="178.5" width="66" height="39" stroke="black"/>
<path d="M256.5 176L256.5 183" stroke="black"/>
<g filter="url(#filter4_d_37_1169)">
<line x1="211.5" y1="176" x2="211.5" y2="183" stroke="black"/>
</g>
<path d="M224.263 202.08C223.888 202.08 223.554 202.015 223.261 201.886C222.969 201.758 222.737 201.579 222.565 201.349C222.394 201.118 222.301 200.85 222.286 200.545H223.002C223.017 200.733 223.082 200.895 223.195 201.031C223.309 201.166 223.458 201.27 223.641 201.344C223.825 201.418 224.029 201.455 224.252 201.455C224.502 201.455 224.724 201.411 224.917 201.324C225.11 201.237 225.262 201.116 225.371 200.96C225.481 200.805 225.536 200.625 225.536 200.42C225.536 200.206 225.483 200.018 225.377 199.855C225.271 199.69 225.116 199.562 224.911 199.469C224.707 199.376 224.457 199.33 224.161 199.33H223.695V198.705H224.161C224.392 198.705 224.595 198.663 224.769 198.58C224.945 198.496 225.083 198.379 225.181 198.227C225.281 198.076 225.332 197.898 225.332 197.693C225.332 197.496 225.288 197.325 225.201 197.179C225.114 197.033 224.991 196.92 224.832 196.838C224.674 196.757 224.489 196.716 224.275 196.716C224.074 196.716 223.885 196.753 223.707 196.827C223.531 196.899 223.387 197.004 223.275 197.142C223.163 197.278 223.103 197.443 223.093 197.636H222.411C222.423 197.331 222.514 197.064 222.687 196.835C222.859 196.604 223.085 196.424 223.363 196.295C223.643 196.167 223.951 196.102 224.286 196.102C224.646 196.102 224.955 196.175 225.212 196.321C225.47 196.465 225.668 196.655 225.806 196.892C225.944 197.129 226.013 197.384 226.013 197.659C226.013 197.987 225.927 198.266 225.755 198.497C225.585 198.728 225.353 198.888 225.059 198.977V199.023C225.426 199.083 225.713 199.24 225.92 199.491C226.126 199.741 226.229 200.051 226.229 200.42C226.229 200.737 226.143 201.021 225.971 201.273C225.8 201.523 225.567 201.72 225.272 201.864C224.977 202.008 224.64 202.08 224.263 202.08ZM229.903 198.778V199.403H227.357V198.778H229.903ZM233.003 202.08C232.764 202.076 232.526 202.03 232.287 201.943C232.048 201.856 231.83 201.709 231.634 201.503C231.437 201.295 231.278 201.013 231.159 200.659C231.04 200.303 230.98 199.856 230.98 199.318C230.98 198.803 231.028 198.347 231.125 197.949C231.222 197.549 231.362 197.213 231.545 196.94C231.729 196.666 231.951 196.457 232.21 196.315C232.472 196.173 232.766 196.102 233.094 196.102C233.42 196.102 233.709 196.168 233.963 196.298C234.219 196.427 234.427 196.607 234.588 196.838C234.749 197.069 234.853 197.335 234.901 197.636H234.207C234.143 197.375 234.018 197.158 233.832 196.986C233.647 196.813 233.401 196.727 233.094 196.727C232.643 196.727 232.288 196.923 232.028 197.315C231.771 197.707 231.641 198.258 231.639 198.966H231.685C231.791 198.805 231.917 198.668 232.062 198.554C232.21 198.438 232.373 198.349 232.551 198.287C232.729 198.224 232.918 198.193 233.116 198.193C233.45 198.193 233.755 198.277 234.031 198.443C234.308 198.608 234.529 198.836 234.696 199.128C234.863 199.418 234.946 199.75 234.946 200.125C234.946 200.485 234.866 200.814 234.705 201.114C234.544 201.411 234.317 201.648 234.026 201.824C233.736 201.998 233.395 202.083 233.003 202.08ZM233.003 201.455C233.241 201.455 233.455 201.395 233.645 201.276C233.836 201.156 233.987 200.996 234.097 200.795C234.208 200.595 234.264 200.371 234.264 200.125C234.264 199.884 234.21 199.666 234.102 199.469C233.996 199.27 233.849 199.112 233.662 198.994C233.476 198.877 233.264 198.818 233.026 198.818C232.846 198.818 232.678 198.854 232.523 198.926C232.367 198.996 232.231 199.093 232.114 199.216C231.998 199.339 231.907 199.48 231.841 199.639C231.775 199.796 231.741 199.962 231.741 200.136C231.741 200.367 231.795 200.583 231.903 200.784C232.013 200.985 232.163 201.147 232.352 201.27C232.544 201.393 232.76 201.455 233.003 201.455ZM237.961 202.08C237.533 202.08 237.168 201.963 236.867 201.73C236.566 201.495 236.336 201.155 236.177 200.71C236.018 200.263 235.938 199.723 235.938 199.091C235.938 198.462 236.018 197.925 236.177 197.48C236.338 197.033 236.569 196.692 236.87 196.457C237.173 196.221 237.537 196.102 237.961 196.102C238.385 196.102 238.748 196.221 239.049 196.457C239.352 196.692 239.583 197.033 239.742 197.48C239.903 197.925 239.984 198.462 239.984 199.091C239.984 199.723 239.904 200.263 239.745 200.71C239.586 201.155 239.356 201.495 239.055 201.73C238.754 201.963 238.389 202.08 237.961 202.08ZM237.961 201.455C238.385 201.455 238.715 201.25 238.95 200.841C239.184 200.432 239.302 199.848 239.302 199.091C239.302 198.587 239.248 198.158 239.14 197.804C239.034 197.45 238.88 197.18 238.68 196.994C238.481 196.809 238.241 196.716 237.961 196.716C237.54 196.716 237.212 196.923 236.975 197.338C236.738 197.751 236.62 198.335 236.62 199.091C236.62 199.595 236.673 200.023 236.779 200.375C236.885 200.727 237.038 200.995 237.237 201.179C237.437 201.363 237.679 201.455 237.961 201.455ZM241.063 202V201.489L242.984 199.386C243.209 199.14 243.395 198.926 243.54 198.744C243.686 198.561 243.794 198.388 243.864 198.227C243.936 198.064 243.972 197.894 243.972 197.716C243.972 197.511 243.923 197.334 243.825 197.185C243.728 197.035 243.595 196.92 243.427 196.838C243.258 196.757 243.069 196.716 242.859 196.716C242.635 196.716 242.44 196.762 242.273 196.855C242.109 196.946 241.981 197.074 241.89 197.239C241.801 197.403 241.756 197.597 241.756 197.818H241.086C241.086 197.477 241.165 197.178 241.322 196.92C241.479 196.663 241.693 196.462 241.964 196.318C242.237 196.174 242.542 196.102 242.881 196.102C243.222 196.102 243.524 196.174 243.788 196.318C244.051 196.462 244.257 196.656 244.407 196.901C244.557 197.145 244.631 197.417 244.631 197.716C244.631 197.93 244.593 198.139 244.515 198.344C244.439 198.546 244.307 198.773 244.117 199.023C243.93 199.271 243.669 199.574 243.336 199.932L242.029 201.33V201.375H244.734V202H241.063Z" fill="black"/>
<rect x="265.5" y="178.5" width="66" height="39" stroke="black"/>
<path d="M322.5 176L322.5 183" stroke="black"/>
<g filter="url(#filter5_d_37_1169)">
<line x1="277.5" y1="176" x2="277.5" y2="183" stroke="black"/>
</g>
<path d="M290.826 202.08C290.451 202.08 290.117 202.015 289.823 201.886C289.531 201.758 289.299 201.579 289.127 201.349C288.957 201.118 288.864 200.85 288.849 200.545H289.565C289.58 200.733 289.644 200.895 289.758 201.031C289.871 201.166 290.02 201.27 290.204 201.344C290.388 201.418 290.591 201.455 290.815 201.455C291.065 201.455 291.286 201.411 291.479 201.324C291.673 201.237 291.824 201.116 291.934 200.96C292.044 200.805 292.099 200.625 292.099 200.42C292.099 200.206 292.046 200.018 291.94 199.855C291.834 199.69 291.678 199.562 291.474 199.469C291.269 199.376 291.019 199.33 290.724 199.33H290.258V198.705H290.724C290.955 198.705 291.157 198.663 291.332 198.58C291.508 198.496 291.645 198.379 291.744 198.227C291.844 198.076 291.894 197.898 291.894 197.693C291.894 197.496 291.851 197.325 291.763 197.179C291.676 197.033 291.553 196.92 291.394 196.838C291.237 196.757 291.051 196.716 290.837 196.716C290.637 196.716 290.447 196.753 290.269 196.827C290.093 196.899 289.949 197.004 289.837 197.142C289.726 197.278 289.665 197.443 289.656 197.636H288.974C288.985 197.331 289.077 197.064 289.249 196.835C289.422 196.604 289.647 196.424 289.925 196.295C290.206 196.167 290.513 196.102 290.849 196.102C291.209 196.102 291.517 196.175 291.775 196.321C292.032 196.465 292.23 196.655 292.369 196.892C292.507 197.129 292.576 197.384 292.576 197.659C292.576 197.987 292.49 198.266 292.317 198.497C292.147 198.728 291.915 198.888 291.621 198.977V199.023C291.989 199.083 292.276 199.24 292.482 199.491C292.689 199.741 292.792 200.051 292.792 200.42C292.792 200.737 292.706 201.021 292.533 201.273C292.363 201.523 292.13 201.72 291.835 201.864C291.539 202.008 291.203 202.08 290.826 202.08ZM296.465 198.778V199.403H293.92V198.778H296.465ZM299.565 202.08C299.327 202.076 299.088 202.03 298.849 201.943C298.611 201.856 298.393 201.709 298.196 201.503C297.999 201.295 297.841 201.013 297.722 200.659C297.602 200.303 297.543 199.856 297.543 199.318C297.543 198.803 297.591 198.347 297.688 197.949C297.784 197.549 297.924 197.213 298.108 196.94C298.292 196.666 298.513 196.457 298.773 196.315C299.034 196.173 299.329 196.102 299.656 196.102C299.982 196.102 300.272 196.168 300.526 196.298C300.781 196.427 300.99 196.607 301.151 196.838C301.312 197.069 301.416 197.335 301.463 197.636H300.77C300.705 197.375 300.58 197.158 300.395 196.986C300.209 196.813 299.963 196.727 299.656 196.727C299.205 196.727 298.85 196.923 298.591 197.315C298.333 197.707 298.204 198.258 298.202 198.966H298.247C298.353 198.805 298.479 198.668 298.625 198.554C298.773 198.438 298.936 198.349 299.114 198.287C299.292 198.224 299.48 198.193 299.679 198.193C300.012 198.193 300.317 198.277 300.594 198.443C300.87 198.608 301.092 198.836 301.259 199.128C301.425 199.418 301.509 199.75 301.509 200.125C301.509 200.485 301.428 200.814 301.267 201.114C301.106 201.411 300.88 201.648 300.588 201.824C300.298 201.998 299.957 202.083 299.565 202.08ZM299.565 201.455C299.804 201.455 300.018 201.395 300.207 201.276C300.399 201.156 300.549 200.996 300.659 200.795C300.771 200.595 300.827 200.371 300.827 200.125C300.827 199.884 300.773 199.666 300.665 199.469C300.559 199.27 300.412 199.112 300.224 198.994C300.039 198.877 299.827 198.818 299.588 198.818C299.408 198.818 299.241 198.854 299.085 198.926C298.93 198.996 298.794 199.093 298.676 199.216C298.561 199.339 298.47 199.48 298.403 199.639C298.337 199.796 298.304 199.962 298.304 200.136C298.304 200.367 298.358 200.583 298.466 200.784C298.576 200.985 298.725 201.147 298.915 201.27C299.106 201.393 299.323 201.455 299.565 201.455ZM304.523 202.08C304.095 202.08 303.731 201.963 303.43 201.73C303.129 201.495 302.898 201.155 302.739 200.71C302.58 200.263 302.501 199.723 302.501 199.091C302.501 198.462 302.58 197.925 302.739 197.48C302.9 197.033 303.131 196.692 303.433 196.457C303.736 196.221 304.099 196.102 304.523 196.102C304.948 196.102 305.31 196.221 305.612 196.457C305.915 196.692 306.146 197.033 306.305 197.48C306.466 197.925 306.546 198.462 306.546 199.091C306.546 199.723 306.467 200.263 306.308 200.71C306.148 201.155 305.918 201.495 305.617 201.73C305.316 201.963 304.951 202.08 304.523 202.08ZM304.523 201.455C304.948 201.455 305.277 201.25 305.512 200.841C305.747 200.432 305.864 199.848 305.864 199.091C305.864 198.587 305.81 198.158 305.702 197.804C305.596 197.45 305.443 197.18 305.242 196.994C305.043 196.809 304.804 196.716 304.523 196.716C304.103 196.716 303.774 196.923 303.538 197.338C303.301 197.751 303.183 198.335 303.183 199.091C303.183 199.595 303.236 200.023 303.342 200.375C303.448 200.727 303.6 200.995 303.799 201.179C304 201.363 304.241 201.455 304.523 201.455ZM309.671 196.182V202H308.967V196.92H308.933L307.512 197.864V197.148L308.967 196.182H309.671Z" fill="black"/>
<rect x="20.5" y="197.5" width="47" height="20" stroke="black"/>
<path d="M39.012 205.352H40.532V205.84H39.012V205.352ZM39.18 209.528H42.388V210.016H39.18V209.528ZM39.164 210.816H42.484V211.328H39.164V210.816ZM38.74 204.376H39.284V207.336H38.74V204.376ZM38.22 207.248C38.524 207.189 38.8867 207.112 39.308 207.016C39.7347 206.92 40.1667 206.821 40.604 206.72L40.652 207.184C40.2573 207.285 39.86 207.387 39.46 207.488C39.0653 207.589 38.7053 207.68 38.38 207.76L38.22 207.248ZM40.876 204.376H41.428V206.88C41.428 206.981 41.4413 207.048 41.468 207.08C41.5 207.107 41.572 207.12 41.684 207.12C41.716 207.12 41.7667 207.12 41.836 207.12C41.9053 207.12 41.9827 207.12 42.068 207.12C42.1533 207.12 42.2307 207.12 42.3 207.12C42.3747 207.12 42.4307 207.12 42.468 207.12C42.5373 207.12 42.588 207.104 42.62 207.072C42.652 207.035 42.6733 206.96 42.684 206.848C42.7 206.736 42.7107 206.573 42.716 206.36C42.78 206.408 42.86 206.453 42.956 206.496C43.052 206.533 43.14 206.56 43.22 206.576C43.204 206.853 43.172 207.069 43.124 207.224C43.076 207.379 43.004 207.485 42.908 207.544C42.8173 207.603 42.6893 207.632 42.524 207.632C42.4973 207.632 42.4413 207.632 42.356 207.632C42.2707 207.632 42.1747 207.632 42.068 207.632C41.9667 207.632 41.8733 207.632 41.788 207.632C41.708 207.632 41.652 207.632 41.62 207.632C41.4227 207.632 41.268 207.611 41.156 207.568C41.0493 207.525 40.9747 207.451 40.932 207.344C40.8947 207.232 40.876 207.077 40.876 206.88V204.376ZM42.628 204.88L43.052 205.28C42.8067 205.435 42.5213 205.584 42.196 205.728C41.876 205.867 41.5667 205.992 41.268 206.104C41.2573 206.045 41.2333 205.979 41.196 205.904C41.1587 205.829 41.124 205.763 41.092 205.704C41.2787 205.624 41.468 205.539 41.66 205.448C41.852 205.357 42.0307 205.264 42.196 205.168C42.3667 205.067 42.5107 204.971 42.628 204.88ZM40.332 207.456L40.94 207.584C40.8707 207.765 40.7987 207.947 40.724 208.128C40.6547 208.309 40.588 208.467 40.524 208.6L40.004 208.472C40.0627 208.333 40.124 208.168 40.188 207.976C40.2573 207.779 40.3053 207.605 40.332 207.456ZM38.884 208.264H42.772V211.592H42.188V208.776H39.444V211.624H38.884V208.264ZM36.164 204.624H37.956V205.168H36.7V211.64H36.164V204.624ZM37.772 204.624H37.876L37.964 204.592L38.356 204.832C38.2867 205.051 38.2093 205.283 38.124 205.528C38.044 205.768 37.9587 206.011 37.868 206.256C37.7827 206.501 37.6973 206.733 37.612 206.952C37.884 207.283 38.0627 207.592 38.148 207.88C38.2333 208.168 38.276 208.435 38.276 208.68C38.2813 208.888 38.26 209.075 38.212 209.24C38.164 209.4 38.084 209.52 37.972 209.6C37.924 209.637 37.8653 209.667 37.796 209.688C37.732 209.709 37.66 209.728 37.58 209.744C37.5053 209.749 37.4227 209.755 37.332 209.76C37.2467 209.76 37.1613 209.757 37.076 209.752C37.0707 209.677 37.0547 209.592 37.028 209.496C37.0067 209.395 36.9747 209.304 36.932 209.224C37.0173 209.229 37.0947 209.235 37.164 209.24C37.2333 209.24 37.2947 209.237 37.348 209.232C37.4547 209.232 37.5373 209.211 37.596 209.168C37.6493 209.125 37.6867 209.053 37.708 208.952C37.7347 208.845 37.748 208.733 37.748 208.616C37.7427 208.397 37.6973 208.155 37.612 207.888C37.5267 207.621 37.3507 207.331 37.084 207.016C37.148 206.835 37.212 206.643 37.276 206.44C37.3453 206.237 37.4093 206.035 37.468 205.832C37.532 205.629 37.588 205.44 37.636 205.264C37.6893 205.083 37.7347 204.923 37.772 204.784V204.624ZM47.252 207.832H50.34V208.376H47.252V207.832ZM44.708 206.36H46.844V206.92H44.708V206.36ZM44.708 207.896H46.916V208.456H44.708V207.896ZM47.988 204.616H49.86V205.144H47.988V204.616ZM50.22 207.832H50.332L50.444 207.808L50.828 207.96C50.6307 208.643 50.34 209.229 49.956 209.72C49.5773 210.205 49.132 210.605 48.62 210.92C48.108 211.235 47.556 211.48 46.964 211.656C46.9427 211.603 46.9133 211.541 46.876 211.472C46.8387 211.408 46.7987 211.344 46.756 211.28C46.7133 211.221 46.6733 211.171 46.636 211.128C47.18 210.989 47.692 210.779 48.172 210.496C48.6573 210.213 49.0787 209.859 49.436 209.432C49.7933 209.005 50.0547 208.507 50.22 207.936V207.832ZM48.108 208.344C48.364 209.027 48.7587 209.608 49.292 210.088C49.8307 210.563 50.4813 210.901 51.244 211.104C51.2013 211.147 51.1533 211.197 51.1 211.256C51.052 211.32 51.0067 211.384 50.964 211.448C50.9213 211.517 50.884 211.579 50.852 211.632C50.0573 211.387 49.3853 210.997 48.836 210.464C48.292 209.925 47.8733 209.269 47.58 208.496L48.108 208.344ZM44.428 204.888L45.004 205.072V211.632H44.428V204.888ZM43.772 209.872C44.0493 209.829 44.3693 209.779 44.732 209.72C45.1 209.661 45.4893 209.597 45.9 209.528C46.3107 209.459 46.7187 209.389 47.124 209.32L47.148 209.872C46.764 209.941 46.3747 210.013 45.98 210.088C45.5853 210.157 45.2093 210.224 44.852 210.288C44.4947 210.352 44.1693 210.411 43.876 210.464L43.772 209.872ZM47.708 204.616H48.268V205.768C48.268 205.981 48.244 206.208 48.196 206.448C48.148 206.688 48.0547 206.917 47.916 207.136C47.7773 207.355 47.572 207.549 47.3 207.72C47.2733 207.677 47.236 207.629 47.188 207.576C47.14 207.523 47.0867 207.472 47.028 207.424C46.9747 207.371 46.9267 207.333 46.884 207.312C47.1293 207.163 47.3107 207.003 47.428 206.832C47.5453 206.656 47.62 206.477 47.652 206.296C47.6893 206.109 47.708 205.928 47.708 205.752V204.616ZM46.66 204.288L47.172 204.712C46.9533 204.819 46.708 204.92 46.436 205.016C46.164 205.112 45.884 205.2 45.596 205.28C45.308 205.36 45.028 205.432 44.756 205.496C44.74 205.432 44.7107 205.355 44.668 205.264C44.6307 205.173 44.5933 205.099 44.556 205.04C44.812 204.976 45.0707 204.904 45.332 204.824C45.5933 204.739 45.8387 204.651 46.068 204.56C46.3027 204.469 46.5 204.379 46.66 204.288ZM49.532 204.616H50.1V206.592C50.1 206.667 50.1027 206.728 50.108 206.776C50.1133 206.819 50.124 206.848 50.14 206.864C50.1667 206.88 50.2093 206.888 50.268 206.888C50.2947 206.888 50.3293 206.888 50.372 206.888C50.42 206.888 50.4627 206.888 50.5 206.888C50.532 206.888 50.564 206.885 50.596 206.88C50.628 206.875 50.652 206.869 50.668 206.864C50.7053 206.843 50.7347 206.781 50.756 206.68C50.7613 206.621 50.7667 206.533 50.772 206.416C50.7773 206.293 50.7827 206.152 50.788 205.992C50.8413 206.04 50.9107 206.085 50.996 206.128C51.0867 206.171 51.172 206.205 51.252 206.232C51.2413 206.387 51.228 206.544 51.212 206.704C51.2013 206.859 51.1853 206.968 51.164 207.032C51.1213 207.16 51.0413 207.251 50.924 207.304C50.8813 207.331 50.8227 207.349 50.748 207.36C50.6787 207.371 50.612 207.376 50.548 207.376C50.4947 207.376 50.4227 207.376 50.332 207.376C50.2467 207.376 50.1827 207.376 50.14 207.376C50.0653 207.376 49.9853 207.365 49.9 207.344C49.8147 207.323 49.7453 207.288 49.692 207.24C49.6333 207.187 49.5907 207.117 49.564 207.032C49.5427 206.941 49.532 206.781 49.532 206.552V204.616Z" fill="black"/>
<rect x="331.5" y="197.5" width="47" height="20" stroke="black"/>
<path d="M350.012 205.352H351.532V205.84H350.012V205.352ZM350.18 209.528H353.388V210.016H350.18V209.528ZM350.164 210.816H353.484V211.328H350.164V210.816ZM349.74 204.376H350.284V207.336H349.74V204.376ZM349.22 207.248C349.524 207.189 349.887 207.112 350.308 207.016C350.735 206.92 351.167 206.821 351.604 206.72L351.652 207.184C351.257 207.285 350.86 207.387 350.46 207.488C350.065 207.589 349.705 207.68 349.38 207.76L349.22 207.248ZM351.876 204.376H352.428V206.88C352.428 206.981 352.441 207.048 352.468 207.08C352.5 207.107 352.572 207.12 352.684 207.12C352.716 207.12 352.767 207.12 352.836 207.12C352.905 207.12 352.983 207.12 353.068 207.12C353.153 207.12 353.231 207.12 353.3 207.12C353.375 207.12 353.431 207.12 353.468 207.12C353.537 207.12 353.588 207.104 353.62 207.072C353.652 207.035 353.673 206.96 353.684 206.848C353.7 206.736 353.711 206.573 353.716 206.36C353.78 206.408 353.86 206.453 353.956 206.496C354.052 206.533 354.14 206.56 354.22 206.576C354.204 206.853 354.172 207.069 354.124 207.224C354.076 207.379 354.004 207.485 353.908 207.544C353.817 207.603 353.689 207.632 353.524 207.632C353.497 207.632 353.441 207.632 353.356 207.632C353.271 207.632 353.175 207.632 353.068 207.632C352.967 207.632 352.873 207.632 352.788 207.632C352.708 207.632 352.652 207.632 352.62 207.632C352.423 207.632 352.268 207.611 352.156 207.568C352.049 207.525 351.975 207.451 351.932 207.344C351.895 207.232 351.876 207.077 351.876 206.88V204.376ZM353.628 204.88L354.052 205.28C353.807 205.435 353.521 205.584 353.196 205.728C352.876 205.867 352.567 205.992 352.268 206.104C352.257 206.045 352.233 205.979 352.196 205.904C352.159 205.829 352.124 205.763 352.092 205.704C352.279 205.624 352.468 205.539 352.66 205.448C352.852 205.357 353.031 205.264 353.196 205.168C353.367 205.067 353.511 204.971 353.628 204.88ZM351.332 207.456L351.94 207.584C351.871 207.765 351.799 207.947 351.724 208.128C351.655 208.309 351.588 208.467 351.524 208.6L351.004 208.472C351.063 208.333 351.124 208.168 351.188 207.976C351.257 207.779 351.305 207.605 351.332 207.456ZM349.884 208.264H353.772V211.592H353.188V208.776H350.444V211.624H349.884V208.264ZM347.164 204.624H348.956V205.168H347.7V211.64H347.164V204.624ZM348.772 204.624H348.876L348.964 204.592L349.356 204.832C349.287 205.051 349.209 205.283 349.124 205.528C349.044 205.768 348.959 206.011 348.868 206.256C348.783 206.501 348.697 206.733 348.612 206.952C348.884 207.283 349.063 207.592 349.148 207.88C349.233 208.168 349.276 208.435 349.276 208.68C349.281 208.888 349.26 209.075 349.212 209.24C349.164 209.4 349.084 209.52 348.972 209.6C348.924 209.637 348.865 209.667 348.796 209.688C348.732 209.709 348.66 209.728 348.58 209.744C348.505 209.749 348.423 209.755 348.332 209.76C348.247 209.76 348.161 209.757 348.076 209.752C348.071 209.677 348.055 209.592 348.028 209.496C348.007 209.395 347.975 209.304 347.932 209.224C348.017 209.229 348.095 209.235 348.164 209.24C348.233 209.24 348.295 209.237 348.348 209.232C348.455 209.232 348.537 209.211 348.596 209.168C348.649 209.125 348.687 209.053 348.708 208.952C348.735 208.845 348.748 208.733 348.748 208.616C348.743 208.397 348.697 208.155 348.612 207.888C348.527 207.621 348.351 207.331 348.084 207.016C348.148 206.835 348.212 206.643 348.276 206.44C348.345 206.237 348.409 206.035 348.468 205.832C348.532 205.629 348.588 205.44 348.636 205.264C348.689 205.083 348.735 204.923 348.772 204.784V204.624ZM358.252 207.832H361.34V208.376H358.252V207.832ZM355.708 206.36H357.844V206.92H355.708V206.36ZM355.708 207.896H357.916V208.456H355.708V207.896ZM358.988 204.616H360.86V205.144H358.988V204.616ZM361.22 207.832H361.332L361.444 207.808L361.828 207.96C361.631 208.643 361.34 209.229 360.956 209.72C360.577 210.205 360.132 210.605 359.62 210.92C359.108 211.235 358.556 211.48 357.964 211.656C357.943 211.603 357.913 211.541 357.876 211.472C357.839 211.408 357.799 211.344 357.756 211.28C357.713 211.221 357.673 211.171 357.636 211.128C358.18 210.989 358.692 210.779 359.172 210.496C359.657 210.213 360.079 209.859 360.436 209.432C360.793 209.005 361.055 208.507 361.22 207.936V207.832ZM359.108 208.344C359.364 209.027 359.759 209.608 360.292 210.088C360.831 210.563 361.481 210.901 362.244 211.104C362.201 211.147 362.153 211.197 362.1 211.256C362.052 211.32 362.007 211.384 361.964 211.448C361.921 211.517 361.884 211.579 361.852 211.632C361.057 211.387 360.385 210.997 359.836 210.464C359.292 209.925 358.873 209.269 358.58 208.496L359.108 208.344ZM355.428 204.888L356.004 205.072V211.632H355.428V204.888ZM354.772 209.872C355.049 209.829 355.369 209.779 355.732 209.72C356.1 209.661 356.489 209.597 356.9 209.528C357.311 209.459 357.719 209.389 358.124 209.32L358.148 209.872C357.764 209.941 357.375 210.013 356.98 210.088C356.585 210.157 356.209 210.224 355.852 210.288C355.495 210.352 355.169 210.411 354.876 210.464L354.772 209.872ZM358.708 204.616H359.268V205.768C359.268 205.981 359.244 206.208 359.196 206.448C359.148 206.688 359.055 206.917 358.916 207.136C358.777 207.355 358.572 207.549 358.3 207.72C358.273 207.677 358.236 207.629 358.188 207.576C358.14 207.523 358.087 207.472 358.028 207.424C357.975 207.371 357.927 207.333 357.884 207.312C358.129 207.163 358.311 207.003 358.428 206.832C358.545 206.656 358.62 206.477 358.652 206.296C358.689 206.109 358.708 205.928 358.708 205.752V204.616ZM357.66 204.288L358.172 204.712C357.953 204.819 357.708 204.92 357.436 205.016C357.164 205.112 356.884 205.2 356.596 205.28C356.308 205.36 356.028 205.432 355.756 205.496C355.74 205.432 355.711 205.355 355.668 205.264C355.631 205.173 355.593 205.099 355.556 205.04C355.812 204.976 356.071 204.904 356.332 204.824C356.593 204.739 356.839 204.651 357.068 204.56C357.303 204.469 357.5 204.379 357.66 204.288ZM360.532 204.616H361.1V206.592C361.1 206.667 361.103 206.728 361.108 206.776C361.113 206.819 361.124 206.848 361.14 206.864C361.167 206.88 361.209 206.888 361.268 206.888C361.295 206.888 361.329 206.888 361.372 206.888C361.42 206.888 361.463 206.888 361.5 206.888C361.532 206.888 361.564 206.885 361.596 206.88C361.628 206.875 361.652 206.869 361.668 206.864C361.705 206.843 361.735 206.781 361.756 206.68C361.761 206.621 361.767 206.533 361.772 206.416C361.777 206.293 361.783 206.152 361.788 205.992C361.841 206.04 361.911 206.085 361.996 206.128C362.087 206.171 362.172 206.205 362.252 206.232C362.241 206.387 362.228 206.544 362.212 206.704C362.201 206.859 362.185 206.968 362.164 207.032C362.121 207.16 362.041 207.251 361.924 207.304C361.881 207.331 361.823 207.349 361.748 207.36C361.679 207.371 361.612 207.376 361.548 207.376C361.495 207.376 361.423 207.376 361.332 207.376C361.247 207.376 361.183 207.376 361.14 207.376C361.065 207.376 360.985 207.365 360.9 207.344C360.815 207.323 360.745 207.288 360.692 207.24C360.633 207.187 360.591 207.117 360.564 207.032C360.543 206.941 360.532 206.781 360.532 206.552V204.616Z" fill="black"/>
<rect x="20.5" y="178.5" width="25" height="19" stroke="black"/>
<path d="M29.1108 191V185.182H32.6222V185.807H29.8153V187.773H32.4403V188.398H29.8153V190.375H32.6676V191H29.1108ZM34.1307 185.182L35.858 190.08H35.9261L37.6534 185.182H38.392L36.2557 191H35.5284L33.392 185.182H34.1307Z" fill="black"/>
<rect x="353.5" y="178.5" width="25" height="19" stroke="black"/>
<path d="M362.111 191V185.182H365.622V185.807H362.815V187.773H365.44V188.398H362.815V190.375H365.668V191H362.111ZM367.131 185.182L368.858 190.08H368.926L370.653 185.182H371.392L369.256 191H368.528L366.392 185.182H367.131Z" fill="black"/>
</g>
<path d="M379 218V219H380V218H379ZM20 218H19V219H20V218ZM378 100V218H380V100H378ZM379 217H20V219H379V217ZM21 218V100H19V218H21Z" fill="black" mask="url(#path-3-inside-2_37_1169)"/>
<rect x="169.5" y="91.5" width="60" height="18" stroke="black"/>
<path d="M173.16 97.648C173.267 97.664 173.384 97.6773 173.512 97.688C173.645 97.6933 173.752 97.696 173.832 97.696H178.232C178.355 97.696 178.475 97.6907 178.592 97.68C178.709 97.6693 178.816 97.6587 178.912 97.648V98.352C178.811 98.3413 178.699 98.3333 178.576 98.328C178.459 98.3227 178.344 98.32 178.232 98.32H173.832C173.757 98.32 173.651 98.3227 173.512 98.328C173.379 98.3333 173.261 98.3413 173.16 98.352V97.648ZM175.632 102.344V98.048H176.312V102.344H175.632ZM172.672 101.952C172.789 101.968 172.907 101.981 173.024 101.992C173.147 101.997 173.264 102 173.376 102H178.664C178.787 102 178.901 101.995 179.008 101.984C179.12 101.973 179.227 101.963 179.328 101.952V102.68C179.221 102.669 179.104 102.661 178.976 102.656C178.848 102.651 178.744 102.648 178.664 102.648H173.376C173.269 102.648 173.155 102.651 173.032 102.656C172.915 102.661 172.795 102.669 172.672 102.68V101.952ZM186.4 97.648C186.373 97.68 186.339 97.7333 186.296 97.808C186.259 97.8773 186.227 97.9413 186.2 98C186.099 98.2613 185.965 98.552 185.8 98.872C185.635 99.1867 185.451 99.4987 185.248 99.808C185.045 100.117 184.832 100.397 184.608 100.648C184.315 100.979 183.992 101.301 183.64 101.616C183.288 101.925 182.917 102.216 182.528 102.488C182.139 102.755 181.733 102.984 181.312 103.176L180.8 102.64C181.232 102.469 181.645 102.259 182.04 102.008C182.44 101.752 182.813 101.475 183.16 101.176C183.512 100.872 183.824 100.568 184.096 100.264C184.277 100.056 184.456 99.824 184.632 99.568C184.813 99.3067 184.973 99.0427 185.112 98.776C185.256 98.504 185.36 98.2587 185.424 98.04C185.381 98.04 185.28 98.04 185.12 98.04C184.96 98.04 184.771 98.04 184.552 98.04C184.333 98.04 184.104 98.04 183.864 98.04C183.624 98.04 183.395 98.04 183.176 98.04C182.957 98.04 182.768 98.04 182.608 98.04C182.453 98.04 182.352 98.04 182.304 98.04C182.213 98.04 182.109 98.0427 181.992 98.048C181.88 98.0533 181.776 98.0587 181.68 98.064C181.589 98.0693 181.528 98.0747 181.496 98.08V97.352C181.533 97.3573 181.6 97.3653 181.696 97.376C181.797 97.3813 181.904 97.3867 182.016 97.392C182.128 97.3973 182.224 97.4 182.304 97.4C182.363 97.4 182.469 97.4 182.624 97.4C182.779 97.4 182.963 97.4 183.176 97.4C183.395 97.4 183.621 97.4 183.856 97.4C184.091 97.4 184.315 97.4 184.528 97.4C184.747 97.4 184.933 97.4 185.088 97.4C185.243 97.4 185.344 97.4 185.392 97.4C185.525 97.4 185.643 97.3947 185.744 97.384C185.851 97.3733 185.933 97.3573 185.992 97.336L186.4 97.648ZM184.712 100.224C184.931 100.405 185.155 100.605 185.384 100.824C185.619 101.043 185.848 101.269 186.072 101.504C186.296 101.733 186.504 101.955 186.696 102.168C186.888 102.376 187.053 102.565 187.192 102.736L186.632 103.216C186.445 102.96 186.221 102.685 185.96 102.392C185.699 102.093 185.421 101.797 185.128 101.504C184.84 101.205 184.549 100.931 184.256 100.68L184.712 100.224ZM192.064 96.704C192.053 96.7947 192.043 96.904 192.032 97.032C192.027 97.1547 192.021 97.264 192.016 97.36C191.995 98.176 191.923 98.8907 191.8 99.504C191.677 100.112 191.507 100.645 191.288 101.104C191.075 101.557 190.813 101.955 190.504 102.296C190.2 102.637 189.851 102.944 189.456 103.216L188.872 102.744C189 102.675 189.139 102.587 189.288 102.48C189.437 102.373 189.573 102.264 189.696 102.152C189.947 101.928 190.171 101.669 190.368 101.376C190.571 101.083 190.744 100.747 190.888 100.368C191.037 99.9893 191.152 99.5547 191.232 99.064C191.317 98.568 191.363 98.0027 191.368 97.368C191.368 97.3093 191.365 97.24 191.36 97.16C191.355 97.08 191.347 97 191.336 96.92C191.331 96.84 191.323 96.768 191.312 96.704H192.064ZM194.84 98.368C194.829 98.4373 194.819 98.5067 194.808 98.576C194.803 98.6453 194.8 98.7067 194.8 98.76C194.795 98.9093 194.784 99.1147 194.768 99.376C194.757 99.6373 194.739 99.9227 194.712 100.232C194.691 100.536 194.661 100.843 194.624 101.152C194.592 101.461 194.549 101.747 194.496 102.008C194.443 102.264 194.381 102.469 194.312 102.624C194.232 102.789 194.123 102.912 193.984 102.992C193.851 103.072 193.675 103.112 193.456 103.112C193.253 103.112 193.04 103.104 192.816 103.088C192.592 103.077 192.376 103.067 192.168 103.056L192.088 102.392C192.307 102.419 192.517 102.44 192.72 102.456C192.928 102.472 193.115 102.48 193.28 102.48C193.397 102.48 193.493 102.461 193.568 102.424C193.643 102.387 193.701 102.317 193.744 102.216C193.808 102.093 193.861 101.925 193.904 101.712C193.947 101.499 193.984 101.259 194.016 100.992C194.048 100.725 194.075 100.456 194.096 100.184C194.117 99.912 194.131 99.6533 194.136 99.408C194.147 99.1627 194.152 98.9547 194.152 98.784H189.936C189.776 98.784 189.619 98.7867 189.464 98.792C189.309 98.792 189.16 98.8 189.016 98.816V98.136C189.155 98.152 189.304 98.1653 189.464 98.176C189.624 98.1813 189.779 98.184 189.928 98.184H193.88C193.987 98.184 194.08 98.1813 194.16 98.176C194.245 98.1653 194.323 98.1547 194.392 98.144L194.84 98.368ZM197.776 102.744C197.808 102.68 197.829 102.619 197.84 102.56C197.851 102.501 197.856 102.432 197.856 102.352C197.856 102.272 197.856 102.123 197.856 101.904C197.856 101.685 197.856 101.424 197.856 101.12C197.856 100.816 197.856 100.499 197.856 100.168C197.856 99.832 197.856 99.5067 197.856 99.192C197.856 98.872 197.856 98.5893 197.856 98.344C197.856 98.0933 197.856 97.904 197.856 97.776C197.856 97.7067 197.851 97.624 197.84 97.528C197.835 97.432 197.827 97.3413 197.816 97.256C197.811 97.1707 197.8 97.1013 197.784 97.048H198.576C198.56 97.144 198.547 97.2613 198.536 97.4C198.525 97.5333 198.52 97.6587 198.52 97.776C198.52 97.8827 198.52 98.0373 198.52 98.24C198.52 98.4427 198.52 98.6747 198.52 98.936C198.52 99.192 198.52 99.464 198.52 99.752C198.52 100.04 198.52 100.323 198.52 100.6C198.52 100.877 198.52 101.136 198.52 101.376C198.52 101.611 198.52 101.811 198.52 101.976C198.52 102.141 198.52 102.253 198.52 102.312C198.904 102.216 199.299 102.08 199.704 101.904C200.115 101.728 200.515 101.523 200.904 101.288C201.299 101.048 201.667 100.787 202.008 100.504C202.355 100.216 202.651 99.9093 202.896 99.584L203.256 100.144C202.739 100.789 202.077 101.355 201.272 101.84C200.472 102.325 199.573 102.712 198.576 103C198.533 103.011 198.483 103.027 198.424 103.048C198.365 103.075 198.304 103.107 198.24 103.144L197.776 102.744ZM204.816 99.536C204.896 99.5413 204.995 99.5493 205.112 99.56C205.229 99.5653 205.357 99.5707 205.496 99.576C205.64 99.576 205.784 99.576 205.928 99.576C206.013 99.576 206.144 99.576 206.32 99.576C206.501 99.576 206.712 99.576 206.952 99.576C207.192 99.576 207.445 99.576 207.712 99.576C207.984 99.576 208.253 99.576 208.52 99.576C208.792 99.576 209.048 99.576 209.288 99.576C209.533 99.576 209.744 99.576 209.92 99.576C210.096 99.576 210.227 99.576 210.312 99.576C210.515 99.576 210.688 99.5707 210.832 99.56C210.976 99.5493 211.091 99.5413 211.176 99.536V100.32C211.096 100.315 210.976 100.307 210.816 100.296C210.661 100.285 210.496 100.28 210.32 100.28C210.235 100.28 210.101 100.28 209.92 100.28C209.739 100.28 209.528 100.28 209.288 100.28C209.053 100.28 208.8 100.28 208.528 100.28C208.256 100.28 207.984 100.28 207.712 100.28C207.445 100.28 207.192 100.28 206.952 100.28C206.717 100.28 206.509 100.28 206.328 100.28C206.147 100.28 206.013 100.28 205.928 100.28C205.709 100.28 205.501 100.285 205.304 100.296C205.107 100.301 204.944 100.309 204.816 100.32V99.536ZM215.32 99.336C215.576 99.4853 215.845 99.6507 216.128 99.832C216.411 100.013 216.691 100.203 216.968 100.4C217.251 100.592 217.52 100.781 217.776 100.968C218.032 101.155 218.259 101.331 218.456 101.496L217.984 102.048C217.803 101.883 217.584 101.701 217.328 101.504C217.077 101.301 216.811 101.099 216.528 100.896C216.245 100.688 215.963 100.488 215.68 100.296C215.397 100.104 215.133 99.9307 214.888 99.776L215.32 99.336ZM218.984 97.872C218.947 97.9307 218.912 98.0027 218.88 98.088C218.848 98.168 218.819 98.24 218.792 98.304C218.717 98.576 218.611 98.8693 218.472 99.184C218.333 99.4987 218.171 99.816 217.984 100.136C217.797 100.451 217.584 100.755 217.344 101.048C216.987 101.491 216.539 101.917 216 102.328C215.467 102.733 214.821 103.075 214.064 103.352L213.488 102.856C213.984 102.701 214.435 102.512 214.84 102.288C215.251 102.059 215.619 101.808 215.944 101.536C216.269 101.264 216.552 100.984 216.792 100.696C217 100.451 217.189 100.181 217.36 99.888C217.536 99.5947 217.688 99.304 217.816 99.016C217.944 98.7227 218.037 98.4507 218.096 98.2H215.128L215.384 97.632H217.928C218.035 97.632 218.133 97.6267 218.224 97.616C218.315 97.6 218.392 97.5787 218.456 97.552L218.984 97.872ZM216.288 96.72C216.219 96.8267 216.152 96.9387 216.088 97.056C216.024 97.1733 215.971 97.2693 215.928 97.344C215.768 97.6373 215.56 97.96 215.304 98.312C215.053 98.6587 214.757 99.0053 214.416 99.352C214.08 99.6987 213.699 100.021 213.272 100.32L212.736 99.904C213.195 99.6213 213.592 99.3093 213.928 98.968C214.264 98.6267 214.547 98.2933 214.776 97.968C215.005 97.6427 215.181 97.36 215.304 97.12C215.347 97.0507 215.395 96.9547 215.448 96.832C215.501 96.704 215.539 96.5893 215.56 96.488L216.288 96.72ZM220.816 99.536C220.896 99.5413 220.995 99.5493 221.112 99.56C221.229 99.5653 221.357 99.5707 221.496 99.576C221.64 99.576 221.784 99.576 221.928 99.576C222.013 99.576 222.144 99.576 222.32 99.576C222.501 99.576 222.712 99.576 222.952 99.576C223.192 99.576 223.445 99.576 223.712 99.576C223.984 99.576 224.253 99.576 224.52 99.576C224.792 99.576 225.048 99.576 225.288 99.576C225.533 99.576 225.744 99.576 225.92 99.576C226.096 99.576 226.227 99.576 226.312 99.576C226.515 99.576 226.688 99.5707 226.832 99.56C226.976 99.5493 227.091 99.5413 227.176 99.536V100.32C227.096 100.315 226.976 100.307 226.816 100.296C226.661 100.285 226.496 100.28 226.32 100.28C226.235 100.28 226.101 100.28 225.92 100.28C225.739 100.28 225.528 100.28 225.288 100.28C225.053 100.28 224.8 100.28 224.528 100.28C224.256 100.28 223.984 100.28 223.712 100.28C223.445 100.28 223.192 100.28 222.952 100.28C222.717 100.28 222.509 100.28 222.328 100.28C222.147 100.28 222.013 100.28 221.928 100.28C221.709 100.28 221.501 100.285 221.304 100.296C221.107 100.301 220.944 100.309 220.816 100.32V99.536Z" fill="black"/>
<defs>
<filter id="filter0_d_37_1169" x="362.5" y="155" width="9" height="22" filterUnits="userSpaceOnUse" color-interpolation-filters="sRGB">
<feFlood flood-opacity="0" result="BackgroundImageFix"/>
<feColorMatrix in="SourceAlpha" type="matrix" values="0 0 0 0 0 0 0 0 0 0 0 0 0 0 0 0 0 0 127 0" result="hardAlpha"/>
<feOffset dy="4"/>
<feGaussianBlur stdDeviation="2"/>
<feComposite in2="hardAlpha" operator="out"/>
<feColorMatrix type="matrix" values="0 0 0 0 0 0 0 0 0 0 0 0 0 0 0 0 0 0 0.25 0"/>
<feBlend mode="normal" in2="BackgroundImageFix" result="effect1_dropShadow_37_1169"/>
<feBlend mode="normal" in="SourceGraphic" in2="effect1_dropShadow_37_1169" result="shape"/>
</filter>
<filter id="filter1_d_37_1169" x="106.5" y="155" width="9" height="22" filterUnits="userSpaceOnUse" color-interpolation-filters="sRGB">
<feFlood flood-opacity="0" result="BackgroundImageFix"/>
<feColorMatrix in="SourceAlpha" type="matrix" values="0 0 0 0 0 0 0 0 0 0 0 0 0 0 0 0 0 0 127 0" result="hardAlpha"/>
<feOffset dy="4"/>
<feGaussianBlur stdDeviation="2"/>
<feComposite in2="hardAlpha" operator="out"/>
<feColorMatrix type="matrix" values="0 0 0 0 0 0 0 0 0 0 0 0 0 0 0 0 0 0 0.25 0"/>
<feBlend mode="normal" in2="BackgroundImageFix" result="effect1_dropShadow_37_1169"/>
<feBlend mode="normal" in="SourceGraphic" in2="effect1_dropShadow_37_1169" result="shape"/>
</filter>
<filter id="filter2_d_37_1169" x="75" y="176" width="9" height="15" filterUnits="userSpaceOnUse" color-interpolation-filters="sRGB">
<feFlood flood-opacity="0" result="BackgroundImageFix"/>
<feColorMatrix in="SourceAlpha" type="matrix" values="0 0 0 0 0 0 0 0 0 0 0 0 0 0 0 0 0 0 127 0" result="hardAlpha"/>
<feOffset dy="4"/>
<feGaussianBlur stdDeviation="2"/>
<feComposite in2="hardAlpha" operator="out"/>
<feColorMatrix type="matrix" values="0 0 0 0 0 0 0 0 0 0 0 0 0 0 0 0 0 0 0.25 0"/>
<feBlend mode="normal" in2="BackgroundImageFix" result="effect1_dropShadow_37_1169"/>
<feBlend mode="normal" in="SourceGraphic" in2="effect1_dropShadow_37_1169" result="shape"/>
</filter>
<filter id="filter3_d_37_1169" x="141" y="176" width="9" height="15" filterUnits="userSpaceOnUse" color-interpolation-filters="sRGB">
<feFlood flood-opacity="0" result="BackgroundImageFix"/>
<feColorMatrix in="SourceAlpha" type="matrix" values="0 0 0 0 0 0 0 0 0 0 0 0 0 0 0 0 0 0 127 0" result="hardAlpha"/>
<feOffset dy="4"/>
<feGaussianBlur stdDeviation="2"/>
<feComposite in2="hardAlpha" operator="out"/>
<feColorMatrix type="matrix" values="0 0 0 0 0 0 0 0 0 0 0 0 0 0 0 0 0 0 0.25 0"/>
<feBlend mode="normal" in2="BackgroundImageFix" result="effect1_dropShadow_37_1169"/>
<feBlend mode="normal" in="SourceGraphic" in2="effect1_dropShadow_37_1169" result="shape"/>
</filter>
<filter id="filter4_d_37_1169" x="207" y="176" width="9" height="15" filterUnits="userSpaceOnUse" color-interpolation-filters="sRGB">
<feFlood flood-opacity="0" result="BackgroundImageFix"/>
<feColorMatrix in="SourceAlpha" type="matrix" values="0 0 0 0 0 0 0 0 0 0 0 0 0 0 0 0 0 0 127 0" result="hardAlpha"/>
<feOffset dy="4"/>
<feGaussianBlur stdDeviation="2"/>
<feComposite in2="hardAlpha" operator="out"/>
<feColorMatrix type="matrix" values="0 0 0 0 0 0 0 0 0 0 0 0 0 0 0 0 0 0 0.25 0"/>
<feBlend mode="normal" in2="BackgroundImageFix" result="effect1_dropShadow_37_1169"/>
<feBlend mode="normal" in="SourceGraphic" in2="effect1_dropShadow_37_1169" result="shape"/>
</filter>
<filter id="filter5_d_37_1169" x="273" y="176" width="9" height="15" filterUnits="userSpaceOnUse" color-interpolation-filters="sRGB">
<feFlood flood-opacity="0" result="BackgroundImageFix"/>
<feColorMatrix in="SourceAlpha" type="matrix" values="0 0 0 0 0 0 0 0 0 0 0 0 0 0 0 0 0 0 127 0" result="hardAlpha"/>
<feOffset dy="4"/>
<feGaussianBlur stdDeviation="2"/>
<feComposite in2="hardAlpha" operator="out"/>
<feColorMatrix type="matrix" values="0 0 0 0 0 0 0 0 0 0 0 0 0 0 0 0 0 0 0.25 0"/>
<feBlend mode="normal" in2="BackgroundImageFix" result="effect1_dropShadow_37_1169"/>
<feBlend mode="normal" in="SourceGraphic" in2="effect1_dropShadow_37_1169" result="shape"/>
</filter>
<clipPath id="clip0_37_1169">
<path d="M20 100H379V218H20V100Z" fill="white"/>
</clipPath>
<clipPath id="clip1_37_1169">
<rect x="122" y="100" width="21" height="51" fill="white"/>
</clipPath>
<clipPath id="clip2_37_1169">
<rect x="256" y="100" width="21" height="51" fill="white"/>
</clipPath>
</defs>
</svg>
