<svg width="400" height="300" viewBox="0 0 400 300" fill="none" xmlns="http://www.w3.org/2000/svg">
<g id="floor5_image">
<rect width="400" height="300" fill="white"/>
<g id="5 floor">
<g id="escalator">
<mask id="path-1-inside-1_37_1214" fill="white">
<path d="M142 82H257V101H142V82Z"/>
</mask>
<path d="M142 82V81H141V82H142ZM257 82H258V81H257V82ZM142 83H257V81H142V83ZM256 82V101H258V82H256ZM143 101V82H141V101H143Z" fill="black" mask="url(#path-1-inside-1_37_1214)"/>
</g>
<g id="floor5 rooms">
<mask id="path-3-inside-2_37_1214" fill="white">
<path d="M20 100H379V218H20V100Z"/>
</mask>
<path d="M379 218V219H380V218H379ZM20 218H19V219H20V218ZM378 100V218H380V100H378ZM379 217H20V219H379V217ZM21 218V100H19V218H21Z" fill="black" mask="url(#path-3-inside-2_37_1214)"/>
<g id="WC">
<g clip-path="url(#clip0_37_1214)">
<path id="WC_2" d="M128.191 128L126.6 122.182H127.316L128.532 126.92H128.589L129.827 122.182H130.623L131.862 126.92H131.918L133.134 122.182H133.85L132.259 128H131.532L130.248 123.364H130.202L128.918 128H128.191ZM139.136 124H138.432C138.39 123.797 138.317 123.619 138.213 123.466C138.111 123.312 137.986 123.184 137.838 123.08C137.692 122.973 137.53 122.894 137.352 122.841C137.174 122.788 136.989 122.761 136.795 122.761C136.443 122.761 136.124 122.85 135.838 123.028C135.554 123.206 135.328 123.469 135.159 123.815C134.992 124.162 134.909 124.587 134.909 125.091C134.909 125.595 134.992 126.02 135.159 126.366C135.328 126.713 135.554 126.975 135.838 127.153C136.124 127.331 136.443 127.42 136.795 127.42C136.989 127.42 137.174 127.394 137.352 127.341C137.53 127.288 137.692 127.209 137.838 127.105C137.986 126.999 138.111 126.869 138.213 126.716C138.317 126.561 138.39 126.383 138.432 126.182H139.136C139.083 126.479 138.987 126.745 138.847 126.98C138.706 127.215 138.532 127.415 138.324 127.58C138.116 127.742 137.882 127.866 137.622 127.952C137.365 128.037 137.089 128.08 136.795 128.08C136.299 128.08 135.858 127.958 135.472 127.716C135.085 127.473 134.781 127.129 134.56 126.682C134.338 126.235 134.227 125.705 134.227 125.091C134.227 124.477 134.338 123.947 134.56 123.5C134.781 123.053 135.085 122.708 135.472 122.466C135.858 122.223 136.299 122.102 136.795 122.102C137.089 122.102 137.365 122.145 137.622 122.23C137.882 122.315 138.116 122.44 138.324 122.605C138.532 122.768 138.706 122.967 138.847 123.202C138.987 123.435 139.083 123.701 139.136 124Z" fill="black"/>
</g>
<rect x="122.5" y="100.5" width="20" height="50" stroke="black"/>
</g>
<g id="WC_3">
<g clip-path="url(#clip1_37_1214)">
<path id="WC_4" d="M262.191 128L260.6 122.182H261.316L262.532 126.92H262.589L263.827 122.182H264.623L265.862 126.92H265.918L267.134 122.182H267.85L266.259 128H265.532L264.248 123.364H264.202L262.918 128H262.191ZM273.136 124H272.432C272.39 123.797 272.317 123.619 272.213 123.466C272.111 123.312 271.986 123.184 271.838 123.08C271.692 122.973 271.53 122.894 271.352 122.841C271.174 122.788 270.989 122.761 270.795 122.761C270.443 122.761 270.124 122.85 269.838 123.028C269.554 123.206 269.328 123.469 269.159 123.815C268.992 124.162 268.909 124.587 268.909 125.091C268.909 125.595 268.992 126.02 269.159 126.366C269.328 126.713 269.554 126.975 269.838 127.153C270.124 127.331 270.443 127.42 270.795 127.42C270.989 127.42 271.174 127.394 271.352 127.341C271.53 127.288 271.692 127.209 271.838 127.105C271.986 126.999 272.111 126.869 272.213 126.716C272.317 126.561 272.39 126.383 272.432 126.182H273.136C273.083 126.479 272.987 126.745 272.847 126.98C272.706 127.215 272.532 127.415 272.324 127.58C272.116 127.742 271.882 127.866 271.622 127.952C271.365 128.037 271.089 128.08 270.795 128.08C270.299 128.08 269.858 127.958 269.472 127.716C269.085 127.473 268.781 127.129 268.56 126.682C268.338 126.235 268.227 125.705 268.227 125.091C268.227 124.477 268.338 123.947 268.56 123.5C268.781 123.053 269.085 122.708 269.472 122.466C269.858 122.223 270.299 122.102 270.795 122.102C271.089 122.102 271.365 122.145 271.622 122.23C271.882 122.315 272.116 122.44 272.324 122.605C272.532 122.768 272.706 122.967 272.847 123.202C272.987 123.435 273.083 123.701 273.136 124Z" fill="black"/>
</g>
<rect x="256.5" y="100.5" width="20" height="50" stroke="black"/>
</g>
<g id="&#229;&#144;&#185;&#227;&#129;&#141;&#230;&#138;&#156;&#227;&#129;&#145;">
<rect x="169.5" y="109.5" width="60" height="28" stroke="black"/>
</g>
<g id="3-505">
<rect x="276.5" y="100.5" width="102" height="61" stroke="black"/>
<path id="Line 4" d="M288 169V155" stroke="black"/>
<g id="Line 5" filter="url(#filter0_d_37_1214)">
<path d="M367 169V155" stroke="black"/>
</g>
<path id="room" d="M317.814 134.08C317.439 134.08 317.105 134.015 316.811 133.886C316.52 133.758 316.288 133.579 316.115 133.349C315.945 133.118 315.852 132.85 315.837 132.545H316.553C316.568 132.733 316.632 132.895 316.746 133.031C316.86 133.166 317.008 133.27 317.192 133.344C317.376 133.418 317.579 133.455 317.803 133.455C318.053 133.455 318.275 133.411 318.468 133.324C318.661 133.237 318.812 133.116 318.922 132.96C319.032 132.805 319.087 132.625 319.087 132.42C319.087 132.206 319.034 132.018 318.928 131.855C318.822 131.69 318.667 131.562 318.462 131.469C318.257 131.376 318.007 131.33 317.712 131.33H317.246V130.705H317.712C317.943 130.705 318.146 130.663 318.32 130.58C318.496 130.496 318.633 130.379 318.732 130.227C318.832 130.076 318.882 129.898 318.882 129.693C318.882 129.496 318.839 129.325 318.752 129.179C318.665 129.033 318.542 128.92 318.382 128.838C318.225 128.757 318.04 128.716 317.826 128.716C317.625 128.716 317.435 128.753 317.257 128.827C317.081 128.899 316.937 129.004 316.826 129.142C316.714 129.278 316.653 129.443 316.644 129.636H315.962C315.973 129.331 316.065 129.064 316.238 128.835C316.41 128.604 316.635 128.424 316.914 128.295C317.194 128.167 317.502 128.102 317.837 128.102C318.197 128.102 318.506 128.175 318.763 128.321C319.021 128.465 319.219 128.655 319.357 128.892C319.495 129.129 319.564 129.384 319.564 129.659C319.564 129.987 319.478 130.266 319.306 130.497C319.135 130.728 318.903 130.888 318.61 130.977V131.023C318.977 131.083 319.264 131.24 319.471 131.491C319.677 131.741 319.78 132.051 319.78 132.42C319.78 132.737 319.694 133.021 319.522 133.273C319.351 133.523 319.118 133.72 318.823 133.864C318.527 134.008 318.191 134.08 317.814 134.08ZM323.453 130.778V131.403H320.908V130.778H323.453ZM326.44 134.08C326.107 134.08 325.806 134.013 325.539 133.881C325.272 133.748 325.058 133.566 324.897 133.335C324.736 133.104 324.648 132.841 324.633 132.545H325.315C325.342 132.809 325.461 133.027 325.673 133.199C325.887 133.369 326.143 133.455 326.44 133.455C326.679 133.455 326.891 133.399 327.076 133.287C327.264 133.175 327.411 133.022 327.517 132.827C327.625 132.63 327.679 132.407 327.679 132.159C327.679 131.905 327.623 131.679 327.511 131.48C327.401 131.279 327.25 131.121 327.056 131.006C326.863 130.89 326.643 130.831 326.395 130.83C326.217 130.828 326.034 130.855 325.846 130.912C325.659 130.967 325.504 131.038 325.383 131.125L324.724 131.045L325.076 128.182H328.099V128.807H325.667L325.463 130.523H325.497C325.616 130.428 325.766 130.349 325.946 130.287C326.126 130.224 326.313 130.193 326.508 130.193C326.864 130.193 327.181 130.278 327.46 130.449C327.74 130.617 327.96 130.848 328.119 131.142C328.28 131.436 328.36 131.771 328.36 132.148C328.36 132.519 328.277 132.85 328.11 133.142C327.946 133.432 327.718 133.661 327.429 133.83C327.139 133.996 326.809 134.08 326.44 134.08ZM331.387 134.08C330.959 134.08 330.594 133.963 330.293 133.73C329.992 133.495 329.762 133.155 329.603 132.71C329.444 132.263 329.364 131.723 329.364 131.091C329.364 130.462 329.444 129.925 329.603 129.48C329.764 129.033 329.995 128.692 330.296 128.457C330.599 128.221 330.962 128.102 331.387 128.102C331.811 128.102 332.174 128.221 332.475 128.457C332.778 128.692 333.009 129.033 333.168 129.48C333.329 129.925 333.409 130.462 333.409 131.091C333.409 131.723 333.33 132.263 333.171 132.71C333.012 133.155 332.782 133.495 332.48 133.73C332.179 133.963 331.815 134.08 331.387 134.08ZM331.387 133.455C331.811 133.455 332.141 133.25 332.375 132.841C332.61 132.432 332.728 131.848 332.728 131.091C332.728 130.587 332.674 130.158 332.566 129.804C332.46 129.45 332.306 129.18 332.105 128.994C331.907 128.809 331.667 128.716 331.387 128.716C330.966 128.716 330.638 128.923 330.401 129.338C330.164 129.751 330.046 130.335 330.046 131.091C330.046 131.595 330.099 132.023 330.205 132.375C330.311 132.727 330.463 132.995 330.662 133.179C330.863 133.363 331.105 133.455 331.387 133.455ZM336.307 134.08C335.974 134.08 335.674 134.013 335.407 133.881C335.14 133.748 334.926 133.566 334.765 133.335C334.604 133.104 334.516 132.841 334.5 132.545H335.182C335.209 132.809 335.328 133.027 335.54 133.199C335.754 133.369 336.01 133.455 336.307 133.455C336.546 133.455 336.758 133.399 336.944 133.287C337.131 133.175 337.278 133.022 337.384 132.827C337.492 132.63 337.546 132.407 337.546 132.159C337.546 131.905 337.49 131.679 337.378 131.48C337.268 131.279 337.117 131.121 336.924 131.006C336.73 130.89 336.51 130.831 336.262 130.83C336.084 130.828 335.901 130.855 335.713 130.912C335.526 130.967 335.372 131.038 335.25 131.125L334.591 131.045L334.944 128.182H337.966V128.807H335.534L335.33 130.523H335.364C335.483 130.428 335.633 130.349 335.813 130.287C335.993 130.224 336.18 130.193 336.375 130.193C336.731 130.193 337.049 130.278 337.327 130.449C337.607 130.617 337.827 130.848 337.986 131.142C338.147 131.436 338.228 131.771 338.228 132.148C338.228 132.519 338.144 132.85 337.978 133.142C337.813 133.432 337.586 133.661 337.296 133.83C337.006 133.996 336.676 134.08 336.307 134.08Z" fill="black"/>
</g>
<g id="3-506">
<rect x="20.5" y="100.5" width="102" height="61" stroke="black"/>
<path id="Line 4_2" d="M32 169L32 155" stroke="black"/>
<g id="Line 5_2" filter="url(#filter1_d_37_1214)">
<path d="M111 169V155" stroke="black"/>
</g>
<path id="room_2" d="M61.7518 134.08C61.3768 134.08 61.0425 134.015 60.7489 133.886C60.4573 133.758 60.2253 133.579 60.0529 133.349C59.8825 133.118 59.7897 132.85 59.7745 132.545H60.4904C60.5056 132.733 60.57 132.895 60.6836 133.031C60.7972 133.166 60.9459 133.27 61.1296 133.344C61.3133 133.418 61.5169 133.455 61.7404 133.455C61.9904 133.455 62.212 133.411 62.4052 133.324C62.5984 133.237 62.7499 133.116 62.8597 132.96C62.9696 132.805 63.0245 132.625 63.0245 132.42C63.0245 132.206 62.9715 132.018 62.8654 131.855C62.7594 131.69 62.604 131.562 62.3995 131.469C62.195 131.376 61.945 131.33 61.6495 131.33H61.1836V130.705H61.6495C61.8806 130.705 62.0832 130.663 62.2575 130.58C62.4336 130.496 62.5709 130.379 62.6694 130.227C62.7698 130.076 62.82 129.898 62.82 129.693C62.82 129.496 62.7764 129.325 62.6893 129.179C62.6022 129.033 62.479 128.92 62.32 128.838C62.1628 128.757 61.9772 128.716 61.7631 128.716C61.5624 128.716 61.373 128.753 61.195 128.827C61.0188 128.899 60.8749 129.004 60.7631 129.142C60.6514 129.278 60.5908 129.443 60.5813 129.636H59.8995C59.9109 129.331 60.0027 129.064 60.1751 128.835C60.3474 128.604 60.5728 128.424 60.8512 128.295C61.1315 128.167 61.4393 128.102 61.7745 128.102C62.1344 128.102 62.4431 128.175 62.7006 128.321C62.9582 128.465 63.1561 128.655 63.2944 128.892C63.4326 129.129 63.5018 129.384 63.5018 129.659C63.5018 129.987 63.4156 130.266 63.2433 130.497C63.0728 130.728 62.8408 130.888 62.5472 130.977V131.023C62.9147 131.083 63.2016 131.24 63.408 131.491C63.6145 131.741 63.7177 132.051 63.7177 132.42C63.7177 132.737 63.6315 133.021 63.4592 133.273C63.2887 133.523 63.0558 133.72 62.7603 133.864C62.4648 134.008 62.1287 134.08 61.7518 134.08ZM67.391 130.778V131.403H64.8455V130.778H67.391ZM70.3775 134.08C70.0442 134.08 69.744 134.013 69.4769 133.881C69.2099 133.748 68.9959 133.566 68.8349 133.335C68.6739 133.104 68.5858 132.841 68.5707 132.545H69.2525C69.279 132.809 69.3983 133.027 69.6104 133.199C69.8245 133.369 70.0801 133.455 70.3775 133.455C70.6161 133.455 70.8282 133.399 71.0138 133.287C71.2013 133.175 71.3481 133.022 71.4542 132.827C71.5621 132.63 71.6161 132.407 71.6161 132.159C71.6161 131.905 71.5603 131.679 71.4485 131.48C71.3387 131.279 71.1871 131.121 70.994 131.006C70.8008 130.89 70.5801 130.831 70.332 130.83C70.154 130.828 69.9712 130.855 69.7837 130.912C69.5962 130.967 69.4419 131.038 69.3207 131.125L68.6616 131.045L69.0138 128.182H72.0366V128.807H69.6048L69.4002 130.523H69.4343C69.5536 130.428 69.7032 130.349 69.8832 130.287C70.0631 130.224 70.2506 130.193 70.4457 130.193C70.8017 130.193 71.119 130.278 71.3974 130.449C71.6777 130.617 71.8974 130.848 72.0565 131.142C72.2174 131.436 72.2979 131.771 72.2979 132.148C72.2979 132.519 72.2146 132.85 72.0479 133.142C71.8832 133.432 71.6559 133.661 71.3661 133.83C71.0763 133.996 70.7468 134.08 70.3775 134.08ZM75.3242 134.08C74.8962 134.08 74.5316 133.963 74.2305 133.73C73.9293 133.495 73.6992 133.155 73.5401 132.71C73.381 132.263 73.3015 131.723 73.3015 131.091C73.3015 130.462 73.381 129.925 73.5401 129.48C73.7011 129.033 73.9322 128.692 74.2333 128.457C74.5363 128.221 74.9 128.102 75.3242 128.102C75.7485 128.102 76.1112 128.221 76.4123 128.457C76.7153 128.692 76.9464 129.033 77.1055 129.48C77.2665 129.925 77.3469 130.462 77.3469 131.091C77.3469 131.723 77.2674 132.263 77.1083 132.71C76.9492 133.155 76.7191 133.495 76.418 133.73C76.1168 133.963 75.7522 134.08 75.3242 134.08ZM75.3242 133.455C75.7485 133.455 76.078 133.25 76.3129 132.841C76.5477 132.432 76.6651 131.848 76.6651 131.091C76.6651 130.587 76.6112 130.158 76.5032 129.804C76.3971 129.45 76.2437 129.18 76.043 128.994C75.8441 128.809 75.6045 128.716 75.3242 128.716C74.9038 128.716 74.5752 128.923 74.3384 129.338C74.1017 129.751 73.9833 130.335 73.9833 131.091C73.9833 131.595 74.0363 132.023 74.1424 132.375C74.2485 132.727 74.4009 132.995 74.5998 133.179C74.8005 133.363 75.042 133.455 75.3242 133.455ZM80.3583 134.08C80.1197 134.076 79.881 134.03 79.6424 133.943C79.4038 133.856 79.186 133.709 78.989 133.503C78.792 133.295 78.6339 133.013 78.5146 132.659C78.3952 132.303 78.3356 131.856 78.3356 131.318C78.3356 130.803 78.3839 130.347 78.4805 129.949C78.5771 129.549 78.7172 129.213 78.9009 128.94C79.0846 128.666 79.3062 128.457 79.5657 128.315C79.8271 128.173 80.1216 128.102 80.4492 128.102C80.775 128.102 81.0647 128.168 81.3185 128.298C81.5742 128.427 81.7826 128.607 81.9435 128.838C82.1045 129.069 82.2087 129.335 82.256 129.636H81.5629C81.4985 129.375 81.3735 129.158 81.1879 128.986C81.0022 128.813 80.756 128.727 80.4492 128.727C79.9985 128.727 79.6433 128.923 79.3839 129.315C79.1263 129.707 78.9966 130.258 78.9947 130.966H79.0401C79.1462 130.805 79.2721 130.668 79.418 130.554C79.5657 130.438 79.7286 130.349 79.9066 130.287C80.0846 130.224 80.2731 130.193 80.4719 130.193C80.8053 130.193 81.1102 130.277 81.3867 130.443C81.6632 130.608 81.8848 130.836 82.0515 131.128C82.2182 131.418 82.3015 131.75 82.3015 132.125C82.3015 132.485 82.221 132.814 82.06 133.114C81.899 133.411 81.6727 133.648 81.381 133.824C81.0913 133.998 80.7504 134.083 80.3583 134.08ZM80.3583 133.455C80.5969 133.455 80.811 133.395 81.0004 133.276C81.1916 133.156 81.3422 132.996 81.4521 132.795C81.5638 132.595 81.6197 132.371 81.6197 132.125C81.6197 131.884 81.5657 131.666 81.4577 131.469C81.3517 131.27 81.2049 131.112 81.0174 130.994C80.8318 130.877 80.6197 130.818 80.381 130.818C80.2011 130.818 80.0335 130.854 79.8782 130.926C79.7229 130.996 79.5865 131.093 79.4691 131.216C79.3536 131.339 79.2627 131.48 79.1964 131.639C79.1301 131.796 79.0969 131.962 79.0969 132.136C79.0969 132.367 79.1509 132.583 79.2589 132.784C79.3687 132.985 79.5183 133.147 79.7077 133.27C79.899 133.393 80.1159 133.455 80.3583 133.455Z" fill="black"/>
</g>
<g id="3-504">
<rect x="67.5" y="178.5" width="66" height="39" stroke="black"/>
<path id="Line 1" d="M124.5 176L124.5 183" stroke="black"/>
<g id="Line 3" filter="url(#filter2_d_37_1214)">
<line x1="79.5" y1="176" x2="79.5" y2="183" stroke="black"/>
</g>
<path id="room_3" d="M92.1815 202.08C91.8065 202.08 91.4722 202.015 91.1786 201.886C90.887 201.758 90.6549 201.579 90.4826 201.349C90.3121 201.118 90.2193 200.85 90.2042 200.545H90.9201C90.9353 200.733 90.9996 200.895 91.1133 201.031C91.2269 201.166 91.3756 201.27 91.5593 201.344C91.743 201.418 91.9466 201.455 92.1701 201.455C92.4201 201.455 92.6417 201.411 92.8349 201.324C93.0281 201.237 93.1796 201.116 93.2894 200.96C93.3993 200.805 93.4542 200.625 93.4542 200.42C93.4542 200.206 93.4012 200.018 93.2951 199.855C93.189 199.69 93.0337 199.562 92.8292 199.469C92.6246 199.376 92.3746 199.33 92.0792 199.33H91.6133V198.705H92.0792C92.3103 198.705 92.5129 198.663 92.6871 198.58C92.8633 198.496 93.0006 198.379 93.0991 198.227C93.1995 198.076 93.2496 197.898 93.2496 197.693C93.2496 197.496 93.2061 197.325 93.119 197.179C93.0318 197.033 92.9087 196.92 92.7496 196.838C92.5924 196.757 92.4068 196.716 92.1928 196.716C91.9921 196.716 91.8027 196.753 91.6246 196.827C91.4485 196.899 91.3046 197.004 91.1928 197.142C91.0811 197.278 91.0205 197.443 91.011 197.636H90.3292C90.3406 197.331 90.4324 197.064 90.6048 196.835C90.7771 196.604 91.0025 196.424 91.2809 196.295C91.5612 196.167 91.869 196.102 92.2042 196.102C92.564 196.102 92.8728 196.175 93.1303 196.321C93.3879 196.465 93.5858 196.655 93.7241 196.892C93.8623 197.129 93.9315 197.384 93.9315 197.659C93.9315 197.987 93.8453 198.266 93.6729 198.497C93.5025 198.728 93.2705 198.888 92.9769 198.977V199.023C93.3443 199.083 93.6313 199.24 93.8377 199.491C94.0442 199.741 94.1474 200.051 94.1474 200.42C94.1474 200.737 94.0612 201.021 93.8888 201.273C93.7184 201.523 93.4854 201.72 93.19 201.864C92.8945 202.008 92.5584 202.08 92.1815 202.08ZM97.8207 198.778V199.403H95.2752V198.778H97.8207ZM100.807 202.08C100.474 202.08 100.174 202.013 99.9066 201.881C99.6396 201.748 99.4255 201.566 99.2646 201.335C99.1036 201.104 99.0155 200.841 99.0004 200.545H99.6822C99.7087 200.809 99.828 201.027 100.04 201.199C100.254 201.369 100.51 201.455 100.807 201.455C101.046 201.455 101.258 201.399 101.444 201.287C101.631 201.175 101.778 201.022 101.884 200.827C101.992 200.63 102.046 200.407 102.046 200.159C102.046 199.905 101.99 199.679 101.878 199.48C101.768 199.279 101.617 199.121 101.424 199.006C101.23 198.89 101.01 198.831 100.762 198.83C100.584 198.828 100.401 198.855 100.213 198.912C100.026 198.967 99.8716 199.038 99.7504 199.125L99.0913 199.045L99.4435 196.182H102.466V196.807H100.034L99.8299 198.523H99.864C99.9833 198.428 100.133 198.349 100.313 198.287C100.493 198.224 100.68 198.193 100.875 198.193C101.231 198.193 101.549 198.278 101.827 198.449C102.107 198.617 102.327 198.848 102.486 199.142C102.647 199.436 102.728 199.771 102.728 200.148C102.728 200.519 102.644 200.85 102.478 201.142C102.313 201.432 102.086 201.661 101.796 201.83C101.506 201.996 101.176 202.08 100.807 202.08ZM105.754 202.08C105.326 202.08 104.961 201.963 104.66 201.73C104.359 201.495 104.129 201.155 103.97 200.71C103.811 200.263 103.731 199.723 103.731 199.091C103.731 198.462 103.811 197.925 103.97 197.48C104.131 197.033 104.362 196.692 104.663 196.457C104.966 196.221 105.33 196.102 105.754 196.102C106.178 196.102 106.541 196.221 106.842 196.457C107.145 196.692 107.376 197.033 107.535 197.48C107.696 197.925 107.777 198.462 107.777 199.091C107.777 199.723 107.697 200.263 107.538 200.71C107.379 201.155 107.149 201.495 106.848 201.73C106.547 201.963 106.182 202.08 105.754 202.08ZM105.754 201.455C106.178 201.455 106.508 201.25 106.743 200.841C106.977 200.432 107.095 199.848 107.095 199.091C107.095 198.587 107.041 198.158 106.933 197.804C106.827 197.45 106.673 197.18 106.473 196.994C106.274 196.809 106.034 196.716 105.754 196.716C105.333 196.716 105.005 196.923 104.768 197.338C104.531 197.751 104.413 198.335 104.413 199.091C104.413 199.595 104.466 200.023 104.572 200.375C104.678 200.727 104.831 200.995 105.029 201.179C105.23 201.363 105.472 201.455 105.754 201.455ZM108.72 200.807V200.227L111.277 196.182H111.697V197.08H111.413L109.481 200.136V200.182H112.924V200.807H108.72ZM111.458 202V200.631V200.361V196.182H112.129V202H111.458Z" fill="black"/>
</g>
<g id="3-503">
<rect x="133.5" y="178.5" width="66" height="39" stroke="black"/>
<path id="Line 1_2" d="M190.5 176L190.5 183" stroke="black"/>
<g id="Line 3_2" filter="url(#filter3_d_37_1214)">
<line x1="145.5" y1="176" x2="145.5" y2="183" stroke="black"/>
</g>
<path id="room_4" d="M158.201 202.08C157.826 202.08 157.492 202.015 157.198 201.886C156.906 201.758 156.674 201.579 156.502 201.349C156.332 201.118 156.239 200.85 156.224 200.545H156.94C156.955 200.733 157.019 200.895 157.133 201.031C157.246 201.166 157.395 201.27 157.579 201.344C157.763 201.418 157.966 201.455 158.19 201.455C158.44 201.455 158.661 201.411 158.854 201.324C159.048 201.237 159.199 201.116 159.309 200.96C159.419 200.805 159.474 200.625 159.474 200.42C159.474 200.206 159.421 200.018 159.315 199.855C159.209 199.69 159.053 199.562 158.849 199.469C158.644 199.376 158.394 199.33 158.099 199.33H157.633V198.705H158.099C158.33 198.705 158.532 198.663 158.707 198.58C158.883 198.496 159.02 198.379 159.119 198.227C159.219 198.076 159.269 197.898 159.269 197.693C159.269 197.496 159.226 197.325 159.138 197.179C159.051 197.033 158.928 196.92 158.769 196.838C158.612 196.757 158.426 196.716 158.212 196.716C158.012 196.716 157.822 196.753 157.644 196.827C157.468 196.899 157.324 197.004 157.212 197.142C157.101 197.278 157.04 197.443 157.031 197.636H156.349C156.36 197.331 156.452 197.064 156.624 196.835C156.797 196.604 157.022 196.424 157.3 196.295C157.581 196.167 157.888 196.102 158.224 196.102C158.584 196.102 158.892 196.175 159.15 196.321C159.407 196.465 159.605 196.655 159.744 196.892C159.882 197.129 159.951 197.384 159.951 197.659C159.951 197.987 159.865 198.266 159.692 198.497C159.522 198.728 159.29 198.888 158.996 198.977V199.023C159.364 199.083 159.651 199.24 159.857 199.491C160.064 199.741 160.167 200.051 160.167 200.42C160.167 200.737 160.081 201.021 159.908 201.273C159.738 201.523 159.505 201.72 159.21 201.864C158.914 202.008 158.578 202.08 158.201 202.08ZM163.84 198.778V199.403H161.295V198.778H163.84ZM166.827 202.08C166.493 202.08 166.193 202.013 165.926 201.881C165.659 201.748 165.445 201.566 165.284 201.335C165.123 201.104 165.035 200.841 165.02 200.545H165.702C165.728 200.809 165.848 201.027 166.06 201.199C166.274 201.369 166.529 201.455 166.827 201.455C167.065 201.455 167.277 201.399 167.463 201.287C167.651 201.175 167.797 201.022 167.903 200.827C168.011 200.63 168.065 200.407 168.065 200.159C168.065 199.905 168.009 199.679 167.898 199.48C167.788 199.279 167.636 199.121 167.443 199.006C167.25 198.89 167.029 198.831 166.781 198.83C166.603 198.828 166.42 198.855 166.233 198.912C166.045 198.967 165.891 199.038 165.77 199.125L165.111 199.045L165.463 196.182H168.486V196.807H166.054L165.849 198.523H165.884C166.003 198.428 166.152 198.349 166.332 198.287C166.512 198.224 166.7 198.193 166.895 198.193C167.251 198.193 167.568 198.278 167.847 198.449C168.127 198.617 168.347 198.848 168.506 199.142C168.667 199.436 168.747 199.771 168.747 200.148C168.747 200.519 168.664 200.85 168.497 201.142C168.332 201.432 168.105 201.661 167.815 201.83C167.526 201.996 167.196 202.08 166.827 202.08ZM171.773 202.08C171.345 202.08 170.981 201.963 170.68 201.73C170.379 201.495 170.148 201.155 169.989 200.71C169.83 200.263 169.751 199.723 169.751 199.091C169.751 198.462 169.83 197.925 169.989 197.48C170.15 197.033 170.381 196.692 170.683 196.457C170.986 196.221 171.349 196.102 171.773 196.102C172.198 196.102 172.56 196.221 172.862 196.457C173.165 196.692 173.396 197.033 173.555 197.48C173.716 197.925 173.796 198.462 173.796 199.091C173.796 199.723 173.717 200.263 173.558 200.71C173.398 201.155 173.168 201.495 172.867 201.73C172.566 201.963 172.201 202.08 171.773 202.08ZM171.773 201.455C172.198 201.455 172.527 201.25 172.762 200.841C172.997 200.432 173.114 199.848 173.114 199.091C173.114 198.587 173.06 198.158 172.952 197.804C172.846 197.45 172.693 197.18 172.492 196.994C172.293 196.809 172.054 196.716 171.773 196.716C171.353 196.716 171.024 196.923 170.788 197.338C170.551 197.751 170.433 198.335 170.433 199.091C170.433 199.595 170.486 200.023 170.592 200.375C170.698 200.727 170.85 200.995 171.049 201.179C171.25 201.363 171.491 201.455 171.773 201.455ZM176.842 202.08C176.467 202.08 176.132 202.015 175.839 201.886C175.547 201.758 175.315 201.579 175.143 201.349C174.972 201.118 174.879 200.85 174.864 200.545H175.58C175.595 200.733 175.66 200.895 175.773 201.031C175.887 201.166 176.036 201.27 176.219 201.344C176.403 201.418 176.607 201.455 176.83 201.455C177.08 201.455 177.302 201.411 177.495 201.324C177.688 201.237 177.84 201.116 177.95 200.96C178.059 200.805 178.114 200.625 178.114 200.42C178.114 200.206 178.061 200.018 177.955 199.855C177.849 199.69 177.694 199.562 177.489 199.469C177.285 199.376 177.035 199.33 176.739 199.33H176.273V198.705H176.739C176.97 198.705 177.173 198.663 177.347 198.58C177.523 198.496 177.661 198.379 177.759 198.227C177.86 198.076 177.91 197.898 177.91 197.693C177.91 197.496 177.866 197.325 177.779 197.179C177.692 197.033 177.569 196.92 177.41 196.838C177.253 196.757 177.067 196.716 176.853 196.716C176.652 196.716 176.463 196.753 176.285 196.827C176.109 196.899 175.965 197.004 175.853 197.142C175.741 197.278 175.681 197.443 175.671 197.636H174.989C175.001 197.331 175.093 197.064 175.265 196.835C175.437 196.604 175.663 196.424 175.941 196.295C176.221 196.167 176.529 196.102 176.864 196.102C177.224 196.102 177.533 196.175 177.79 196.321C178.048 196.465 178.246 196.655 178.384 196.892C178.522 197.129 178.592 197.384 178.592 197.659C178.592 197.987 178.505 198.266 178.333 198.497C178.163 198.728 177.931 198.888 177.637 198.977V199.023C178.004 199.083 178.291 199.24 178.498 199.491C178.704 199.741 178.808 200.051 178.808 200.42C178.808 200.737 178.721 201.021 178.549 201.273C178.379 201.523 178.146 201.72 177.85 201.864C177.555 202.008 177.219 202.08 176.842 202.08Z" fill="black"/>
</g>
<g id="3-502">
<rect x="199.5" y="178.5" width="66" height="39" stroke="black"/>
<path id="Line 1_3" d="M256.5 176L256.5 183" stroke="black"/>
<g id="Line 3_3" filter="url(#filter4_d_37_1214)">
<line x1="211.5" y1="176" x2="211.5" y2="183" stroke="black"/>
</g>
<path id="room_5" d="M224.326 202.08C223.951 202.08 223.617 202.015 223.323 201.886C223.031 201.758 222.799 201.579 222.627 201.349C222.457 201.118 222.364 200.85 222.349 200.545H223.065C223.08 200.733 223.144 200.895 223.258 201.031C223.371 201.166 223.52 201.27 223.704 201.344C223.888 201.418 224.091 201.455 224.315 201.455C224.565 201.455 224.786 201.411 224.979 201.324C225.173 201.237 225.324 201.116 225.434 200.96C225.544 200.805 225.599 200.625 225.599 200.42C225.599 200.206 225.546 200.018 225.44 199.855C225.334 199.69 225.178 199.562 224.974 199.469C224.769 199.376 224.519 199.33 224.224 199.33H223.758V198.705H224.224C224.455 198.705 224.657 198.663 224.832 198.58C225.008 198.496 225.145 198.379 225.244 198.227C225.344 198.076 225.394 197.898 225.394 197.693C225.394 197.496 225.351 197.325 225.263 197.179C225.176 197.033 225.053 196.92 224.894 196.838C224.737 196.757 224.551 196.716 224.337 196.716C224.137 196.716 223.947 196.753 223.769 196.827C223.593 196.899 223.449 197.004 223.337 197.142C223.226 197.278 223.165 197.443 223.156 197.636H222.474C222.485 197.331 222.577 197.064 222.749 196.835C222.922 196.604 223.147 196.424 223.425 196.295C223.706 196.167 224.013 196.102 224.349 196.102C224.709 196.102 225.017 196.175 225.275 196.321C225.532 196.465 225.73 196.655 225.869 196.892C226.007 197.129 226.076 197.384 226.076 197.659C226.076 197.987 225.99 198.266 225.817 198.497C225.647 198.728 225.415 198.888 225.121 198.977V199.023C225.489 199.083 225.776 199.24 225.982 199.491C226.189 199.741 226.292 200.051 226.292 200.42C226.292 200.737 226.206 201.021 226.033 201.273C225.863 201.523 225.63 201.72 225.335 201.864C225.039 202.008 224.703 202.08 224.326 202.08ZM229.965 198.778V199.403H227.42V198.778H229.965ZM232.952 202.08C232.618 202.08 232.318 202.013 232.051 201.881C231.784 201.748 231.57 201.566 231.409 201.335C231.248 201.104 231.16 200.841 231.145 200.545H231.827C231.853 200.809 231.973 201.027 232.185 201.199C232.399 201.369 232.654 201.455 232.952 201.455C233.19 201.455 233.402 201.399 233.588 201.287C233.776 201.175 233.922 201.022 234.028 200.827C234.136 200.63 234.19 200.407 234.19 200.159C234.19 199.905 234.134 199.679 234.023 199.48C233.913 199.279 233.761 199.121 233.568 199.006C233.375 198.89 233.154 198.831 232.906 198.83C232.728 198.828 232.545 198.855 232.358 198.912C232.17 198.967 232.016 199.038 231.895 199.125L231.236 199.045L231.588 196.182H234.611V196.807H232.179L231.974 198.523H232.009C232.128 198.428 232.277 198.349 232.457 198.287C232.637 198.224 232.825 198.193 233.02 198.193C233.376 198.193 233.693 198.278 233.972 198.449C234.252 198.617 234.472 198.848 234.631 199.142C234.792 199.436 234.872 199.771 234.872 200.148C234.872 200.519 234.789 200.85 234.622 201.142C234.457 201.432 234.23 201.661 233.94 201.83C233.651 201.996 233.321 202.08 232.952 202.08ZM237.898 202.08C237.47 202.08 237.106 201.963 236.805 201.73C236.504 201.495 236.273 201.155 236.114 200.71C235.955 200.263 235.876 199.723 235.876 199.091C235.876 198.462 235.955 197.925 236.114 197.48C236.275 197.033 236.506 196.692 236.808 196.457C237.111 196.221 237.474 196.102 237.898 196.102C238.323 196.102 238.685 196.221 238.987 196.457C239.29 196.692 239.521 197.033 239.68 197.48C239.841 197.925 239.921 198.462 239.921 199.091C239.921 199.723 239.842 200.263 239.683 200.71C239.523 201.155 239.293 201.495 238.992 201.73C238.691 201.963 238.326 202.08 237.898 202.08ZM237.898 201.455C238.323 201.455 238.652 201.25 238.887 200.841C239.122 200.432 239.239 199.848 239.239 199.091C239.239 198.587 239.185 198.158 239.077 197.804C238.971 197.45 238.818 197.18 238.617 196.994C238.418 196.809 238.179 196.716 237.898 196.716C237.478 196.716 237.149 196.923 236.913 197.338C236.676 197.751 236.558 198.335 236.558 199.091C236.558 199.595 236.611 200.023 236.717 200.375C236.823 200.727 236.975 200.995 237.174 201.179C237.375 201.363 237.616 201.455 237.898 201.455ZM241.001 202V201.489L242.921 199.386C243.147 199.14 243.332 198.926 243.478 198.744C243.624 198.561 243.732 198.388 243.802 198.227C243.874 198.064 243.91 197.894 243.91 197.716C243.91 197.511 243.861 197.334 243.762 197.185C243.665 197.035 243.533 196.92 243.364 196.838C243.196 196.757 243.006 196.716 242.796 196.716C242.573 196.716 242.378 196.762 242.211 196.855C242.046 196.946 241.918 197.074 241.827 197.239C241.738 197.403 241.694 197.597 241.694 197.818H241.023C241.023 197.477 241.102 197.178 241.259 196.92C241.416 196.663 241.63 196.462 241.901 196.318C242.174 196.174 242.48 196.102 242.819 196.102C243.16 196.102 243.462 196.174 243.725 196.318C243.988 196.462 244.195 196.656 244.344 196.901C244.494 197.145 244.569 197.417 244.569 197.716C244.569 197.93 244.53 198.139 244.452 198.344C244.377 198.546 244.244 198.773 244.055 199.023C243.867 199.271 243.607 199.574 243.273 199.932L241.967 201.33V201.375H244.671V202H241.001Z" fill="black"/>
</g>
<g id="3-501">
<rect x="265.5" y="178.5" width="66" height="39" stroke="black"/>
<path id="Line 1_4" d="M322.5 176L322.5 183" stroke="black"/>
<g id="Line 3_4" filter="url(#filter5_d_37_1214)">
<line x1="277.5" y1="176" x2="277.5" y2="183" stroke="black"/>
</g>
<path id="room_6" d="M290.888 202.08C290.513 202.08 290.179 202.015 289.886 201.886C289.594 201.758 289.362 201.579 289.19 201.349C289.019 201.118 288.926 200.85 288.911 200.545H289.627C289.642 200.733 289.707 200.895 289.82 201.031C289.934 201.166 290.083 201.27 290.266 201.344C290.45 201.418 290.654 201.455 290.877 201.455C291.127 201.455 291.349 201.411 291.542 201.324C291.735 201.237 291.887 201.116 291.996 200.96C292.106 200.805 292.161 200.625 292.161 200.42C292.161 200.206 292.108 200.018 292.002 199.855C291.896 199.69 291.741 199.562 291.536 199.469C291.332 199.376 291.082 199.33 290.786 199.33H290.32V198.705H290.786C291.017 198.705 291.22 198.663 291.394 198.58C291.57 198.496 291.708 198.379 291.806 198.227C291.906 198.076 291.957 197.898 291.957 197.693C291.957 197.496 291.913 197.325 291.826 197.179C291.739 197.033 291.616 196.92 291.457 196.838C291.299 196.757 291.114 196.716 290.9 196.716C290.699 196.716 290.51 196.753 290.332 196.827C290.156 196.899 290.012 197.004 289.9 197.142C289.788 197.278 289.728 197.443 289.718 197.636H289.036C289.048 197.331 289.139 197.064 289.312 196.835C289.484 196.604 289.71 196.424 289.988 196.295C290.268 196.167 290.576 196.102 290.911 196.102C291.271 196.102 291.58 196.175 291.837 196.321C292.095 196.465 292.293 196.655 292.431 196.892C292.569 197.129 292.638 197.384 292.638 197.659C292.638 197.987 292.552 198.266 292.38 198.497C292.21 198.728 291.978 198.888 291.684 198.977V199.023C292.051 199.083 292.338 199.24 292.545 199.491C292.751 199.741 292.854 200.051 292.854 200.42C292.854 200.737 292.768 201.021 292.596 201.273C292.425 201.523 292.192 201.72 291.897 201.864C291.602 202.008 291.265 202.08 290.888 202.08ZM296.528 198.778V199.403H293.982V198.778H296.528ZM299.514 202.08C299.181 202.08 298.881 202.013 298.614 201.881C298.347 201.748 298.133 201.566 297.972 201.335C297.811 201.104 297.723 200.841 297.707 200.545H298.389C298.416 200.809 298.535 201.027 298.747 201.199C298.961 201.369 299.217 201.455 299.514 201.455C299.753 201.455 299.965 201.399 300.151 201.287C300.338 201.175 300.485 201.022 300.591 200.827C300.699 200.63 300.753 200.407 300.753 200.159C300.753 199.905 300.697 199.679 300.585 199.48C300.475 199.279 300.324 199.121 300.131 199.006C299.938 198.89 299.717 198.831 299.469 198.83C299.291 198.828 299.108 198.855 298.92 198.912C298.733 198.967 298.579 199.038 298.457 199.125L297.798 199.045L298.151 196.182H301.173V196.807H298.741L298.537 198.523H298.571C298.69 198.428 298.84 198.349 299.02 198.287C299.2 198.224 299.387 198.193 299.582 198.193C299.938 198.193 300.256 198.278 300.534 198.449C300.814 198.617 301.034 198.848 301.193 199.142C301.354 199.436 301.435 199.771 301.435 200.148C301.435 200.519 301.351 200.85 301.185 201.142C301.02 201.432 300.793 201.661 300.503 201.83C300.213 201.996 299.884 202.08 299.514 202.08ZM304.461 202.08C304.033 202.08 303.668 201.963 303.367 201.73C303.066 201.495 302.836 201.155 302.677 200.71C302.518 200.263 302.438 199.723 302.438 199.091C302.438 198.462 302.518 197.925 302.677 197.48C302.838 197.033 303.069 196.692 303.37 196.457C303.673 196.221 304.037 196.102 304.461 196.102C304.885 196.102 305.248 196.221 305.549 196.457C305.852 196.692 306.083 197.033 306.242 197.48C306.403 197.925 306.484 198.462 306.484 199.091C306.484 199.723 306.404 200.263 306.245 200.71C306.086 201.155 305.856 201.495 305.555 201.73C305.254 201.963 304.889 202.08 304.461 202.08ZM304.461 201.455C304.885 201.455 305.215 201.25 305.45 200.841C305.684 200.432 305.802 199.848 305.802 199.091C305.802 198.587 305.748 198.158 305.64 197.804C305.534 197.45 305.38 197.18 305.18 196.994C304.981 196.809 304.741 196.716 304.461 196.716C304.04 196.716 303.712 196.923 303.475 197.338C303.238 197.751 303.12 198.335 303.12 199.091C303.12 199.595 303.173 200.023 303.279 200.375C303.385 200.727 303.538 200.995 303.737 201.179C303.937 201.363 304.179 201.455 304.461 201.455ZM309.609 196.182V202H308.904V196.92H308.87L307.45 197.864V197.148L308.904 196.182H309.609Z" fill="black"/>
</g>
<g id="stair">
<rect x="20.5" y="197.5" width="47" height="20" stroke="black"/>
<path id="&#233;&#154;&#142;&#230;&#174;&#181;" d="M39.012 205.352H40.532V205.84H39.012V205.352ZM39.18 209.528H42.388V210.016H39.18V209.528ZM39.164 210.816H42.484V211.328H39.164V210.816ZM38.74 204.376H39.284V207.336H38.74V204.376ZM38.22 207.248C38.524 207.189 38.8867 207.112 39.308 207.016C39.7347 206.92 40.1667 206.821 40.604 206.72L40.652 207.184C40.2573 207.285 39.86 207.387 39.46 207.488C39.0653 207.589 38.7053 207.68 38.38 207.76L38.22 207.248ZM40.876 204.376H41.428V206.88C41.428 206.981 41.4413 207.048 41.468 207.08C41.5 207.107 41.572 207.12 41.684 207.12C41.716 207.12 41.7667 207.12 41.836 207.12C41.9053 207.12 41.9827 207.12 42.068 207.12C42.1533 207.12 42.2307 207.12 42.3 207.12C42.3747 207.12 42.4307 207.12 42.468 207.12C42.5373 207.12 42.588 207.104 42.62 207.072C42.652 207.035 42.6733 206.96 42.684 206.848C42.7 206.736 42.7107 206.573 42.716 206.36C42.78 206.408 42.86 206.453 42.956 206.496C43.052 206.533 43.14 206.56 43.22 206.576C43.204 206.853 43.172 207.069 43.124 207.224C43.076 207.379 43.004 207.485 42.908 207.544C42.8173 207.603 42.6893 207.632 42.524 207.632C42.4973 207.632 42.4413 207.632 42.356 207.632C42.2707 207.632 42.1747 207.632 42.068 207.632C41.9667 207.632 41.8733 207.632 41.788 207.632C41.708 207.632 41.652 207.632 41.62 207.632C41.4227 207.632 41.268 207.611 41.156 207.568C41.0493 207.525 40.9747 207.451 40.932 207.344C40.8947 207.232 40.876 207.077 40.876 206.88V204.376ZM42.628 204.88L43.052 205.28C42.8067 205.435 42.5213 205.584 42.196 205.728C41.876 205.867 41.5667 205.992 41.268 206.104C41.2573 206.045 41.2333 205.979 41.196 205.904C41.1587 205.829 41.124 205.763 41.092 205.704C41.2787 205.624 41.468 205.539 41.66 205.448C41.852 205.357 42.0307 205.264 42.196 205.168C42.3667 205.067 42.5107 204.971 42.628 204.88ZM40.332 207.456L40.94 207.584C40.8707 207.765 40.7987 207.947 40.724 208.128C40.6547 208.309 40.588 208.467 40.524 208.6L40.004 208.472C40.0627 208.333 40.124 208.168 40.188 207.976C40.2573 207.779 40.3053 207.605 40.332 207.456ZM38.884 208.264H42.772V211.592H42.188V208.776H39.444V211.624H38.884V208.264ZM36.164 204.624H37.956V205.168H36.7V211.64H36.164V204.624ZM37.772 204.624H37.876L37.964 204.592L38.356 204.832C38.2867 205.051 38.2093 205.283 38.124 205.528C38.044 205.768 37.9587 206.011 37.868 206.256C37.7827 206.501 37.6973 206.733 37.612 206.952C37.884 207.283 38.0627 207.592 38.148 207.88C38.2333 208.168 38.276 208.435 38.276 208.68C38.2813 208.888 38.26 209.075 38.212 209.24C38.164 209.4 38.084 209.52 37.972 209.6C37.924 209.637 37.8653 209.667 37.796 209.688C37.732 209.709 37.66 209.728 37.58 209.744C37.5053 209.749 37.4227 209.755 37.332 209.76C37.2467 209.76 37.1613 209.757 37.076 209.752C37.0707 209.677 37.0547 209.592 37.028 209.496C37.0067 209.395 36.9747 209.304 36.932 209.224C37.0173 209.229 37.0947 209.235 37.164 209.24C37.2333 209.24 37.2947 209.237 37.348 209.232C37.4547 209.232 37.5373 209.211 37.596 209.168C37.6493 209.125 37.6867 209.053 37.708 208.952C37.7347 208.845 37.748 208.733 37.748 208.616C37.7427 208.397 37.6973 208.155 37.612 207.888C37.5267 207.621 37.3507 207.331 37.084 207.016C37.148 206.835 37.212 206.643 37.276 206.44C37.3453 206.237 37.4093 206.035 37.468 205.832C37.532 205.629 37.588 205.44 37.636 205.264C37.6893 205.083 37.7347 204.923 37.772 204.784V204.624ZM47.252 207.832H50.34V208.376H47.252V207.832ZM44.708 206.36H46.844V206.92H44.708V206.36ZM44.708 207.896H46.916V208.456H44.708V207.896ZM47.988 204.616H49.86V205.144H47.988V204.616ZM50.22 207.832H50.332L50.444 207.808L50.828 207.96C50.6307 208.643 50.34 209.229 49.956 209.72C49.5773 210.205 49.132 210.605 48.62 210.92C48.108 211.235 47.556 211.48 46.964 211.656C46.9427 211.603 46.9133 211.541 46.876 211.472C46.8387 211.408 46.7987 211.344 46.756 211.28C46.7133 211.221 46.6733 211.171 46.636 211.128C47.18 210.989 47.692 210.779 48.172 210.496C48.6573 210.213 49.0787 209.859 49.436 209.432C49.7933 209.005 50.0547 208.507 50.22 207.936V207.832ZM48.108 208.344C48.364 209.027 48.7587 209.608 49.292 210.088C49.8307 210.563 50.4813 210.901 51.244 211.104C51.2013 211.147 51.1533 211.197 51.1 211.256C51.052 211.32 51.0067 211.384 50.964 211.448C50.9213 211.517 50.884 211.579 50.852 211.632C50.0573 211.387 49.3853 210.997 48.836 210.464C48.292 209.925 47.8733 209.269 47.58 208.496L48.108 208.344ZM44.428 204.888L45.004 205.072V211.632H44.428V204.888ZM43.772 209.872C44.0493 209.829 44.3693 209.779 44.732 209.72C45.1 209.661 45.4893 209.597 45.9 209.528C46.3107 209.459 46.7187 209.389 47.124 209.32L47.148 209.872C46.764 209.941 46.3747 210.013 45.98 210.088C45.5853 210.157 45.2093 210.224 44.852 210.288C44.4947 210.352 44.1693 210.411 43.876 210.464L43.772 209.872ZM47.708 204.616H48.268V205.768C48.268 205.981 48.244 206.208 48.196 206.448C48.148 206.688 48.0547 206.917 47.916 207.136C47.7773 207.355 47.572 207.549 47.3 207.72C47.2733 207.677 47.236 207.629 47.188 207.576C47.14 207.523 47.0867 207.472 47.028 207.424C46.9747 207.371 46.9267 207.333 46.884 207.312C47.1293 207.163 47.3107 207.003 47.428 206.832C47.5453 206.656 47.62 206.477 47.652 206.296C47.6893 206.109 47.708 205.928 47.708 205.752V204.616ZM46.66 204.288L47.172 204.712C46.9533 204.819 46.708 204.92 46.436 205.016C46.164 205.112 45.884 205.2 45.596 205.28C45.308 205.36 45.028 205.432 44.756 205.496C44.74 205.432 44.7107 205.355 44.668 205.264C44.6307 205.173 44.5933 205.099 44.556 205.04C44.812 204.976 45.0707 204.904 45.332 204.824C45.5933 204.739 45.8387 204.651 46.068 204.56C46.3027 204.469 46.5 204.379 46.66 204.288ZM49.532 204.616H50.1V206.592C50.1 206.667 50.1027 206.728 50.108 206.776C50.1133 206.819 50.124 206.848 50.14 206.864C50.1667 206.88 50.2093 206.888 50.268 206.888C50.2947 206.888 50.3293 206.888 50.372 206.888C50.42 206.888 50.4627 206.888 50.5 206.888C50.532 206.888 50.564 206.885 50.596 206.88C50.628 206.875 50.652 206.869 50.668 206.864C50.7053 206.843 50.7347 206.781 50.756 206.68C50.7613 206.621 50.7667 206.533 50.772 206.416C50.7773 206.293 50.7827 206.152 50.788 205.992C50.8413 206.04 50.9107 206.085 50.996 206.128C51.0867 206.171 51.172 206.205 51.252 206.232C51.2413 206.387 51.228 206.544 51.212 206.704C51.2013 206.859 51.1853 206.968 51.164 207.032C51.1213 207.16 51.0413 207.251 50.924 207.304C50.8813 207.331 50.8227 207.349 50.748 207.36C50.6787 207.371 50.612 207.376 50.548 207.376C50.4947 207.376 50.4227 207.376 50.332 207.376C50.2467 207.376 50.1827 207.376 50.14 207.376C50.0653 207.376 49.9853 207.365 49.9 207.344C49.8147 207.323 49.7453 207.288 49.692 207.24C49.6333 207.187 49.5907 207.117 49.564 207.032C49.5427 206.941 49.532 206.781 49.532 206.552V204.616Z" fill="black"/>
</g>
<g id="stair_2">
<rect x="331.5" y="197.5" width="47" height="20" stroke="black"/>
<path id="&#233;&#154;&#142;&#230;&#174;&#181;_2" d="M350.012 205.352H351.532V205.84H350.012V205.352ZM350.18 209.528H353.388V210.016H350.18V209.528ZM350.164 210.816H353.484V211.328H350.164V210.816ZM349.74 204.376H350.284V207.336H349.74V204.376ZM349.22 207.248C349.524 207.189 349.887 207.112 350.308 207.016C350.735 206.92 351.167 206.821 351.604 206.72L351.652 207.184C351.257 207.285 350.86 207.387 350.46 207.488C350.065 207.589 349.705 207.68 349.38 207.76L349.22 207.248ZM351.876 204.376H352.428V206.88C352.428 206.981 352.441 207.048 352.468 207.08C352.5 207.107 352.572 207.12 352.684 207.12C352.716 207.12 352.767 207.12 352.836 207.12C352.905 207.12 352.983 207.12 353.068 207.12C353.153 207.12 353.231 207.12 353.3 207.12C353.375 207.12 353.431 207.12 353.468 207.12C353.537 207.12 353.588 207.104 353.62 207.072C353.652 207.035 353.673 206.96 353.684 206.848C353.7 206.736 353.711 206.573 353.716 206.36C353.78 206.408 353.86 206.453 353.956 206.496C354.052 206.533 354.14 206.56 354.22 206.576C354.204 206.853 354.172 207.069 354.124 207.224C354.076 207.379 354.004 207.485 353.908 207.544C353.817 207.603 353.689 207.632 353.524 207.632C353.497 207.632 353.441 207.632 353.356 207.632C353.271 207.632 353.175 207.632 353.068 207.632C352.967 207.632 352.873 207.632 352.788 207.632C352.708 207.632 352.652 207.632 352.62 207.632C352.423 207.632 352.268 207.611 352.156 207.568C352.049 207.525 351.975 207.451 351.932 207.344C351.895 207.232 351.876 207.077 351.876 206.88V204.376ZM353.628 204.88L354.052 205.28C353.807 205.435 353.521 205.584 353.196 205.728C352.876 205.867 352.567 205.992 352.268 206.104C352.257 206.045 352.233 205.979 352.196 205.904C352.159 205.829 352.124 205.763 352.092 205.704C352.279 205.624 352.468 205.539 352.66 205.448C352.852 205.357 353.031 205.264 353.196 205.168C353.367 205.067 353.511 204.971 353.628 204.88ZM351.332 207.456L351.94 207.584C351.871 207.765 351.799 207.947 351.724 208.128C351.655 208.309 351.588 208.467 351.524 208.6L351.004 208.472C351.063 208.333 351.124 208.168 351.188 207.976C351.257 207.779 351.305 207.605 351.332 207.456ZM349.884 208.264H353.772V211.592H353.188V208.776H350.444V211.624H349.884V208.264ZM347.164 204.624H348.956V205.168H347.7V211.64H347.164V204.624ZM348.772 204.624H348.876L348.964 204.592L349.356 204.832C349.287 205.051 349.209 205.283 349.124 205.528C349.044 205.768 348.959 206.011 348.868 206.256C348.783 206.501 348.697 206.733 348.612 206.952C348.884 207.283 349.063 207.592 349.148 207.88C349.233 208.168 349.276 208.435 349.276 208.68C349.281 208.888 349.26 209.075 349.212 209.24C349.164 209.4 349.084 209.52 348.972 209.6C348.924 209.637 348.865 209.667 348.796 209.688C348.732 209.709 348.66 209.728 348.58 209.744C348.505 209.749 348.423 209.755 348.332 209.76C348.247 209.76 348.161 209.757 348.076 209.752C348.071 209.677 348.055 209.592 348.028 209.496C348.007 209.395 347.975 209.304 347.932 209.224C348.017 209.229 348.095 209.235 348.164 209.24C348.233 209.24 348.295 209.237 348.348 209.232C348.455 209.232 348.537 209.211 348.596 209.168C348.649 209.125 348.687 209.053 348.708 208.952C348.735 208.845 348.748 208.733 348.748 208.616C348.743 208.397 348.697 208.155 348.612 207.888C348.527 207.621 348.351 207.331 348.084 207.016C348.148 206.835 348.212 206.643 348.276 206.44C348.345 206.237 348.409 206.035 348.468 205.832C348.532 205.629 348.588 205.44 348.636 205.264C348.689 205.083 348.735 204.923 348.772 204.784V204.624ZM358.252 207.832H361.34V208.376H358.252V207.832ZM355.708 206.36H357.844V206.92H355.708V206.36ZM355.708 207.896H357.916V208.456H355.708V207.896ZM358.988 204.616H360.86V205.144H358.988V204.616ZM361.22 207.832H361.332L361.444 207.808L361.828 207.96C361.631 208.643 361.34 209.229 360.956 209.72C360.577 210.205 360.132 210.605 359.62 210.92C359.108 211.235 358.556 211.48 357.964 211.656C357.943 211.603 357.913 211.541 357.876 211.472C357.839 211.408 357.799 211.344 357.756 211.28C357.713 211.221 357.673 211.171 357.636 211.128C358.18 210.989 358.692 210.779 359.172 210.496C359.657 210.213 360.079 209.859 360.436 209.432C360.793 209.005 361.055 208.507 361.22 207.936V207.832ZM359.108 208.344C359.364 209.027 359.759 209.608 360.292 210.088C360.831 210.563 361.481 210.901 362.244 211.104C362.201 211.147 362.153 211.197 362.1 211.256C362.052 211.32 362.007 211.384 361.964 211.448C361.921 211.517 361.884 211.579 361.852 211.632C361.057 211.387 360.385 210.997 359.836 210.464C359.292 209.925 358.873 209.269 358.58 208.496L359.108 208.344ZM355.428 204.888L356.004 205.072V211.632H355.428V204.888ZM354.772 209.872C355.049 209.829 355.369 209.779 355.732 209.72C356.1 209.661 356.489 209.597 356.9 209.528C357.311 209.459 357.719 209.389 358.124 209.32L358.148 209.872C357.764 209.941 357.375 210.013 356.98 210.088C356.585 210.157 356.209 210.224 355.852 210.288C355.495 210.352 355.169 210.411 354.876 210.464L354.772 209.872ZM358.708 204.616H359.268V205.768C359.268 205.981 359.244 206.208 359.196 206.448C359.148 206.688 359.055 206.917 358.916 207.136C358.777 207.355 358.572 207.549 358.3 207.72C358.273 207.677 358.236 207.629 358.188 207.576C358.14 207.523 358.087 207.472 358.028 207.424C357.975 207.371 357.927 207.333 357.884 207.312C358.129 207.163 358.311 207.003 358.428 206.832C358.545 206.656 358.62 206.477 358.652 206.296C358.689 206.109 358.708 205.928 358.708 205.752V204.616ZM357.66 204.288L358.172 204.712C357.953 204.819 357.708 204.92 357.436 205.016C357.164 205.112 356.884 205.2 356.596 205.28C356.308 205.36 356.028 205.432 355.756 205.496C355.74 205.432 355.711 205.355 355.668 205.264C355.631 205.173 355.593 205.099 355.556 205.04C355.812 204.976 356.071 204.904 356.332 204.824C356.593 204.739 356.839 204.651 357.068 204.56C357.303 204.469 357.5 204.379 357.66 204.288ZM360.532 204.616H361.1V206.592C361.1 206.667 361.103 206.728 361.108 206.776C361.113 206.819 361.124 206.848 361.14 206.864C361.167 206.88 361.209 206.888 361.268 206.888C361.295 206.888 361.329 206.888 361.372 206.888C361.42 206.888 361.463 206.888 361.5 206.888C361.532 206.888 361.564 206.885 361.596 206.88C361.628 206.875 361.652 206.869 361.668 206.864C361.705 206.843 361.735 206.781 361.756 206.68C361.761 206.621 361.767 206.533 361.772 206.416C361.777 206.293 361.783 206.152 361.788 205.992C361.841 206.04 361.911 206.085 361.996 206.128C362.087 206.171 362.172 206.205 362.252 206.232C362.241 206.387 362.228 206.544 362.212 206.704C362.201 206.859 362.185 206.968 362.164 207.032C362.121 207.16 362.041 207.251 361.924 207.304C361.881 207.331 361.823 207.349 361.748 207.36C361.679 207.371 361.612 207.376 361.548 207.376C361.495 207.376 361.423 207.376 361.332 207.376C361.247 207.376 361.183 207.376 361.14 207.376C361.065 207.376 360.985 207.365 360.9 207.344C360.815 207.323 360.745 207.288 360.692 207.24C360.633 207.187 360.591 207.117 360.564 207.032C360.543 206.941 360.532 206.781 360.532 206.552V204.616Z" fill="black"/>
</g>
<g id="longelevator">
<rect x="20.5" y="178.5" width="25" height="19" stroke="black"/>
<path id="EV" d="M29.1108 191V185.182H32.6222V185.807H29.8153V187.773H32.4403V188.398H29.8153V190.375H32.6676V191H29.1108ZM34.1307 185.182L35.858 190.08H35.9261L37.6534 185.182H38.392L36.2557 191H35.5284L33.392 185.182H34.1307Z" fill="black"/>
</g>
<g id="longelevator_2">
<rect x="353.5" y="178.5" width="25" height="19" stroke="black"/>
<path id="EV_2" d="M362.111 191V185.182H365.622V185.807H362.815V187.773H365.44V188.398H362.815V190.375H365.668V191H362.111ZM367.131 185.182L368.858 190.08H368.926L370.653 185.182H371.392L369.256 191H368.528L366.392 185.182H367.131Z" fill="black"/>
</g>
<g id="escalator_2">
<rect x="169.5" y="91.5" width="60" height="18" stroke="black"/>
<path id="Escalator" d="M173.16 97.648C173.267 97.664 173.384 97.6773 173.512 97.688C173.645 97.6933 173.752 97.696 173.832 97.696H178.232C178.355 97.696 178.475 97.6907 178.592 97.68C178.709 97.6693 178.816 97.6587 178.912 97.648V98.352C178.811 98.3413 178.699 98.3333 178.576 98.328C178.459 98.3227 178.344 98.32 178.232 98.32H173.832C173.757 98.32 173.651 98.3227 173.512 98.328C173.379 98.3333 173.261 98.3413 173.16 98.352V97.648ZM175.632 102.344V98.048H176.312V102.344H175.632ZM172.672 101.952C172.789 101.968 172.907 101.981 173.024 101.992C173.147 101.997 173.264 102 173.376 102H178.664C178.787 102 178.901 101.995 179.008 101.984C179.12 101.973 179.227 101.963 179.328 101.952V102.68C179.221 102.669 179.104 102.661 178.976 102.656C178.848 102.651 178.744 102.648 178.664 102.648H173.376C173.269 102.648 173.155 102.651 173.032 102.656C172.915 102.661 172.795 102.669 172.672 102.68V101.952ZM186.4 97.648C186.373 97.68 186.339 97.7333 186.296 97.808C186.259 97.8773 186.227 97.9413 186.2 98C186.099 98.2613 185.965 98.552 185.8 98.872C185.635 99.1867 185.451 99.4987 185.248 99.808C185.045 100.117 184.832 100.397 184.608 100.648C184.315 100.979 183.992 101.301 183.64 101.616C183.288 101.925 182.917 102.216 182.528 102.488C182.139 102.755 181.733 102.984 181.312 103.176L180.8 102.64C181.232 102.469 181.645 102.259 182.04 102.008C182.44 101.752 182.813 101.475 183.16 101.176C183.512 100.872 183.824 100.568 184.096 100.264C184.277 100.056 184.456 99.824 184.632 99.568C184.813 99.3067 184.973 99.0427 185.112 98.776C185.256 98.504 185.36 98.2587 185.424 98.04C185.381 98.04 185.28 98.04 185.12 98.04C184.96 98.04 184.771 98.04 184.552 98.04C184.333 98.04 184.104 98.04 183.864 98.04C183.624 98.04 183.395 98.04 183.176 98.04C182.957 98.04 182.768 98.04 182.608 98.04C182.453 98.04 182.352 98.04 182.304 98.04C182.213 98.04 182.109 98.0427 181.992 98.048C181.88 98.0533 181.776 98.0587 181.68 98.064C181.589 98.0693 181.528 98.0747 181.496 98.08V97.352C181.533 97.3573 181.6 97.3653 181.696 97.376C181.797 97.3813 181.904 97.3867 182.016 97.392C182.128 97.3973 182.224 97.4 182.304 97.4C182.363 97.4 182.469 97.4 182.624 97.4C182.779 97.4 182.963 97.4 183.176 97.4C183.395 97.4 183.621 97.4 183.856 97.4C184.091 97.4 184.315 97.4 184.528 97.4C184.747 97.4 184.933 97.4 185.088 97.4C185.243 97.4 185.344 97.4 185.392 97.4C185.525 97.4 185.643 97.3947 185.744 97.384C185.851 97.3733 185.933 97.3573 185.992 97.336L186.4 97.648ZM184.712 100.224C184.931 100.405 185.155 100.605 185.384 100.824C185.619 101.043 185.848 101.269 186.072 101.504C186.296 101.733 186.504 101.955 186.696 102.168C186.888 102.376 187.053 102.565 187.192 102.736L186.632 103.216C186.445 102.96 186.221 102.685 185.96 102.392C185.699 102.093 185.421 101.797 185.128 101.504C184.84 101.205 184.549 100.931 184.256 100.68L184.712 100.224ZM192.064 96.704C192.053 96.7947 192.043 96.904 192.032 97.032C192.027 97.1547 192.021 97.264 192.016 97.36C191.995 98.176 191.923 98.8907 191.8 99.504C191.677 100.112 191.507 100.645 191.288 101.104C191.075 101.557 190.813 101.955 190.504 102.296C190.2 102.637 189.851 102.944 189.456 103.216L188.872 102.744C189 102.675 189.139 102.587 189.288 102.48C189.437 102.373 189.573 102.264 189.696 102.152C189.947 101.928 190.171 101.669 190.368 101.376C190.571 101.083 190.744 100.747 190.888 100.368C191.037 99.9893 191.152 99.5547 191.232 99.064C191.317 98.568 191.363 98.0027 191.368 97.368C191.368 97.3093 191.365 97.24 191.36 97.16C191.355 97.08 191.347 97 191.336 96.92C191.331 96.84 191.323 96.768 191.312 96.704H192.064ZM194.84 98.368C194.829 98.4373 194.819 98.5067 194.808 98.576C194.803 98.6453 194.8 98.7067 194.8 98.76C194.795 98.9093 194.784 99.1147 194.768 99.376C194.757 99.6373 194.739 99.9227 194.712 100.232C194.691 100.536 194.661 100.843 194.624 101.152C194.592 101.461 194.549 101.747 194.496 102.008C194.443 102.264 194.381 102.469 194.312 102.624C194.232 102.789 194.123 102.912 193.984 102.992C193.851 103.072 193.675 103.112 193.456 103.112C193.253 103.112 193.04 103.104 192.816 103.088C192.592 103.077 192.376 103.067 192.168 103.056L192.088 102.392C192.307 102.419 192.517 102.44 192.72 102.456C192.928 102.472 193.115 102.48 193.28 102.48C193.397 102.48 193.493 102.461 193.568 102.424C193.643 102.387 193.701 102.317 193.744 102.216C193.808 102.093 193.861 101.925 193.904 101.712C193.947 101.499 193.984 101.259 194.016 100.992C194.048 100.725 194.075 100.456 194.096 100.184C194.117 99.912 194.131 99.6533 194.136 99.408C194.147 99.1627 194.152 98.9547 194.152 98.784H189.936C189.776 98.784 189.619 98.7867 189.464 98.792C189.309 98.792 189.16 98.8 189.016 98.816V98.136C189.155 98.152 189.304 98.1653 189.464 98.176C189.624 98.1813 189.779 98.184 189.928 98.184H193.88C193.987 98.184 194.08 98.1813 194.16 98.176C194.245 98.1653 194.323 98.1547 194.392 98.144L194.84 98.368ZM197.776 102.744C197.808 102.68 197.829 102.619 197.84 102.56C197.851 102.501 197.856 102.432 197.856 102.352C197.856 102.272 197.856 102.123 197.856 101.904C197.856 101.685 197.856 101.424 197.856 101.12C197.856 100.816 197.856 100.499 197.856 100.168C197.856 99.832 197.856 99.5067 197.856 99.192C197.856 98.872 197.856 98.5893 197.856 98.344C197.856 98.0933 197.856 97.904 197.856 97.776C197.856 97.7067 197.851 97.624 197.84 97.528C197.835 97.432 197.827 97.3413 197.816 97.256C197.811 97.1707 197.8 97.1013 197.784 97.048H198.576C198.56 97.144 198.547 97.2613 198.536 97.4C198.525 97.5333 198.52 97.6587 198.52 97.776C198.52 97.8827 198.52 98.0373 198.52 98.24C198.52 98.4427 198.52 98.6747 198.52 98.936C198.52 99.192 198.52 99.464 198.52 99.752C198.52 100.04 198.52 100.323 198.52 100.6C198.52 100.877 198.52 101.136 198.52 101.376C198.52 101.611 198.52 101.811 198.52 101.976C198.52 102.141 198.52 102.253 198.52 102.312C198.904 102.216 199.299 102.08 199.704 101.904C200.115 101.728 200.515 101.523 200.904 101.288C201.299 101.048 201.667 100.787 202.008 100.504C202.355 100.216 202.651 99.9093 202.896 99.584L203.256 100.144C202.739 100.789 202.077 101.355 201.272 101.84C200.472 102.325 199.573 102.712 198.576 103C198.533 103.011 198.483 103.027 198.424 103.048C198.365 103.075 198.304 103.107 198.24 103.144L197.776 102.744ZM204.816 99.536C204.896 99.5413 204.995 99.5493 205.112 99.56C205.229 99.5653 205.357 99.5707 205.496 99.576C205.64 99.576 205.784 99.576 205.928 99.576C206.013 99.576 206.144 99.576 206.32 99.576C206.501 99.576 206.712 99.576 206.952 99.576C207.192 99.576 207.445 99.576 207.712 99.576C207.984 99.576 208.253 99.576 208.52 99.576C208.792 99.576 209.048 99.576 209.288 99.576C209.533 99.576 209.744 99.576 209.92 99.576C210.096 99.576 210.227 99.576 210.312 99.576C210.515 99.576 210.688 99.5707 210.832 99.56C210.976 99.5493 211.091 99.5413 211.176 99.536V100.32C211.096 100.315 210.976 100.307 210.816 100.296C210.661 100.285 210.496 100.28 210.32 100.28C210.235 100.28 210.101 100.28 209.92 100.28C209.739 100.28 209.528 100.28 209.288 100.28C209.053 100.28 208.8 100.28 208.528 100.28C208.256 100.28 207.984 100.28 207.712 100.28C207.445 100.28 207.192 100.28 206.952 100.28C206.717 100.28 206.509 100.28 206.328 100.28C206.147 100.28 206.013 100.28 205.928 100.28C205.709 100.28 205.501 100.285 205.304 100.296C205.107 100.301 204.944 100.309 204.816 100.32V99.536ZM215.32 99.336C215.576 99.4853 215.845 99.6507 216.128 99.832C216.411 100.013 216.691 100.203 216.968 100.4C217.251 100.592 217.52 100.781 217.776 100.968C218.032 101.155 218.259 101.331 218.456 101.496L217.984 102.048C217.803 101.883 217.584 101.701 217.328 101.504C217.077 101.301 216.811 101.099 216.528 100.896C216.245 100.688 215.963 100.488 215.68 100.296C215.397 100.104 215.133 99.9307 214.888 99.776L215.32 99.336ZM218.984 97.872C218.947 97.9307 218.912 98.0027 218.88 98.088C218.848 98.168 218.819 98.24 218.792 98.304C218.717 98.576 218.611 98.8693 218.472 99.184C218.333 99.4987 218.171 99.816 217.984 100.136C217.797 100.451 217.584 100.755 217.344 101.048C216.987 101.491 216.539 101.917 216 102.328C215.467 102.733 214.821 103.075 214.064 103.352L213.488 102.856C213.984 102.701 214.435 102.512 214.84 102.288C215.251 102.059 215.619 101.808 215.944 101.536C216.269 101.264 216.552 100.984 216.792 100.696C217 100.451 217.189 100.181 217.36 99.888C217.536 99.5947 217.688 99.304 217.816 99.016C217.944 98.7227 218.037 98.4507 218.096 98.2H215.128L215.384 97.632H217.928C218.035 97.632 218.133 97.6267 218.224 97.616C218.315 97.6 218.392 97.5787 218.456 97.552L218.984 97.872ZM216.288 96.72C216.219 96.8267 216.152 96.9387 216.088 97.056C216.024 97.1733 215.971 97.2693 215.928 97.344C215.768 97.6373 215.56 97.96 215.304 98.312C215.053 98.6587 214.757 99.0053 214.416 99.352C214.08 99.6987 213.699 100.021 213.272 100.32L212.736 99.904C213.195 99.6213 213.592 99.3093 213.928 98.968C214.264 98.6267 214.547 98.2933 214.776 97.968C215.005 97.6427 215.181 97.36 215.304 97.12C215.347 97.0507 215.395 96.9547 215.448 96.832C215.501 96.704 215.539 96.5893 215.56 96.488L216.288 96.72ZM220.816 99.536C220.896 99.5413 220.995 99.5493 221.112 99.56C221.229 99.5653 221.357 99.5707 221.496 99.576C221.64 99.576 221.784 99.576 221.928 99.576C222.013 99.576 222.144 99.576 222.32 99.576C222.501 99.576 222.712 99.576 222.952 99.576C223.192 99.576 223.445 99.576 223.712 99.576C223.984 99.576 224.253 99.576 224.52 99.576C224.792 99.576 225.048 99.576 225.288 99.576C225.533 99.576 225.744 99.576 225.92 99.576C226.096 99.576 226.227 99.576 226.312 99.576C226.515 99.576 226.688 99.5707 226.832 99.56C226.976 99.5493 227.091 99.5413 227.176 99.536V100.32C227.096 100.315 226.976 100.307 226.816 100.296C226.661 100.285 226.496 100.28 226.32 100.28C226.235 100.28 226.101 100.28 225.92 100.28C225.739 100.28 225.528 100.28 225.288 100.28C225.053 100.28 224.8 100.28 224.528 100.28C224.256 100.28 223.984 100.28 223.712 100.28C223.445 100.28 223.192 100.28 222.952 100.28C222.717 100.28 222.509 100.28 222.328 100.28C222.147 100.28 222.013 100.28 221.928 100.28C221.709 100.28 221.501 100.285 221.304 100.296C221.107 100.301 220.944 100.309 220.816 100.32V99.536Z" fill="black"/>
</g>
<g id="lounge">
<rect x="169.5" y="138.5" width="60" height="23" stroke="#A19B9B"/>
<path id="&#227;&#131;&#169;&#227;&#130;&#166;&#227;&#131;&#179;&#227;&#130;&#184;" d="M185.348 147.04C185.455 147.056 185.569 147.067 185.692 147.072C185.815 147.077 185.94 147.08 186.068 147.08C186.148 147.08 186.292 147.08 186.5 147.08C186.713 147.08 186.953 147.08 187.22 147.08C187.492 147.08 187.761 147.08 188.028 147.08C188.3 147.08 188.543 147.08 188.756 147.08C188.969 147.08 189.121 147.08 189.212 147.08C189.34 147.08 189.468 147.077 189.596 147.072C189.724 147.067 189.839 147.056 189.94 147.04V147.704C189.844 147.693 189.729 147.688 189.596 147.688C189.468 147.683 189.337 147.68 189.204 147.68C189.113 147.68 188.961 147.68 188.748 147.68C188.54 147.68 188.303 147.68 188.036 147.68C187.769 147.68 187.5 147.68 187.228 147.68C186.961 147.68 186.721 147.68 186.508 147.68C186.3 147.68 186.153 147.68 186.068 147.68C185.945 147.68 185.823 147.683 185.7 147.688C185.577 147.693 185.46 147.699 185.348 147.704V147.04ZM190.524 149.152C190.508 149.184 190.487 149.224 190.46 149.272C190.439 149.315 190.425 149.352 190.42 149.384C190.313 149.779 190.167 150.176 189.98 150.576C189.793 150.971 189.551 151.331 189.252 151.656C188.831 152.115 188.375 152.472 187.884 152.728C187.399 152.984 186.9 153.184 186.388 153.328L185.892 152.76C186.457 152.643 186.983 152.459 187.468 152.208C187.953 151.957 188.367 151.653 188.708 151.296C188.953 151.04 189.153 150.755 189.308 150.44C189.468 150.12 189.585 149.816 189.66 149.528C189.601 149.528 189.489 149.528 189.324 149.528C189.164 149.528 188.967 149.528 188.732 149.528C188.497 149.528 188.244 149.528 187.972 149.528C187.705 149.528 187.433 149.528 187.156 149.528C186.884 149.528 186.628 149.528 186.388 149.528C186.153 149.528 185.948 149.528 185.772 149.528C185.601 149.528 185.481 149.528 185.412 149.528C185.316 149.528 185.199 149.531 185.06 149.536C184.921 149.536 184.777 149.541 184.628 149.552V148.88C184.777 148.896 184.919 148.909 185.052 148.92C185.185 148.925 185.305 148.928 185.412 148.928C185.471 148.928 185.583 148.928 185.748 148.928C185.913 148.928 186.113 148.928 186.348 148.928C186.583 148.928 186.836 148.928 187.108 148.928C187.38 148.928 187.652 148.928 187.924 148.928C188.196 148.928 188.449 148.928 188.684 148.928C188.919 148.928 189.119 148.928 189.284 148.928C189.455 148.928 189.569 148.928 189.628 148.928C189.719 148.928 189.804 148.923 189.884 148.912C189.964 148.901 190.025 148.885 190.068 148.864L190.524 149.152ZM195.828 146.592C195.812 146.715 195.799 146.824 195.788 146.92C195.783 147.016 195.78 147.107 195.78 147.192C195.78 147.256 195.78 147.355 195.78 147.488C195.78 147.621 195.78 147.76 195.78 147.904C195.78 148.048 195.78 148.168 195.78 148.264H195.1C195.1 148.157 195.1 148.032 195.1 147.888C195.1 147.744 195.1 147.608 195.1 147.48C195.1 147.352 195.1 147.256 195.1 147.192C195.1 147.107 195.097 147.016 195.092 146.92C195.092 146.824 195.081 146.715 195.06 146.592H195.828ZM198.556 148.144C198.535 148.203 198.513 148.28 198.492 148.376C198.471 148.467 198.452 148.549 198.436 148.624C198.415 148.784 198.38 148.963 198.332 149.16C198.289 149.357 198.236 149.565 198.172 149.784C198.108 149.997 198.033 150.211 197.948 150.424C197.863 150.632 197.764 150.835 197.652 151.032C197.455 151.379 197.201 151.699 196.892 151.992C196.583 152.285 196.225 152.541 195.82 152.76C195.42 152.979 194.975 153.157 194.484 153.296L193.964 152.696C194.097 152.675 194.236 152.645 194.38 152.608C194.529 152.565 194.668 152.52 194.796 152.472C195.063 152.387 195.332 152.267 195.604 152.112C195.876 151.952 196.129 151.768 196.364 151.56C196.604 151.347 196.804 151.115 196.964 150.864C197.108 150.635 197.231 150.384 197.332 150.112C197.439 149.84 197.524 149.565 197.588 149.288C197.652 149.011 197.697 148.757 197.724 148.528H193.252C193.252 148.613 193.252 148.723 193.252 148.856C193.252 148.989 193.252 149.131 193.252 149.28C193.252 149.424 193.252 149.56 193.252 149.688C193.252 149.811 193.252 149.901 193.252 149.96C193.252 150.035 193.255 150.117 193.26 150.208C193.265 150.299 193.273 150.376 193.284 150.44H192.588C192.599 150.365 192.604 150.28 192.604 150.184C192.609 150.088 192.612 150.003 192.612 149.928C192.612 149.864 192.612 149.768 192.612 149.64C192.612 149.512 192.612 149.376 192.612 149.232C192.612 149.083 192.612 148.944 192.612 148.816C192.612 148.688 192.612 148.589 192.612 148.52C192.612 148.435 192.609 148.333 192.604 148.216C192.604 148.099 192.599 147.995 192.588 147.904C192.705 147.915 192.823 147.923 192.94 147.928C193.063 147.933 193.193 147.936 193.332 147.936H197.572C197.721 147.936 197.836 147.931 197.916 147.92C198.001 147.904 198.071 147.888 198.124 147.872L198.556 148.144ZM201.316 147.136C201.46 147.232 201.625 147.352 201.812 147.496C201.999 147.635 202.188 147.784 202.38 147.944C202.577 148.099 202.761 148.251 202.932 148.4C203.103 148.549 203.244 148.68 203.356 148.792L202.852 149.296C202.751 149.195 202.62 149.069 202.46 148.92C202.3 148.771 202.124 148.616 201.932 148.456C201.74 148.291 201.551 148.136 201.364 147.992C201.177 147.843 201.009 147.72 200.86 147.624L201.316 147.136ZM200.628 152.496C201.097 152.427 201.524 152.331 201.908 152.208C202.297 152.085 202.652 151.947 202.972 151.792C203.292 151.637 203.577 151.483 203.828 151.328C204.239 151.072 204.617 150.779 204.964 150.448C205.311 150.112 205.615 149.765 205.876 149.408C206.137 149.051 206.345 148.709 206.5 148.384L206.884 149.064C206.703 149.395 206.479 149.731 206.212 150.072C205.945 150.413 205.644 150.741 205.308 151.056C204.972 151.371 204.601 151.656 204.196 151.912C203.929 152.077 203.636 152.24 203.316 152.4C203.001 152.56 202.655 152.707 202.276 152.84C201.903 152.968 201.495 153.072 201.052 153.152L200.628 152.496ZM213.228 147.032C213.297 147.123 213.377 147.243 213.468 147.392C213.564 147.541 213.657 147.693 213.748 147.848C213.839 148.003 213.913 148.144 213.972 148.272L213.516 148.48C213.452 148.341 213.38 148.2 213.3 148.056C213.22 147.907 213.137 147.76 213.052 147.616C212.967 147.472 212.879 147.339 212.788 147.216L213.228 147.032ZM214.276 146.648C214.351 146.739 214.433 146.856 214.524 147C214.615 147.144 214.708 147.293 214.804 147.448C214.9 147.603 214.98 147.744 215.044 147.872L214.588 148.08C214.519 147.936 214.441 147.792 214.356 147.648C214.271 147.504 214.183 147.363 214.092 147.224C214.007 147.085 213.919 146.957 213.828 146.84L214.276 146.648ZM209.812 146.912C209.929 146.976 210.068 147.061 210.228 147.168C210.388 147.269 210.553 147.376 210.724 147.488C210.895 147.595 211.052 147.699 211.196 147.8C211.345 147.896 211.463 147.976 211.548 148.04L211.172 148.592C211.076 148.517 210.953 148.429 210.804 148.328C210.66 148.227 210.505 148.123 210.34 148.016C210.18 147.904 210.02 147.8 209.86 147.704C209.705 147.603 209.569 147.517 209.452 147.448L209.812 146.912ZM208.612 152.632C208.905 152.579 209.207 152.509 209.516 152.424C209.825 152.339 210.132 152.235 210.436 152.112C210.74 151.989 211.025 151.853 211.292 151.704C211.735 151.448 212.145 151.165 212.524 150.856C212.903 150.541 213.244 150.208 213.548 149.856C213.852 149.504 214.111 149.141 214.324 148.768L214.708 149.432C214.361 149.965 213.921 150.483 213.388 150.984C212.855 151.48 212.268 151.915 211.628 152.288C211.361 152.443 211.068 152.587 210.748 152.72C210.433 152.848 210.121 152.96 209.812 153.056C209.508 153.157 209.231 153.232 208.98 153.28L208.612 152.632ZM208.604 148.712C208.721 148.776 208.863 148.856 209.028 148.952C209.193 149.048 209.361 149.149 209.532 149.256C209.703 149.363 209.86 149.464 210.004 149.56C210.153 149.651 210.271 149.728 210.356 149.792L209.996 150.352C209.895 150.277 209.769 150.192 209.62 150.096C209.476 150 209.321 149.899 209.156 149.792C208.991 149.685 208.828 149.587 208.668 149.496C208.508 149.4 208.367 149.32 208.244 149.256L208.604 148.712Z" fill="#A19B9B"/>
</g>
</g>
</g>
</g>
<defs>
<filter id="filter0_d_37_1214" x="362.5" y="155" width="9" height="22" filterUnits="userSpaceOnUse" color-interpolation-filters="sRGB">
<feFlood flood-opacity="0" result="BackgroundImageFix"/>
<feColorMatrix in="SourceAlpha" type="matrix" values="0 0 0 0 0 0 0 0 0 0 0 0 0 0 0 0 0 0 127 0" result="hardAlpha"/>
<feOffset dy="4"/>
<feGaussianBlur stdDeviation="2"/>
<feComposite in2="hardAlpha" operator="out"/>
<feColorMatrix type="matrix" values="0 0 0 0 0 0 0 0 0 0 0 0 0 0 0 0 0 0 0.25 0"/>
<feBlend mode="normal" in2="BackgroundImageFix" result="effect1_dropShadow_37_1214"/>
<feBlend mode="normal" in="SourceGraphic" in2="effect1_dropShadow_37_1214" result="shape"/>
</filter>
<filter id="filter1_d_37_1214" x="106.5" y="155" width="9" height="22" filterUnits="userSpaceOnUse" color-interpolation-filters="sRGB">
<feFlood flood-opacity="0" result="BackgroundImageFix"/>
<feColorMatrix in="SourceAlpha" type="matrix" values="0 0 0 0 0 0 0 0 0 0 0 0 0 0 0 0 0 0 127 0" result="hardAlpha"/>
<feOffset dy="4"/>
<feGaussianBlur stdDeviation="2"/>
<feComposite in2="hardAlpha" operator="out"/>
<feColorMatrix type="matrix" values="0 0 0 0 0 0 0 0 0 0 0 0 0 0 0 0 0 0 0.25 0"/>
<feBlend mode="normal" in2="BackgroundImageFix" result="effect1_dropShadow_37_1214"/>
<feBlend mode="normal" in="SourceGraphic" in2="effect1_dropShadow_37_1214" result="shape"/>
</filter>
<filter id="filter2_d_37_1214" x="75" y="176" width="9" height="15" filterUnits="userSpaceOnUse" color-interpolation-filters="sRGB">
<feFlood flood-opacity="0" result="BackgroundImageFix"/>
<feColorMatrix in="SourceAlpha" type="matrix" values="0 0 0 0 0 0 0 0 0 0 0 0 0 0 0 0 0 0 127 0" result="hardAlpha"/>
<feOffset dy="4"/>
<feGaussianBlur stdDeviation="2"/>
<feComposite in2="hardAlpha" operator="out"/>
<feColorMatrix type="matrix" values="0 0 0 0 0 0 0 0 0 0 0 0 0 0 0 0 0 0 0.25 0"/>
<feBlend mode="normal" in2="BackgroundImageFix" result="effect1_dropShadow_37_1214"/>
<feBlend mode="normal" in="SourceGraphic" in2="effect1_dropShadow_37_1214" result="shape"/>
</filter>
<filter id="filter3_d_37_1214" x="141" y="176" width="9" height="15" filterUnits="userSpaceOnUse" color-interpolation-filters="sRGB">
<feFlood flood-opacity="0" result="BackgroundImageFix"/>
<feColorMatrix in="SourceAlpha" type="matrix" values="0 0 0 0 0 0 0 0 0 0 0 0 0 0 0 0 0 0 127 0" result="hardAlpha"/>
<feOffset dy="4"/>
<feGaussianBlur stdDeviation="2"/>
<feComposite in2="hardAlpha" operator="out"/>
<feColorMatrix type="matrix" values="0 0 0 0 0 0 0 0 0 0 0 0 0 0 0 0 0 0 0.25 0"/>
<feBlend mode="normal" in2="BackgroundImageFix" result="effect1_dropShadow_37_1214"/>
<feBlend mode="normal" in="SourceGraphic" in2="effect1_dropShadow_37_1214" result="shape"/>
</filter>
<filter id="filter4_d_37_1214" x="207" y="176" width="9" height="15" filterUnits="userSpaceOnUse" color-interpolation-filters="sRGB">
<feFlood flood-opacity="0" result="BackgroundImageFix"/>
<feColorMatrix in="SourceAlpha" type="matrix" values="0 0 0 0 0 0 0 0 0 0 0 0 0 0 0 0 0 0 127 0" result="hardAlpha"/>
<feOffset dy="4"/>
<feGaussianBlur stdDeviation="2"/>
<feComposite in2="hardAlpha" operator="out"/>
<feColorMatrix type="matrix" values="0 0 0 0 0 0 0 0 0 0 0 0 0 0 0 0 0 0 0.25 0"/>
<feBlend mode="normal" in2="BackgroundImageFix" result="effect1_dropShadow_37_1214"/>
<feBlend mode="normal" in="SourceGraphic" in2="effect1_dropShadow_37_1214" result="shape"/>
</filter>
<filter id="filter5_d_37_1214" x="273" y="176" width="9" height="15" filterUnits="userSpaceOnUse" color-interpolation-filters="sRGB">
<feFlood flood-opacity="0" result="BackgroundImageFix"/>
<feColorMatrix in="SourceAlpha" type="matrix" values="0 0 0 0 0 0 0 0 0 0 0 0 0 0 0 0 0 0 127 0" result="hardAlpha"/>
<feOffset dy="4"/>
<feGaussianBlur stdDeviation="2"/>
<feComposite in2="hardAlpha" operator="out"/>
<feColorMatrix type="matrix" values="0 0 0 0 0 0 0 0 0 0 0 0 0 0 0 0 0 0 0.25 0"/>
<feBlend mode="normal" in2="BackgroundImageFix" result="effect1_dropShadow_37_1214"/>
<feBlend mode="normal" in="SourceGraphic" in2="effect1_dropShadow_37_1214" result="shape"/>
</filter>
<clipPath id="clip0_37_1214">
<rect x="122" y="100" width="21" height="51" fill="white"/>
</clipPath>
<clipPath id="clip1_37_1214">
<rect x="256" y="100" width="21" height="51" fill="white"/>
</clipPath>
</defs>
</svg>
